<?xml version="1.0" encoding="utf-8" standalone="no"?>
<!DOCTYPE svg PUBLIC "-//W3C//DTD SVG 1.1//EN"
  "http://www.w3.org/Graphics/SVG/1.1/DTD/svg11.dtd">
<!-- Created with matplotlib (http://matplotlib.org/) -->
<svg height="345pt" version="1.1" viewBox="0 0 460 345" width="460pt" xmlns="http://www.w3.org/2000/svg" xmlns:xlink="http://www.w3.org/1999/xlink">
 <defs>
  <style type="text/css">
*{stroke-linecap:butt;stroke-linejoin:round;}
  </style>
 </defs>
 <g id="figure_1">
  <g id="patch_1">
   <path d="M 0 345.6 
L 460.8 345.6 
L 460.8 0 
L 0 0 
z
" style="fill:#ffffff;"/>
  </g>
  <g id="axes_1">
   <g id="patch_2">
    <path d="M 57.6 307.584 
L 414.72 307.584 
L 414.72 41.472 
L 57.6 41.472 
z
" style="fill:#ffffff;"/>
   </g>
   <g id="PolyCollection_1">
    <defs>
     <path d="M 73.832727 -292.032 
L 73.832727 -292.032 
L 77.112066 -292.032 
L 80.391405 -292.032 
L 83.670744 -292.032 
L 86.950083 -292.032 
L 90.229421 -292.032 
L 93.50876 -292.032 
L 96.788099 -292.032 
L 100.067438 -292.032 
L 103.346777 -292.032 
L 106.626116 -292.032 
L 109.905455 -292.032 
L 113.184793 -292.032 
L 116.464132 -292.032 
L 119.743471 -292.032 
L 123.02281 -292.032 
L 126.302149 -292.032 
L 129.581488 -292.032 
L 132.860826 -292.032 
L 136.140165 -292.032 
L 139.419504 -292.032 
L 142.698843 -292.032 
L 145.978182 -292.032 
L 149.257521 -292.032 
L 152.53686 -292.032 
L 155.816198 -292.032 
L 159.095537 -292.032 
L 162.374876 -292.032 
L 165.654215 -292.032 
L 168.933554 -292.032 
L 172.212893 -292.032 
L 175.492231 -292.032 
L 178.77157 -292.032 
L 182.050909 -292.032 
L 185.330248 -292.032 
L 188.609587 -292.032 
L 191.888926 -292.032 
L 195.168264 -292.032 
L 198.447603 -292.032 
L 201.726942 -292.032 
L 205.006281 -292.032 
L 208.28562 -292.032 
L 211.564959 -292.032 
L 214.844298 -292.032 
L 218.123636 -292.032 
L 221.402975 -292.032 
L 224.682314 -292.032 
L 227.961653 -292.032 
L 231.240992 -292.032 
L 234.520331 -292.032 
L 237.799669 -292.032 
L 241.079008 -292.032 
L 244.358347 -292.032 
L 247.637686 -292.032 
L 250.917025 -292.032 
L 254.196364 -292.032 
L 257.475702 -292.032 
L 260.755041 -292.032 
L 264.03438 -292.032 
L 267.313719 -292.032 
L 270.593058 -292.032 
L 273.872397 -292.032 
L 277.151736 -292.032 
L 280.431074 -292.032 
L 283.710413 -292.032 
L 286.989752 -292.032 
L 290.269091 -292.032 
L 293.54843 -292.032 
L 296.827769 -292.032 
L 300.107107 -292.032 
L 303.386446 -292.032 
L 306.665785 -292.032 
L 309.945124 -292.032 
L 313.224463 -292.032 
L 316.503802 -292.032 
L 319.78314 -292.032 
L 323.062479 -292.032 
L 326.341818 -292.032 
L 329.621157 -292.032 
L 332.900496 -292.032 
L 336.179835 -292.032 
L 339.459174 -292.032 
L 342.738512 -292.032 
L 346.017851 -292.032 
L 349.29719 -292.032 
L 352.576529 -292.032 
L 355.855868 -292.032 
L 359.135207 -292.032 
L 362.414545 -292.032 
L 365.693884 -292.032 
L 368.973223 -292.032 
L 372.252562 -292.032 
L 375.531901 -292.032 
L 378.81124 -292.032 
L 382.090579 -292.032 
L 385.369917 -292.032 
L 388.649256 -292.032 
L 391.928595 -292.032 
L 395.207934 -292.032 
L 398.487273 -292.032 
L 398.487273 -292.032 
L 398.487273 -292.032 
L 395.207934 -292.032 
L 391.928595 -292.032 
L 388.649256 -292.032 
L 385.369917 -292.032 
L 382.090579 -292.032 
L 378.81124 -292.032 
L 375.531901 -292.032 
L 372.252562 -292.032 
L 368.973223 -292.032 
L 365.693884 -292.032 
L 362.414545 -292.032 
L 359.135207 -292.032 
L 355.855868 -292.032 
L 352.576529 -292.032 
L 349.29719 -292.032 
L 346.017851 -292.032 
L 342.738512 -292.032 
L 339.459174 -292.032 
L 336.179835 -292.032 
L 332.900496 -292.032 
L 329.621157 -292.032 
L 326.341818 -292.032 
L 323.062479 -292.032 
L 319.78314 -292.032 
L 316.503802 -292.032 
L 313.224463 -292.032 
L 309.945124 -292.032 
L 306.665785 -292.032 
L 303.386446 -292.032 
L 300.107107 -292.032 
L 296.827769 -292.032 
L 293.54843 -292.032 
L 290.269091 -292.032 
L 286.989752 -292.032 
L 283.710413 -292.032 
L 280.431074 -292.032 
L 277.151736 -292.032 
L 273.872397 -292.032 
L 270.593058 -292.032 
L 267.313719 -292.032 
L 264.03438 -292.032 
L 260.755041 -292.032 
L 257.475702 -292.032 
L 254.196364 -292.032 
L 250.917025 -292.032 
L 247.637686 -292.032 
L 244.358347 -292.032 
L 241.079008 -292.032 
L 237.799669 -292.032 
L 234.520331 -292.032 
L 231.240992 -292.032 
L 227.961653 -292.032 
L 224.682314 -292.032 
L 221.402975 -292.032 
L 218.123636 -292.032 
L 214.844298 -292.032 
L 211.564959 -292.032 
L 208.28562 -292.032 
L 205.006281 -292.032 
L 201.726942 -292.032 
L 198.447603 -292.032 
L 195.168264 -292.032 
L 191.888926 -292.032 
L 188.609587 -292.032 
L 185.330248 -292.032 
L 182.050909 -292.032 
L 178.77157 -292.032 
L 175.492231 -292.032 
L 172.212893 -292.032 
L 168.933554 -292.032 
L 165.654215 -292.032 
L 162.374876 -292.032 
L 159.095537 -292.032 
L 155.816198 -292.032 
L 152.53686 -292.032 
L 149.257521 -292.032 
L 145.978182 -292.032 
L 142.698843 -292.032 
L 139.419504 -292.032 
L 136.140165 -292.032 
L 132.860826 -292.032 
L 129.581488 -292.032 
L 126.302149 -292.032 
L 123.02281 -292.032 
L 119.743471 -292.032 
L 116.464132 -292.032 
L 113.184793 -292.032 
L 109.905455 -292.032 
L 106.626116 -292.032 
L 103.346777 -292.032 
L 100.067438 -292.032 
L 96.788099 -292.032 
L 93.50876 -292.032 
L 90.229421 -292.032 
L 86.950083 -292.032 
L 83.670744 -292.032 
L 80.391405 -292.032 
L 77.112066 -292.032 
L 73.832727 -292.032 
z
" id="mbbe08630a9" style="stroke:#808080;stroke-opacity:0.2;"/>
    </defs>
    <g clip-path="url(#p37396b3e47)">
     <use style="fill:#808080;fill-opacity:0.2;stroke:#808080;stroke-opacity:0.2;" x="0" xlink:href="#mbbe08630a9" y="345.6"/>
    </g>
   </g>
   <g id="matplotlib.axis_1">
    <g id="xtick_1">
     <g id="line2d_1">
      <defs>
       <path d="M 0 0 
L 0 3.5 
" id="m96cb1df72b" style="stroke:#000000;stroke-width:0.8;"/>
      </defs>
      <g>
       <use style="stroke:#000000;stroke-width:0.8;" x="73.832727" xlink:href="#m96cb1df72b" y="307.584"/>
      </g>
     </g>
     <g id="text_1">
      <!-- 0.0 -->
      <defs>
       <path d="M 31.78125 66.40625 
Q 24.171875 66.40625 20.328125 58.90625 
Q 16.5 51.421875 16.5 36.375 
Q 16.5 21.390625 20.328125 13.890625 
Q 24.171875 6.390625 31.78125 6.390625 
Q 39.453125 6.390625 43.28125 13.890625 
Q 47.125 21.390625 47.125 36.375 
Q 47.125 51.421875 43.28125 58.90625 
Q 39.453125 66.40625 31.78125 66.40625 
z
M 31.78125 74.21875 
Q 44.046875 74.21875 50.515625 64.515625 
Q 56.984375 54.828125 56.984375 36.375 
Q 56.984375 17.96875 50.515625 8.265625 
Q 44.046875 -1.421875 31.78125 -1.421875 
Q 19.53125 -1.421875 13.0625 8.265625 
Q 6.59375 17.96875 6.59375 36.375 
Q 6.59375 54.828125 13.0625 64.515625 
Q 19.53125 74.21875 31.78125 74.21875 
z
" id="DejaVuSans-30"/>
       <path d="M 10.6875 12.40625 
L 21 12.40625 
L 21 0 
L 10.6875 0 
z
" id="DejaVuSans-2e"/>
      </defs>
      <g transform="translate(65.881165 322.182437)scale(0.1 -0.1)">
       <use xlink:href="#DejaVuSans-30"/>
       <use x="63.623047" xlink:href="#DejaVuSans-2e"/>
       <use x="95.410156" xlink:href="#DejaVuSans-30"/>
      </g>
     </g>
    </g>
    <g id="xtick_2">
     <g id="line2d_2">
      <g>
       <use style="stroke:#000000;stroke-width:0.8;" x="138.763636" xlink:href="#m96cb1df72b" y="307.584"/>
      </g>
     </g>
     <g id="text_2">
      <!-- 0.2 -->
      <defs>
       <path d="M 19.1875 8.296875 
L 53.609375 8.296875 
L 53.609375 0 
L 7.328125 0 
L 7.328125 8.296875 
Q 12.9375 14.109375 22.625 23.890625 
Q 32.328125 33.6875 34.8125 36.53125 
Q 39.546875 41.84375 41.421875 45.53125 
Q 43.3125 49.21875 43.3125 52.78125 
Q 43.3125 58.59375 39.234375 62.25 
Q 35.15625 65.921875 28.609375 65.921875 
Q 23.96875 65.921875 18.8125 64.3125 
Q 13.671875 62.703125 7.8125 59.421875 
L 7.8125 69.390625 
Q 13.765625 71.78125 18.9375 73 
Q 24.125 74.21875 28.421875 74.21875 
Q 39.75 74.21875 46.484375 68.546875 
Q 53.21875 62.890625 53.21875 53.421875 
Q 53.21875 48.921875 51.53125 44.890625 
Q 49.859375 40.875 45.40625 35.40625 
Q 44.1875 33.984375 37.640625 27.21875 
Q 31.109375 20.453125 19.1875 8.296875 
z
" id="DejaVuSans-32"/>
      </defs>
      <g transform="translate(130.812074 322.182437)scale(0.1 -0.1)">
       <use xlink:href="#DejaVuSans-30"/>
       <use x="63.623047" xlink:href="#DejaVuSans-2e"/>
       <use x="95.410156" xlink:href="#DejaVuSans-32"/>
      </g>
     </g>
    </g>
    <g id="xtick_3">
     <g id="line2d_3">
      <g>
       <use style="stroke:#000000;stroke-width:0.8;" x="203.694545" xlink:href="#m96cb1df72b" y="307.584"/>
      </g>
     </g>
     <g id="text_3">
      <!-- 0.4 -->
      <defs>
       <path d="M 37.796875 64.3125 
L 12.890625 25.390625 
L 37.796875 25.390625 
z
M 35.203125 72.90625 
L 47.609375 72.90625 
L 47.609375 25.390625 
L 58.015625 25.390625 
L 58.015625 17.1875 
L 47.609375 17.1875 
L 47.609375 0 
L 37.796875 0 
L 37.796875 17.1875 
L 4.890625 17.1875 
L 4.890625 26.703125 
z
" id="DejaVuSans-34"/>
      </defs>
      <g transform="translate(195.742983 322.182437)scale(0.1 -0.1)">
       <use xlink:href="#DejaVuSans-30"/>
       <use x="63.623047" xlink:href="#DejaVuSans-2e"/>
       <use x="95.410156" xlink:href="#DejaVuSans-34"/>
      </g>
     </g>
    </g>
    <g id="xtick_4">
     <g id="line2d_4">
      <g>
       <use style="stroke:#000000;stroke-width:0.8;" x="268.625455" xlink:href="#m96cb1df72b" y="307.584"/>
      </g>
     </g>
     <g id="text_4">
      <!-- 0.6 -->
      <defs>
       <path d="M 33.015625 40.375 
Q 26.375 40.375 22.484375 35.828125 
Q 18.609375 31.296875 18.609375 23.390625 
Q 18.609375 15.53125 22.484375 10.953125 
Q 26.375 6.390625 33.015625 6.390625 
Q 39.65625 6.390625 43.53125 10.953125 
Q 47.40625 15.53125 47.40625 23.390625 
Q 47.40625 31.296875 43.53125 35.828125 
Q 39.65625 40.375 33.015625 40.375 
z
M 52.59375 71.296875 
L 52.59375 62.3125 
Q 48.875 64.0625 45.09375 64.984375 
Q 41.3125 65.921875 37.59375 65.921875 
Q 27.828125 65.921875 22.671875 59.328125 
Q 17.53125 52.734375 16.796875 39.40625 
Q 19.671875 43.65625 24.015625 45.921875 
Q 28.375 48.1875 33.59375 48.1875 
Q 44.578125 48.1875 50.953125 41.515625 
Q 57.328125 34.859375 57.328125 23.390625 
Q 57.328125 12.15625 50.6875 5.359375 
Q 44.046875 -1.421875 33.015625 -1.421875 
Q 20.359375 -1.421875 13.671875 8.265625 
Q 6.984375 17.96875 6.984375 36.375 
Q 6.984375 53.65625 15.1875 63.9375 
Q 23.390625 74.21875 37.203125 74.21875 
Q 40.921875 74.21875 44.703125 73.484375 
Q 48.484375 72.75 52.59375 71.296875 
z
" id="DejaVuSans-36"/>
      </defs>
      <g transform="translate(260.673892 322.182437)scale(0.1 -0.1)">
       <use xlink:href="#DejaVuSans-30"/>
       <use x="63.623047" xlink:href="#DejaVuSans-2e"/>
       <use x="95.410156" xlink:href="#DejaVuSans-36"/>
      </g>
     </g>
    </g>
    <g id="xtick_5">
     <g id="line2d_5">
      <g>
       <use style="stroke:#000000;stroke-width:0.8;" x="333.556364" xlink:href="#m96cb1df72b" y="307.584"/>
      </g>
     </g>
     <g id="text_5">
      <!-- 0.8 -->
      <defs>
       <path d="M 31.78125 34.625 
Q 24.75 34.625 20.71875 30.859375 
Q 16.703125 27.09375 16.703125 20.515625 
Q 16.703125 13.921875 20.71875 10.15625 
Q 24.75 6.390625 31.78125 6.390625 
Q 38.8125 6.390625 42.859375 10.171875 
Q 46.921875 13.96875 46.921875 20.515625 
Q 46.921875 27.09375 42.890625 30.859375 
Q 38.875 34.625 31.78125 34.625 
z
M 21.921875 38.8125 
Q 15.578125 40.375 12.03125 44.71875 
Q 8.5 49.078125 8.5 55.328125 
Q 8.5 64.0625 14.71875 69.140625 
Q 20.953125 74.21875 31.78125 74.21875 
Q 42.671875 74.21875 48.875 69.140625 
Q 55.078125 64.0625 55.078125 55.328125 
Q 55.078125 49.078125 51.53125 44.71875 
Q 48 40.375 41.703125 38.8125 
Q 48.828125 37.15625 52.796875 32.3125 
Q 56.78125 27.484375 56.78125 20.515625 
Q 56.78125 9.90625 50.3125 4.234375 
Q 43.84375 -1.421875 31.78125 -1.421875 
Q 19.734375 -1.421875 13.25 4.234375 
Q 6.78125 9.90625 6.78125 20.515625 
Q 6.78125 27.484375 10.78125 32.3125 
Q 14.796875 37.15625 21.921875 38.8125 
z
M 18.3125 54.390625 
Q 18.3125 48.734375 21.84375 45.5625 
Q 25.390625 42.390625 31.78125 42.390625 
Q 38.140625 42.390625 41.71875 45.5625 
Q 45.3125 48.734375 45.3125 54.390625 
Q 45.3125 60.0625 41.71875 63.234375 
Q 38.140625 66.40625 31.78125 66.40625 
Q 25.390625 66.40625 21.84375 63.234375 
Q 18.3125 60.0625 18.3125 54.390625 
z
" id="DejaVuSans-38"/>
      </defs>
      <g transform="translate(325.604801 322.182437)scale(0.1 -0.1)">
       <use xlink:href="#DejaVuSans-30"/>
       <use x="63.623047" xlink:href="#DejaVuSans-2e"/>
       <use x="95.410156" xlink:href="#DejaVuSans-38"/>
      </g>
     </g>
    </g>
    <g id="xtick_6">
     <g id="line2d_6">
      <g>
       <use style="stroke:#000000;stroke-width:0.8;" x="398.487273" xlink:href="#m96cb1df72b" y="307.584"/>
      </g>
     </g>
     <g id="text_6">
      <!-- 1.0 -->
      <defs>
       <path d="M 12.40625 8.296875 
L 28.515625 8.296875 
L 28.515625 63.921875 
L 10.984375 60.40625 
L 10.984375 69.390625 
L 28.421875 72.90625 
L 38.28125 72.90625 
L 38.28125 8.296875 
L 54.390625 8.296875 
L 54.390625 0 
L 12.40625 0 
z
" id="DejaVuSans-31"/>
      </defs>
      <g transform="translate(390.53571 322.182437)scale(0.1 -0.1)">
       <use xlink:href="#DejaVuSans-31"/>
       <use x="63.623047" xlink:href="#DejaVuSans-2e"/>
       <use x="95.410156" xlink:href="#DejaVuSans-30"/>
      </g>
     </g>
    </g>
    <g id="text_7">
     <!-- Recall -->
     <defs>
      <path d="M 44.390625 34.1875 
Q 47.5625 33.109375 50.5625 29.59375 
Q 53.5625 26.078125 56.59375 19.921875 
L 66.609375 0 
L 56 0 
L 46.6875 18.703125 
Q 43.0625 26.03125 39.671875 28.421875 
Q 36.28125 30.8125 30.421875 30.8125 
L 19.671875 30.8125 
L 19.671875 0 
L 9.8125 0 
L 9.8125 72.90625 
L 32.078125 72.90625 
Q 44.578125 72.90625 50.734375 67.671875 
Q 56.890625 62.453125 56.890625 51.90625 
Q 56.890625 45.015625 53.6875 40.46875 
Q 50.484375 35.9375 44.390625 34.1875 
z
M 19.671875 64.796875 
L 19.671875 38.921875 
L 32.078125 38.921875 
Q 39.203125 38.921875 42.84375 42.21875 
Q 46.484375 45.515625 46.484375 51.90625 
Q 46.484375 58.296875 42.84375 61.546875 
Q 39.203125 64.796875 32.078125 64.796875 
z
" id="DejaVuSans-52"/>
      <path d="M 56.203125 29.59375 
L 56.203125 25.203125 
L 14.890625 25.203125 
Q 15.484375 15.921875 20.484375 11.0625 
Q 25.484375 6.203125 34.421875 6.203125 
Q 39.59375 6.203125 44.453125 7.46875 
Q 49.3125 8.734375 54.109375 11.28125 
L 54.109375 2.78125 
Q 49.265625 0.734375 44.1875 -0.34375 
Q 39.109375 -1.421875 33.890625 -1.421875 
Q 20.796875 -1.421875 13.15625 6.1875 
Q 5.515625 13.8125 5.515625 26.8125 
Q 5.515625 40.234375 12.765625 48.109375 
Q 20.015625 56 32.328125 56 
Q 43.359375 56 49.78125 48.890625 
Q 56.203125 41.796875 56.203125 29.59375 
z
M 47.21875 32.234375 
Q 47.125 39.59375 43.09375 43.984375 
Q 39.0625 48.390625 32.421875 48.390625 
Q 24.90625 48.390625 20.390625 44.140625 
Q 15.875 39.890625 15.1875 32.171875 
z
" id="DejaVuSans-65"/>
      <path d="M 48.78125 52.59375 
L 48.78125 44.1875 
Q 44.96875 46.296875 41.140625 47.34375 
Q 37.3125 48.390625 33.40625 48.390625 
Q 24.65625 48.390625 19.8125 42.84375 
Q 14.984375 37.3125 14.984375 27.296875 
Q 14.984375 17.28125 19.8125 11.734375 
Q 24.65625 6.203125 33.40625 6.203125 
Q 37.3125 6.203125 41.140625 7.25 
Q 44.96875 8.296875 48.78125 10.40625 
L 48.78125 2.09375 
Q 45.015625 0.34375 40.984375 -0.53125 
Q 36.96875 -1.421875 32.421875 -1.421875 
Q 20.0625 -1.421875 12.78125 6.34375 
Q 5.515625 14.109375 5.515625 27.296875 
Q 5.515625 40.671875 12.859375 48.328125 
Q 20.21875 56 33.015625 56 
Q 37.15625 56 41.109375 55.140625 
Q 45.0625 54.296875 48.78125 52.59375 
z
" id="DejaVuSans-63"/>
      <path d="M 34.28125 27.484375 
Q 23.390625 27.484375 19.1875 25 
Q 14.984375 22.515625 14.984375 16.5 
Q 14.984375 11.71875 18.140625 8.90625 
Q 21.296875 6.109375 26.703125 6.109375 
Q 34.1875 6.109375 38.703125 11.40625 
Q 43.21875 16.703125 43.21875 25.484375 
L 43.21875 27.484375 
z
M 52.203125 31.203125 
L 52.203125 0 
L 43.21875 0 
L 43.21875 8.296875 
Q 40.140625 3.328125 35.546875 0.953125 
Q 30.953125 -1.421875 24.3125 -1.421875 
Q 15.921875 -1.421875 10.953125 3.296875 
Q 6 8.015625 6 15.921875 
Q 6 25.140625 12.171875 29.828125 
Q 18.359375 34.515625 30.609375 34.515625 
L 43.21875 34.515625 
L 43.21875 35.40625 
Q 43.21875 41.609375 39.140625 45 
Q 35.0625 48.390625 27.6875 48.390625 
Q 23 48.390625 18.546875 47.265625 
Q 14.109375 46.140625 10.015625 43.890625 
L 10.015625 52.203125 
Q 14.9375 54.109375 19.578125 55.046875 
Q 24.21875 56 28.609375 56 
Q 40.484375 56 46.34375 49.84375 
Q 52.203125 43.703125 52.203125 31.203125 
z
" id="DejaVuSans-61"/>
      <path d="M 9.421875 75.984375 
L 18.40625 75.984375 
L 18.40625 0 
L 9.421875 0 
z
" id="DejaVuSans-6c"/>
     </defs>
     <g transform="translate(221.020938 335.860562)scale(0.1 -0.1)">
      <use xlink:href="#DejaVuSans-52"/>
      <use x="69.419922" xlink:href="#DejaVuSans-65"/>
      <use x="130.943359" xlink:href="#DejaVuSans-63"/>
      <use x="185.923828" xlink:href="#DejaVuSans-61"/>
      <use x="247.203125" xlink:href="#DejaVuSans-6c"/>
      <use x="274.986328" xlink:href="#DejaVuSans-6c"/>
     </g>
    </g>
   </g>
   <g id="matplotlib.axis_2">
    <g id="ytick_1">
     <g id="line2d_7">
      <defs>
       <path d="M 0 0 
L -3.5 0 
" id="m48605ed918" style="stroke:#000000;stroke-width:0.8;"/>
      </defs>
      <g>
       <use style="stroke:#000000;stroke-width:0.8;" x="57.6" xlink:href="#m48605ed918" y="295.488"/>
      </g>
     </g>
     <g id="text_8">
      <!-- 0.0 -->
      <g transform="translate(34.696875 299.287219)scale(0.1 -0.1)">
       <use xlink:href="#DejaVuSans-30"/>
       <use x="63.623047" xlink:href="#DejaVuSans-2e"/>
       <use x="95.410156" xlink:href="#DejaVuSans-30"/>
      </g>
     </g>
    </g>
    <g id="ytick_2">
     <g id="line2d_8">
      <g>
       <use style="stroke:#000000;stroke-width:0.8;" x="57.6" xlink:href="#m48605ed918" y="247.104"/>
      </g>
     </g>
     <g id="text_9">
      <!-- 0.2 -->
      <g transform="translate(34.696875 250.903219)scale(0.1 -0.1)">
       <use xlink:href="#DejaVuSans-30"/>
       <use x="63.623047" xlink:href="#DejaVuSans-2e"/>
       <use x="95.410156" xlink:href="#DejaVuSans-32"/>
      </g>
     </g>
    </g>
    <g id="ytick_3">
     <g id="line2d_9">
      <g>
       <use style="stroke:#000000;stroke-width:0.8;" x="57.6" xlink:href="#m48605ed918" y="198.72"/>
      </g>
     </g>
     <g id="text_10">
      <!-- 0.4 -->
      <g transform="translate(34.696875 202.519219)scale(0.1 -0.1)">
       <use xlink:href="#DejaVuSans-30"/>
       <use x="63.623047" xlink:href="#DejaVuSans-2e"/>
       <use x="95.410156" xlink:href="#DejaVuSans-34"/>
      </g>
     </g>
    </g>
    <g id="ytick_4">
     <g id="line2d_10">
      <g>
       <use style="stroke:#000000;stroke-width:0.8;" x="57.6" xlink:href="#m48605ed918" y="150.336"/>
      </g>
     </g>
     <g id="text_11">
      <!-- 0.6 -->
      <g transform="translate(34.696875 154.135219)scale(0.1 -0.1)">
       <use xlink:href="#DejaVuSans-30"/>
       <use x="63.623047" xlink:href="#DejaVuSans-2e"/>
       <use x="95.410156" xlink:href="#DejaVuSans-36"/>
      </g>
     </g>
    </g>
    <g id="ytick_5">
     <g id="line2d_11">
      <g>
       <use style="stroke:#000000;stroke-width:0.8;" x="57.6" xlink:href="#m48605ed918" y="101.952"/>
      </g>
     </g>
     <g id="text_12">
      <!-- 0.8 -->
      <g transform="translate(34.696875 105.751219)scale(0.1 -0.1)">
       <use xlink:href="#DejaVuSans-30"/>
       <use x="63.623047" xlink:href="#DejaVuSans-2e"/>
       <use x="95.410156" xlink:href="#DejaVuSans-38"/>
      </g>
     </g>
    </g>
    <g id="ytick_6">
     <g id="line2d_12">
      <g>
       <use style="stroke:#000000;stroke-width:0.8;" x="57.6" xlink:href="#m48605ed918" y="53.568"/>
      </g>
     </g>
     <g id="text_13">
      <!-- 1.0 -->
      <g transform="translate(34.696875 57.367219)scale(0.1 -0.1)">
       <use xlink:href="#DejaVuSans-31"/>
       <use x="63.623047" xlink:href="#DejaVuSans-2e"/>
       <use x="95.410156" xlink:href="#DejaVuSans-30"/>
      </g>
     </g>
    </g>
    <g id="text_14">
     <!-- Precision -->
     <defs>
      <path d="M 19.671875 64.796875 
L 19.671875 37.40625 
L 32.078125 37.40625 
Q 38.96875 37.40625 42.71875 40.96875 
Q 46.484375 44.53125 46.484375 51.125 
Q 46.484375 57.671875 42.71875 61.234375 
Q 38.96875 64.796875 32.078125 64.796875 
z
M 9.8125 72.90625 
L 32.078125 72.90625 
Q 44.34375 72.90625 50.609375 67.359375 
Q 56.890625 61.8125 56.890625 51.125 
Q 56.890625 40.328125 50.609375 34.8125 
Q 44.34375 29.296875 32.078125 29.296875 
L 19.671875 29.296875 
L 19.671875 0 
L 9.8125 0 
z
" id="DejaVuSans-50"/>
      <path d="M 41.109375 46.296875 
Q 39.59375 47.171875 37.8125 47.578125 
Q 36.03125 48 33.890625 48 
Q 26.265625 48 22.1875 43.046875 
Q 18.109375 38.09375 18.109375 28.8125 
L 18.109375 0 
L 9.078125 0 
L 9.078125 54.6875 
L 18.109375 54.6875 
L 18.109375 46.1875 
Q 20.953125 51.171875 25.484375 53.578125 
Q 30.03125 56 36.53125 56 
Q 37.453125 56 38.578125 55.875 
Q 39.703125 55.765625 41.0625 55.515625 
z
" id="DejaVuSans-72"/>
      <path d="M 9.421875 54.6875 
L 18.40625 54.6875 
L 18.40625 0 
L 9.421875 0 
z
M 9.421875 75.984375 
L 18.40625 75.984375 
L 18.40625 64.59375 
L 9.421875 64.59375 
z
" id="DejaVuSans-69"/>
      <path d="M 44.28125 53.078125 
L 44.28125 44.578125 
Q 40.484375 46.53125 36.375 47.5 
Q 32.28125 48.484375 27.875 48.484375 
Q 21.1875 48.484375 17.84375 46.4375 
Q 14.5 44.390625 14.5 40.28125 
Q 14.5 37.15625 16.890625 35.375 
Q 19.28125 33.59375 26.515625 31.984375 
L 29.59375 31.296875 
Q 39.15625 29.25 43.1875 25.515625 
Q 47.21875 21.78125 47.21875 15.09375 
Q 47.21875 7.46875 41.1875 3.015625 
Q 35.15625 -1.421875 24.609375 -1.421875 
Q 20.21875 -1.421875 15.453125 -0.5625 
Q 10.6875 0.296875 5.421875 2 
L 5.421875 11.28125 
Q 10.40625 8.6875 15.234375 7.390625 
Q 20.0625 6.109375 24.8125 6.109375 
Q 31.15625 6.109375 34.5625 8.28125 
Q 37.984375 10.453125 37.984375 14.40625 
Q 37.984375 18.0625 35.515625 20.015625 
Q 33.0625 21.96875 24.703125 23.78125 
L 21.578125 24.515625 
Q 13.234375 26.265625 9.515625 29.90625 
Q 5.8125 33.546875 5.8125 39.890625 
Q 5.8125 47.609375 11.28125 51.796875 
Q 16.75 56 26.8125 56 
Q 31.78125 56 36.171875 55.265625 
Q 40.578125 54.546875 44.28125 53.078125 
z
" id="DejaVuSans-73"/>
      <path d="M 30.609375 48.390625 
Q 23.390625 48.390625 19.1875 42.75 
Q 14.984375 37.109375 14.984375 27.296875 
Q 14.984375 17.484375 19.15625 11.84375 
Q 23.34375 6.203125 30.609375 6.203125 
Q 37.796875 6.203125 41.984375 11.859375 
Q 46.1875 17.53125 46.1875 27.296875 
Q 46.1875 37.015625 41.984375 42.703125 
Q 37.796875 48.390625 30.609375 48.390625 
z
M 30.609375 56 
Q 42.328125 56 49.015625 48.375 
Q 55.71875 40.765625 55.71875 27.296875 
Q 55.71875 13.875 49.015625 6.21875 
Q 42.328125 -1.421875 30.609375 -1.421875 
Q 18.84375 -1.421875 12.171875 6.21875 
Q 5.515625 13.875 5.515625 27.296875 
Q 5.515625 40.765625 12.171875 48.375 
Q 18.84375 56 30.609375 56 
z
" id="DejaVuSans-6f"/>
      <path d="M 54.890625 33.015625 
L 54.890625 0 
L 45.90625 0 
L 45.90625 32.71875 
Q 45.90625 40.484375 42.875 44.328125 
Q 39.84375 48.1875 33.796875 48.1875 
Q 26.515625 48.1875 22.3125 43.546875 
Q 18.109375 38.921875 18.109375 30.90625 
L 18.109375 0 
L 9.078125 0 
L 9.078125 54.6875 
L 18.109375 54.6875 
L 18.109375 46.1875 
Q 21.34375 51.125 25.703125 53.5625 
Q 30.078125 56 35.796875 56 
Q 45.21875 56 50.046875 50.171875 
Q 54.890625 44.34375 54.890625 33.015625 
z
" id="DejaVuSans-6e"/>
     </defs>
     <g transform="translate(28.617187 197.032688)rotate(-90)scale(0.1 -0.1)">
      <use xlink:href="#DejaVuSans-50"/>
      <use x="60.287109" xlink:href="#DejaVuSans-72"/>
      <use x="101.369141" xlink:href="#DejaVuSans-65"/>
      <use x="162.892578" xlink:href="#DejaVuSans-63"/>
      <use x="217.873047" xlink:href="#DejaVuSans-69"/>
      <use x="245.65625" xlink:href="#DejaVuSans-73"/>
      <use x="297.755859" xlink:href="#DejaVuSans-69"/>
      <use x="325.539062" xlink:href="#DejaVuSans-6f"/>
      <use x="386.720703" xlink:href="#DejaVuSans-6e"/>
     </g>
    </g>
   </g>
   <g id="line2d_13">
    <path clip-path="url(#p37396b3e47)" d="M 398.487273 164.379429 
L 397.128886 164.631273 
L 397.128886 152.261731 
L 395.770498 152.50785 
L 395.770498 134.434517 
L 394.412111 134.66231 
L 394.412111 127.567059 
L 393.053724 127.785345 
L 393.053724 106.613581 
L 391.695337 106.7904 
L 391.695337 97.553455 
L 390.336949 97.707789 
L 390.336949 89.014154 
L 388.978562 89.144471 
L 388.978562 88.383055 
L 387.620175 87.742572 
L 387.620175 85.399579 
L 386.261788 85.519698 
L 386.261788 83.922981 
L 384.903401 84.03884 
L 384.903401 75.648 
L 383.545013 75.735968 
L 383.545013 73.970892 
L 382.186626 74.053161 
L 382.186626 73.156664 
L 379.469852 73.316571 
L 379.469852 72.406033 
L 374.036303 72.72 
L 374.036303 69.900152 
L 372.677916 69.969356 
L 372.677916 68.041846 
L 361.810818 68.554195 
L 361.810818 64.465297 
L 350.94372 64.872673 
L 350.94372 63.789972 
L 348.226946 63.886863 
L 348.226946 62.784 
L 340.076622 63.055059 
L 340.076622 61.910069 
L 337.359848 61.993075 
L 337.359848 60.8256 
L 333.284686 60.936122 
L 333.284686 59.739429 
L 330.567912 59.803052 
L 330.567912 58.581886 
L 329.209525 58.608 
L 329.209525 57.367791 
L 319.700814 57.512348 
L 319.700814 56.211934 
L 273.515649 56.815248 
L 266.723712 56.928 
L 266.723712 55.259748 
L 223.255321 55.747459 
L 215.104998 55.872 
L 215.104998 53.568 
L 73.832727 53.568 
L 73.832727 53.568 
" style="fill:none;opacity:0.3;stroke:#1f77b4;stroke-linecap:square;"/>
   </g>
   <g id="line2d_14">
    <path clip-path="url(#p37396b3e47)" d="M 398.487273 167.286492 
L 397.128886 167.5392 
L 397.128886 150.822271 
L 395.770498 151.067244 
L 395.770498 145.788157 
L 393.053724 146.272252 
L 393.053724 109.090623 
L 391.695337 109.273263 
L 391.695337 101.620603 
L 390.336949 101.785732 
L 390.336949 99.768 
L 388.978562 99.928976 
L 388.978562 92.869083 
L 387.620175 93.011478 
L 387.620175 86.967403 
L 384.903401 87.218526 
L 384.903401 86.432604 
L 383.545013 86.557091 
L 383.545013 80.866366 
L 380.828239 81.080471 
L 380.828239 80.236346 
L 379.469852 80.341755 
L 379.469852 79.488 
L 378.111464 79.591267 
L 378.111464 75.203122 
L 376.753077 75.291429 
L 376.753077 66.894102 
L 374.036303 67.008 
L 374.036303 66.027399 
L 365.885979 66.356722 
L 365.885979 65.342867 
L 355.018882 65.774972 
L 355.018882 63.648 
L 353.660494 63.694884 
L 353.660494 62.611738 
L 352.302107 62.654197 
L 352.302107 61.555925 
L 350.94372 61.593782 
L 350.94372 58.220308 
L 349.585333 58.242783 
L 349.585333 57.091107 
L 318.342427 57.533902 
L 318.342427 56.226462 
L 273.515649 56.815248 
L 258.573389 57.074087 
L 258.573389 55.333839 
L 217.821773 55.828935 
L 189.295641 56.381023 
L 168.919833 56.975324 
L 152.619186 57.668339 
L 140.393701 58.4064 
L 130.88499 59.194047 
L 122.734667 60.106378 
L 117.301118 60.898909 
L 111.867569 61.910069 
L 107.792408 62.872615 
L 103.717246 64.086261 
L 101.000472 65.088 
L 98.283697 66.300632 
L 95.566923 67.798588 
L 92.850148 69.696 
L 91.491761 70.848 
L 88.774987 73.728 
L 86.058212 77.76 
L 73.832727 53.568 
L 73.832727 53.568 
" style="fill:none;opacity:0.3;stroke:#ff7f0e;stroke-linecap:square;"/>
   </g>
   <g id="line2d_15">
    <path clip-path="url(#p37396b3e47)" d="M 398.487273 167.852503 
L 397.128886 168.105345 
L 397.128886 163.732943 
L 395.770498 163.985615 
L 395.770498 148.097152 
L 394.412111 148.340784 
L 394.412111 136.45424 
L 393.053724 136.685765 
L 393.053724 126.790077 
L 391.695337 127.008 
L 391.695337 106.7904 
L 390.336949 106.968401 
L 390.336949 103.107932 
L 388.978562 103.277589 
L 388.978562 99.928976 
L 386.261788 100.254316 
L 386.261788 90.923294 
L 383.545013 91.2 
L 383.545013 88.128 
L 382.186626 88.258415 
L 382.186626 85.885557 
L 380.828239 86.009379 
L 380.828239 83.573581 
L 379.469852 83.690335 
L 379.469852 80.341755 
L 376.753077 80.555092 
L 376.753077 78.828723 
L 375.39469 78.930581 
L 375.39469 78.05383 
L 374.036303 78.153366 
L 374.036303 75.470222 
L 372.677916 75.560727 
L 372.677916 72.800134 
L 368.602754 73.04461 
L 368.602754 71.143385 
L 367.244367 71.218815 
L 367.244367 69.277091 
L 365.885979 69.345391 
L 365.885979 67.361684 
L 364.527592 67.422449 
L 364.527592 65.3952 
L 363.169205 65.448 
L 363.169205 63.375568 
L 361.810818 63.419946 
L 361.810818 62.365091 
L 359.094043 62.445798 
L 359.094043 61.371871 
L 353.660494 61.518423 
L 353.660494 59.300701 
L 350.94372 59.35556 
L 350.94372 58.220308 
L 348.226946 58.265476 
L 348.226946 55.939765 
L 333.284686 56.074943 
L 333.284686 54.828 
L 292.53307 55.061333 
L 292.53307 53.568 
L 73.832727 53.568 
L 73.832727 53.568 
" style="fill:none;opacity:0.3;stroke:#2ca02c;stroke-linecap:square;"/>
   </g>
   <g id="line2d_16">
    <path clip-path="url(#p37396b3e47)" d="M 398.487273 168.105345 
L 397.123178 168.359308 
L 397.123178 164.586082 
L 395.759083 164.840128 
L 395.759083 162.403804 
L 394.394989 162.658093 
L 394.394989 162.034479 
L 393.030894 162.289694 
L 393.030894 139.53957 
L 391.666799 139.777061 
L 391.666799 103.762286 
L 390.302704 103.933597 
L 390.302704 102.617072 
L 388.93861 102.786207 
L 388.93861 90.786462 
L 386.21042 91.061137 
L 386.21042 87.998562 
L 384.846325 88.128 
L 384.846325 80.866366 
L 383.482231 80.973 
L 383.482231 76.699793 
L 378.025852 77.074397 
L 378.025852 73.479111 
L 376.661757 73.561388 
L 376.661757 72.640531 
L 373.933568 72.800134 
L 373.933568 68.041846 
L 369.841283 68.229818 
L 369.841283 67.241739 
L 368.477189 67.30145 
L 368.477189 66.300632 
L 364.384905 66.4704 
L 364.384905 62.325285 
L 360.29262 62.445798 
L 360.29262 61.371871 
L 349.379862 61.670584 
L 349.379862 60.546462 
L 339.831199 60.789493 
L 339.831199 59.616 
L 322.097968 60.036449 
L 322.097968 58.770581 
L 318.005684 58.855869 
L 318.005684 57.555692 
L 315.277494 57.6 
L 315.277494 56.271017 
L 270.262368 56.881973 
L 260.713705 57.048863 
L 260.713705 55.321043 
L 255.257326 55.373373 
L 255.257326 53.568 
L 73.832727 53.568 
L 73.832727 53.568 
" style="fill:none;opacity:0.3;stroke:#d62728;stroke-linecap:square;"/>
   </g>
   <g id="line2d_17">
    <path clip-path="url(#p37396b3e47)" d="M 398.487273 150.457874 
L 397.123178 150.702545 
L 397.123178 121.217362 
L 395.759083 121.42361 
L 395.759083 103.900349 
L 394.394989 104.069818 
L 394.394989 100.79211 
L 391.666799 101.117793 
L 391.666799 95.603745 
L 388.93861 95.904 
L 388.93861 89.275749 
L 387.574515 89.408 
L 387.574515 88.641903 
L 386.21042 88.772776 
L 386.21042 84.03884 
L 384.846325 84.155586 
L 384.846325 80.866366 
L 383.482231 80.973 
L 383.482231 80.131765 
L 382.118136 80.236346 
L 382.118136 75.914024 
L 379.389947 76.094964 
L 379.389947 73.397508 
L 376.661757 73.561388 
L 376.661757 72.640531 
L 375.297662 72.72 
L 375.297662 70.848 
L 373.933568 70.920911 
L 373.933568 69.969356 
L 368.477189 70.252138 
L 368.477189 68.293565 
L 363.02081 68.554195 
L 363.02081 66.528 
L 361.656715 66.586117 
L 361.656715 61.336073 
L 356.200336 61.481271 
L 356.200336 60.382648 
L 322.097968 61.288851 
L 311.18521 61.632 
L 311.18521 60.325542 
L 308.457021 60.401898 
L 308.457021 59.066182 
L 287.9956 59.578435 
L 287.9956 58.104 
L 264.805989 58.643245 
L 264.805989 56.975324 
L 233.431811 57.633882 
L 208.878105 58.358495 
L 189.780779 59.129379 
L 174.775737 59.934316 
L 162.498885 60.789493 
L 151.586127 61.768678 
L 143.401558 62.697057 
L 136.581085 63.648 
L 133.852895 64.086261 
L 133.852895 58.944 
L 127.032422 59.616 
L 127.032422 53.568 
L 73.832727 53.568 
L 73.832727 53.568 
" style="fill:none;opacity:0.3;stroke:#9467bd;stroke-linecap:square;"/>
   </g>
   <g id="line2d_18">
    <path clip-path="url(#p37396b3e47)" d="M 398.487273 168.105345 
L 397.123178 168.359308 
L 397.123178 164.884264 
L 395.759083 165.138411 
L 395.759083 121.952681 
L 394.394989 122.161171 
L 394.394989 112.097032 
L 393.030894 112.286447 
L 393.030894 104.884364 
L 391.666799 105.05773 
L 391.666799 101.117793 
L 387.574515 101.614829 
L 387.574515 96.055742 
L 386.21042 96.208576 
L 386.21042 95.489155 
L 384.846325 95.641043 
L 384.846325 93.444923 
L 383.482231 93.591529 
L 383.482231 91.339896 
L 382.118136 91.480836 
L 382.118136 89.171321 
L 379.389947 89.442068 
L 379.389947 87.863172 
L 378.025852 87.995077 
L 378.025852 79.69536 
L 373.933568 80.012696 
L 373.933568 76.465778 
L 372.569473 76.560397 
L 372.569473 75.651983 
L 369.841283 75.836787 
L 369.841283 74.913882 
L 367.113094 75.09478 
L 367.113094 74.156936 
L 365.748999 74.244923 
L 365.748999 73.295382 
L 364.384905 73.380414 
L 364.384905 64.41643 
L 361.656715 64.514606 
L 361.656715 63.464727 
L 356.200336 63.648 
L 356.200336 62.569674 
L 353.472147 62.654197 
L 353.472147 60.447242 
L 348.015768 60.580174 
L 348.015768 59.439845 
L 338.467105 59.646392 
L 338.467105 58.455273 
L 323.462063 58.742759 
L 323.462063 57.469935 
L 283.903316 58.190675 
L 263.441895 58.678986 
L 263.441895 56.999489 
L 253.893231 57.178746 
L 253.893231 55.386947 
L 214.334484 55.894154 
L 187.05259 56.448 
L 166.591169 57.074087 
L 151.586127 57.739034 
L 139.309274 58.505143 
L 129.760611 59.328 
L 122.940138 60.106378 
L 117.483759 60.898909 
L 112.02738 61.910069 
L 107.935095 62.872615 
L 103.842811 64.086261 
L 101.114622 65.088 
L 101.114622 53.568 
L 73.832727 53.568 
L 73.832727 53.568 
" style="fill:none;opacity:0.3;stroke:#8c564b;stroke-linecap:square;"/>
   </g>
   <g id="line2d_19">
    <path clip-path="url(#p37396b3e47)" d="M 398.487273 167.8229 
L 397.123178 168.0768 
L 397.123178 158.976 
L 394.394989 159.480344 
L 394.394989 137.568 
L 393.030894 137.801983 
L 393.030894 133.7472 
L 391.666799 133.97694 
L 391.666799 131.151673 
L 390.302704 131.378526 
L 390.302704 124.373854 
L 388.93861 124.590385 
L 388.93861 119.199293 
L 387.574515 119.406987 
L 387.574515 104.934575 
L 386.21042 105.111093 
L 386.21042 95.489155 
L 383.482231 95.794036 
L 383.482231 91.339896 
L 382.118136 90.716764 
L 382.118136 89.946947 
L 380.754041 90.084226 
L 380.754041 89.306182 
L 379.389947 89.442068 
L 379.389947 86.259892 
L 378.025852 86.386605 
L 378.025852 79.69536 
L 376.661757 79.800289 
L 376.661757 78.05383 
L 373.933568 78.253714 
L 373.933568 77.36341 
L 372.569473 77.461333 
L 372.569473 75.651983 
L 369.841283 75.836787 
L 369.841283 73.98319 
L 368.477189 74.069695 
L 368.477189 72.177231 
L 363.02081 72.50087 
L 363.02081 68.554195 
L 360.29262 68.688 
L 360.29262 66.644757 
L 358.928526 66.703928 
L 358.928526 65.664 
L 356.200336 65.774972 
L 356.200336 63.648 
L 349.379862 63.886863 
L 349.379862 62.784 
L 341.195294 63.055059 
L 341.195294 60.753743 
L 324.826157 61.207579 
L 324.826157 59.968 
L 318.005684 60.141913 
L 318.005684 58.855869 
L 303.000642 59.194047 
L 303.000642 57.812211 
L 292.087884 58.020515 
L 292.087884 56.554667 
L 253.893231 57.178746 
L 238.888189 57.501659 
L 238.888189 55.550951 
L 203.421727 56.088 
L 178.868021 56.669538 
L 161.13479 57.289846 
L 158.4066 57.408 
L 158.4066 53.568 
L 73.832727 53.568 
L 73.832727 53.568 
" style="fill:none;opacity:0.3;stroke:#e377c2;stroke-linecap:square;"/>
   </g>
   <g id="line2d_20">
    <path clip-path="url(#p37396b3e47)" d="M 398.487273 168.105345 
L 397.123178 168.359308 
L 397.123178 163.985615 
L 395.759083 164.239448 
L 395.759083 160.516085 
L 394.394989 160.769517 
L 394.394989 147.438 
L 393.030894 147.683091 
L 393.030894 138.24 
L 391.666799 138.475855 
L 391.666799 134.897231 
L 390.302704 135.1296 
L 390.302704 134.208 
L 388.93861 134.440392 
L 388.93861 116.946403 
L 387.574515 117.149538 
L 387.574515 116.576103 
L 386.21042 116.779355 
L 386.21042 116.20101 
L 384.846325 116.404364 
L 384.846325 107.876571 
L 383.482231 108.061925 
L 383.482231 107.420055 
L 382.118136 107.605113 
L 382.118136 102.974197 
L 380.754041 103.148777 
L 380.754041 101.779815 
L 379.389947 101.952 
L 379.389947 95.524605 
L 376.661757 95.83655 
L 375.297662 94.494316 
L 375.297662 92.201612 
L 373.933568 92.349069 
L 373.933568 89.199628 
L 372.569473 89.338272 
L 372.569473 86.903433 
L 367.113094 87.4368 
L 367.113094 84.909862 
L 365.748999 85.037268 
L 365.748999 82.439111 
L 363.02081 82.678705 
L 363.02081 81.792 
L 361.656715 81.910092 
L 361.656715 81.012706 
L 358.928526 81.245288 
L 358.928526 79.414154 
L 357.564431 79.525082 
L 357.564431 76.708174 
L 356.200336 76.809223 
L 356.200336 75.850105 
L 352.108052 76.1472 
L 352.108052 75.168 
L 350.743957 75.264861 
L 350.743957 74.272865 
L 348.015768 74.461091 
L 348.015768 73.451836 
L 343.923484 73.728 
L 343.923484 71.655477 
L 341.195294 71.826113 
L 341.195294 69.696 
L 339.831199 69.773167 
L 339.831199 68.688 
L 338.467105 68.761043 
L 338.467105 67.660427 
L 335.738915 67.798588 
L 335.738915 66.676966 
L 331.646631 66.8736 
L 331.646631 62.208 
L 327.554347 62.342301 
L 327.554347 61.128 
L 316.641589 61.456696 
L 316.641589 60.177836 
L 311.18521 60.325542 
L 311.18521 59.004404 
L 308.457021 59.066182 
L 308.457021 57.7152 
L 287.9956 58.104 
L 287.9956 56.611019 
L 283.903316 56.669538 
L 283.903316 55.128774 
L 240.252284 55.534829 
L 240.252284 53.568 
L 73.832727 53.568 
L 73.832727 53.568 
" style="fill:none;opacity:0.3;stroke:#7f7f7f;stroke-linecap:square;"/>
   </g>
   <g id="line2d_21">
    <path clip-path="url(#p37396b3e47)" d="M 398.487273 166.391677 
L 397.123178 166.645213 
L 397.123178 161.839888 
L 395.759083 162.09286 
L 395.759083 148.719054 
L 394.394989 148.964289 
L 394.394989 121.631119 
L 393.030894 121.839902 
L 393.030894 102.939429 
L 391.666799 103.107932 
L 391.666799 87.490362 
L 390.302704 87.616 
L 390.302704 85.28036 
L 388.93861 85.399579 
L 388.93861 84.606792 
L 387.574515 84.724364 
L 387.574515 82.301793 
L 386.21042 82.412308 
L 386.21042 81.589622 
L 383.482231 81.807689 
L 383.482231 80.131765 
L 382.118136 80.236346 
L 382.118136 74.136097 
L 378.025852 74.388984 
L 378.025852 72.561719 
L 375.297662 72.72 
L 375.297662 71.787916 
L 373.933568 71.864471 
L 373.933568 69.969356 
L 372.569473 70.039149 
L 372.569473 69.075692 
L 371.205378 69.142249 
L 371.205378 60.048 
L 368.477189 60.106378 
L 368.477189 59.041303 
L 364.384905 59.116624 
L 364.384905 56.928 
L 361.656715 56.959402 
L 361.656715 55.839549 
L 360.29262 55.850264 
L 360.29262 54.71454 
L 348.015768 54.765624 
L 348.015768 53.568 
L 73.832727 53.568 
L 73.832727 53.568 
" style="fill:none;opacity:0.3;stroke:#bcbd22;stroke-linecap:square;"/>
   </g>
   <g id="line2d_22">
    <path clip-path="url(#p37396b3e47)" d="M 398.487273 157.081846 
L 397.123178 157.331277 
L 397.123178 133.980845 
L 395.759083 134.208 
L 395.759083 124.037189 
L 394.394989 124.249446 
L 394.394989 113.272615 
L 393.030894 113.464592 
L 393.030894 108.040053 
L 391.666799 108.221023 
L 391.666799 106.968401 
L 390.302704 107.147597 
L 390.302704 101.282325 
L 388.93861 101.448 
L 388.93861 93.011478 
L 387.574515 93.154909 
L 387.574515 88.641903 
L 386.21042 88.772776 
L 386.21042 84.842829 
L 383.482231 85.082483 
L 383.482231 84.273231 
L 379.389947 84.631658 
L 379.389947 82.141228 
L 378.025852 82.254166 
L 378.025852 74.388984 
L 375.297662 74.561058 
L 375.297662 73.644349 
L 373.933568 73.728 
L 373.933568 70.920911 
L 371.205378 71.068596 
L 371.205378 70.109538 
L 369.841283 70.180532 
L 369.841283 69.209379 
L 368.477189 69.277091 
L 368.477189 68.293565 
L 365.748999 68.422737 
L 365.748999 67.422449 
L 364.384905 67.483752 
L 364.384905 65.448 
L 363.02081 65.501274 
L 363.02081 64.465297 
L 361.656715 64.514606 
L 361.656715 63.464727 
L 357.564431 63.601548 
L 357.564431 62.528 
L 346.651673 62.872615 
L 346.651673 61.74887 
L 334.37482 62.120727 
L 334.37482 60.936122 
L 322.097968 61.288851 
L 322.097968 60.036449 
L 320.733873 60.071226 
L 320.733873 58.798703 
L 319.369778 58.82713 
L 319.369778 57.533902 
L 286.631505 58.132528 
L 286.631505 56.630278 
L 249.800947 57.261435 
L 221.154958 57.966545 
L 199.329442 58.715234 
L 181.596211 59.541333 
L 167.955264 60.382648 
L 157.042506 61.248 
L 147.493843 62.208 
L 139.309274 63.2448 
L 132.488801 64.32 
L 127.032422 65.368976 
L 121.576043 66.644757 
L 117.483759 67.798588 
L 113.391474 69.175742 
L 109.29919 70.848 
L 107.935095 71.488 
L 107.935095 62.872615 
L 103.842811 64.086261 
L 101.114622 65.088 
L 98.386432 66.300632 
L 95.658243 67.798588 
L 92.930053 69.696 
L 91.565959 70.848 
L 90.201864 72.177231 
L 88.837769 73.728 
L 87.473675 75.560727 
L 86.10958 77.76 
L 84.745485 80.448 
L 83.38139 83.808 
L 82.017296 88.128 
L 80.653201 93.888 
L 79.289106 101.952 
L 77.925011 114.048 
L 73.832727 53.568 
L 73.832727 53.568 
" style="fill:none;opacity:0.3;stroke:#17becf;stroke-linecap:square;"/>
   </g>
   <g id="line2d_23">
    <path clip-path="url(#p37396b3e47)" d="M 73.832727 53.568 
L 77.112066 53.568 
L 80.391405 53.568 
L 83.670744 53.568 
L 86.950083 53.568 
L 90.229421 53.568 
L 93.50876 53.568 
L 96.788099 53.568 
L 100.067438 53.568 
L 103.346777 53.568 
L 106.626116 53.568 
L 109.905455 53.568 
L 113.184793 53.568 
L 116.464132 53.568 
L 119.743471 53.568 
L 123.02281 53.568 
L 126.302149 53.568 
L 129.581488 53.568 
L 132.860826 53.568 
L 136.140165 53.568 
L 139.419504 53.568 
L 142.698843 53.568 
L 145.978182 53.568 
L 149.257521 53.568 
L 152.53686 53.568 
L 155.816198 53.568 
L 159.095537 53.568 
L 162.374876 53.568 
L 165.654215 53.568 
L 168.933554 53.568 
L 172.212893 53.568 
L 175.492231 53.568 
L 178.77157 53.568 
L 182.050909 53.568 
L 185.330248 53.568 
L 188.609587 53.568 
L 191.888926 53.568 
L 195.168264 53.568 
L 198.447603 53.568 
L 201.726942 53.568 
L 205.006281 53.568 
L 208.28562 53.568 
L 211.564959 53.568 
L 214.844298 53.568 
L 218.123636 53.568 
L 221.402975 53.568 
L 224.682314 53.568 
L 227.961653 53.568 
L 231.240992 53.568 
L 234.520331 53.568 
L 237.799669 53.568 
L 241.079008 53.568 
L 244.358347 53.568 
L 247.637686 53.568 
L 250.917025 53.568 
L 254.196364 53.568 
L 257.475702 53.568 
L 260.755041 53.568 
L 264.03438 53.568 
L 267.313719 53.568 
L 270.593058 53.568 
L 273.872397 53.568 
L 277.151736 53.568 
L 280.431074 53.568 
L 283.710413 53.568 
L 286.989752 53.568 
L 290.269091 53.568 
L 293.54843 53.568 
L 296.827769 53.568 
L 300.107107 53.568 
L 303.386446 53.568 
L 306.665785 53.568 
L 309.945124 53.568 
L 313.224463 53.568 
L 316.503802 53.568 
L 319.78314 53.568 
L 323.062479 53.568 
L 326.341818 53.568 
L 329.621157 53.568 
L 332.900496 53.568 
L 336.179835 53.568 
L 339.459174 53.568 
L 342.738512 53.568 
L 346.017851 53.568 
L 349.29719 53.568 
L 352.576529 53.568 
L 355.855868 53.568 
L 359.135207 53.568 
L 362.414545 53.568 
L 365.693884 53.568 
L 368.973223 53.568 
L 372.252562 53.568 
L 375.531901 53.568 
L 378.81124 53.568 
L 382.090579 53.568 
L 385.369917 53.568 
L 388.649256 53.568 
L 391.928595 53.568 
L 395.207934 53.568 
L 398.487273 53.568 
" style="fill:none;opacity:0.8;stroke:#0000ff;stroke-linecap:square;stroke-width:2;"/>
   </g>
   <g id="patch_3">
    <path d="M 57.6 307.584 
L 57.6 41.472 
" style="fill:none;stroke:#000000;stroke-linecap:square;stroke-linejoin:miter;stroke-width:0.8;"/>
   </g>
   <g id="patch_4">
    <path d="M 414.72 307.584 
L 414.72 41.472 
" style="fill:none;stroke:#000000;stroke-linecap:square;stroke-linejoin:miter;stroke-width:0.8;"/>
   </g>
   <g id="patch_5">
    <path d="M 57.6 307.584 
L 414.72 307.584 
" style="fill:none;stroke:#000000;stroke-linecap:square;stroke-linejoin:miter;stroke-width:0.8;"/>
   </g>
   <g id="patch_6">
    <path d="M 57.6 41.472 
L 414.72 41.472 
" style="fill:none;stroke:#000000;stroke-linecap:square;stroke-linejoin:miter;stroke-width:0.8;"/>
   </g>
   <g id="text_15">
    <!-- Precision-Recall curve with cross validation -->
    <defs>
     <path d="M 4.890625 31.390625 
L 31.203125 31.390625 
L 31.203125 23.390625 
L 4.890625 23.390625 
z
" id="DejaVuSans-2d"/>
     <path id="DejaVuSans-20"/>
     <path d="M 8.5 21.578125 
L 8.5 54.6875 
L 17.484375 54.6875 
L 17.484375 21.921875 
Q 17.484375 14.15625 20.5 10.265625 
Q 23.53125 6.390625 29.59375 6.390625 
Q 36.859375 6.390625 41.078125 11.03125 
Q 45.3125 15.671875 45.3125 23.6875 
L 45.3125 54.6875 
L 54.296875 54.6875 
L 54.296875 0 
L 45.3125 0 
L 45.3125 8.40625 
Q 42.046875 3.421875 37.71875 1 
Q 33.40625 -1.421875 27.6875 -1.421875 
Q 18.265625 -1.421875 13.375 4.4375 
Q 8.5 10.296875 8.5 21.578125 
z
M 31.109375 56 
z
" id="DejaVuSans-75"/>
     <path d="M 2.984375 54.6875 
L 12.5 54.6875 
L 29.59375 8.796875 
L 46.6875 54.6875 
L 56.203125 54.6875 
L 35.6875 0 
L 23.484375 0 
z
" id="DejaVuSans-76"/>
     <path d="M 4.203125 54.6875 
L 13.1875 54.6875 
L 24.421875 12.015625 
L 35.59375 54.6875 
L 46.1875 54.6875 
L 57.421875 12.015625 
L 68.609375 54.6875 
L 77.59375 54.6875 
L 63.28125 0 
L 52.6875 0 
L 40.921875 44.828125 
L 29.109375 0 
L 18.5 0 
z
" id="DejaVuSans-77"/>
     <path d="M 18.3125 70.21875 
L 18.3125 54.6875 
L 36.8125 54.6875 
L 36.8125 47.703125 
L 18.3125 47.703125 
L 18.3125 18.015625 
Q 18.3125 11.328125 20.140625 9.421875 
Q 21.96875 7.515625 27.59375 7.515625 
L 36.8125 7.515625 
L 36.8125 0 
L 27.59375 0 
Q 17.1875 0 13.234375 3.875 
Q 9.28125 7.765625 9.28125 18.015625 
L 9.28125 47.703125 
L 2.6875 47.703125 
L 2.6875 54.6875 
L 9.28125 54.6875 
L 9.28125 70.21875 
z
" id="DejaVuSans-74"/>
     <path d="M 54.890625 33.015625 
L 54.890625 0 
L 45.90625 0 
L 45.90625 32.71875 
Q 45.90625 40.484375 42.875 44.328125 
Q 39.84375 48.1875 33.796875 48.1875 
Q 26.515625 48.1875 22.3125 43.546875 
Q 18.109375 38.921875 18.109375 30.90625 
L 18.109375 0 
L 9.078125 0 
L 9.078125 75.984375 
L 18.109375 75.984375 
L 18.109375 46.1875 
Q 21.34375 51.125 25.703125 53.5625 
Q 30.078125 56 35.796875 56 
Q 45.21875 56 50.046875 50.171875 
Q 54.890625 44.34375 54.890625 33.015625 
z
" id="DejaVuSans-68"/>
     <path d="M 45.40625 46.390625 
L 45.40625 75.984375 
L 54.390625 75.984375 
L 54.390625 0 
L 45.40625 0 
L 45.40625 8.203125 
Q 42.578125 3.328125 38.25 0.953125 
Q 33.9375 -1.421875 27.875 -1.421875 
Q 17.96875 -1.421875 11.734375 6.484375 
Q 5.515625 14.40625 5.515625 27.296875 
Q 5.515625 40.1875 11.734375 48.09375 
Q 17.96875 56 27.875 56 
Q 33.9375 56 38.25 53.625 
Q 42.578125 51.265625 45.40625 46.390625 
z
M 14.796875 27.296875 
Q 14.796875 17.390625 18.875 11.75 
Q 22.953125 6.109375 30.078125 6.109375 
Q 37.203125 6.109375 41.296875 11.75 
Q 45.40625 17.390625 45.40625 27.296875 
Q 45.40625 37.203125 41.296875 42.84375 
Q 37.203125 48.484375 30.078125 48.484375 
Q 22.953125 48.484375 18.875 42.84375 
Q 14.796875 37.203125 14.796875 27.296875 
z
" id="DejaVuSans-64"/>
    </defs>
    <g transform="translate(106.42875 35.472)scale(0.12 -0.12)">
     <use xlink:href="#DejaVuSans-50"/>
     <use x="60.287109" xlink:href="#DejaVuSans-72"/>
     <use x="101.369141" xlink:href="#DejaVuSans-65"/>
     <use x="162.892578" xlink:href="#DejaVuSans-63"/>
     <use x="217.873047" xlink:href="#DejaVuSans-69"/>
     <use x="245.65625" xlink:href="#DejaVuSans-73"/>
     <use x="297.755859" xlink:href="#DejaVuSans-69"/>
     <use x="325.539062" xlink:href="#DejaVuSans-6f"/>
     <use x="386.720703" xlink:href="#DejaVuSans-6e"/>
     <use x="450.099609" xlink:href="#DejaVuSans-2d"/>
     <use x="486.183594" xlink:href="#DejaVuSans-52"/>
     <use x="555.603516" xlink:href="#DejaVuSans-65"/>
     <use x="617.126953" xlink:href="#DejaVuSans-63"/>
     <use x="672.107422" xlink:href="#DejaVuSans-61"/>
     <use x="733.386719" xlink:href="#DejaVuSans-6c"/>
     <use x="761.169922" xlink:href="#DejaVuSans-6c"/>
     <use x="788.953125" xlink:href="#DejaVuSans-20"/>
     <use x="820.740234" xlink:href="#DejaVuSans-63"/>
     <use x="875.720703" xlink:href="#DejaVuSans-75"/>
     <use x="939.099609" xlink:href="#DejaVuSans-72"/>
     <use x="980.212891" xlink:href="#DejaVuSans-76"/>
     <use x="1039.392578" xlink:href="#DejaVuSans-65"/>
     <use x="1100.916016" xlink:href="#DejaVuSans-20"/>
     <use x="1132.703125" xlink:href="#DejaVuSans-77"/>
     <use x="1214.490234" xlink:href="#DejaVuSans-69"/>
     <use x="1242.273438" xlink:href="#DejaVuSans-74"/>
     <use x="1281.482422" xlink:href="#DejaVuSans-68"/>
     <use x="1344.861328" xlink:href="#DejaVuSans-20"/>
     <use x="1376.648438" xlink:href="#DejaVuSans-63"/>
     <use x="1431.628906" xlink:href="#DejaVuSans-72"/>
     <use x="1472.710938" xlink:href="#DejaVuSans-6f"/>
     <use x="1533.892578" xlink:href="#DejaVuSans-73"/>
     <use x="1585.992188" xlink:href="#DejaVuSans-73"/>
     <use x="1638.091797" xlink:href="#DejaVuSans-20"/>
     <use x="1669.878906" xlink:href="#DejaVuSans-76"/>
     <use x="1729.058594" xlink:href="#DejaVuSans-61"/>
     <use x="1790.337891" xlink:href="#DejaVuSans-6c"/>
     <use x="1818.121094" xlink:href="#DejaVuSans-69"/>
     <use x="1845.904297" xlink:href="#DejaVuSans-64"/>
     <use x="1909.380859" xlink:href="#DejaVuSans-61"/>
     <use x="1970.660156" xlink:href="#DejaVuSans-74"/>
     <use x="2009.869141" xlink:href="#DejaVuSans-69"/>
     <use x="2037.652344" xlink:href="#DejaVuSans-6f"/>
     <use x="2098.833984" xlink:href="#DejaVuSans-6e"/>
    </g>
   </g>
   <g id="legend_1">
    <g id="patch_7">
     <path d="M 64.6 302.584 
L 265.6 302.584 
Q 267.6 302.584 267.6 300.584 
L 267.6 125.4465 
Q 267.6 123.4465 265.6 123.4465 
L 64.6 123.4465 
Q 62.6 123.4465 62.6 125.4465 
L 62.6 300.584 
Q 62.6 302.584 64.6 302.584 
z
" style="fill:#ffffff;opacity:0.8;stroke:#cccccc;stroke-linejoin:miter;"/>
    </g>
    <g id="line2d_24">
     <path d="M 66.6 131.544938 
L 86.6 131.544938 
" style="fill:none;opacity:0.3;stroke:#1f77b4;stroke-linecap:square;"/>
    </g>
    <g id="line2d_25"/>
    <g id="text_16">
     <!-- Pr-Rec fold 1 (AUC = 0.98) -->
     <defs>
      <path d="M 37.109375 75.984375 
L 37.109375 68.5 
L 28.515625 68.5 
Q 23.6875 68.5 21.796875 66.546875 
Q 19.921875 64.59375 19.921875 59.515625 
L 19.921875 54.6875 
L 34.71875 54.6875 
L 34.71875 47.703125 
L 19.921875 47.703125 
L 19.921875 0 
L 10.890625 0 
L 10.890625 47.703125 
L 2.296875 47.703125 
L 2.296875 54.6875 
L 10.890625 54.6875 
L 10.890625 58.5 
Q 10.890625 67.625 15.140625 71.796875 
Q 19.390625 75.984375 28.609375 75.984375 
z
" id="DejaVuSans-66"/>
      <path d="M 31 75.875 
Q 24.46875 64.65625 21.28125 53.65625 
Q 18.109375 42.671875 18.109375 31.390625 
Q 18.109375 20.125 21.3125 9.0625 
Q 24.515625 -2 31 -13.1875 
L 23.1875 -13.1875 
Q 15.875 -1.703125 12.234375 9.375 
Q 8.59375 20.453125 8.59375 31.390625 
Q 8.59375 42.28125 12.203125 53.3125 
Q 15.828125 64.359375 23.1875 75.875 
z
" id="DejaVuSans-28"/>
      <path d="M 34.1875 63.1875 
L 20.796875 26.90625 
L 47.609375 26.90625 
z
M 28.609375 72.90625 
L 39.796875 72.90625 
L 67.578125 0 
L 57.328125 0 
L 50.6875 18.703125 
L 17.828125 18.703125 
L 11.1875 0 
L 0.78125 0 
z
" id="DejaVuSans-41"/>
      <path d="M 8.6875 72.90625 
L 18.609375 72.90625 
L 18.609375 28.609375 
Q 18.609375 16.890625 22.84375 11.734375 
Q 27.09375 6.59375 36.625 6.59375 
Q 46.09375 6.59375 50.34375 11.734375 
Q 54.59375 16.890625 54.59375 28.609375 
L 54.59375 72.90625 
L 64.5 72.90625 
L 64.5 27.390625 
Q 64.5 13.140625 57.4375 5.859375 
Q 50.390625 -1.421875 36.625 -1.421875 
Q 22.796875 -1.421875 15.734375 5.859375 
Q 8.6875 13.140625 8.6875 27.390625 
z
" id="DejaVuSans-55"/>
      <path d="M 64.40625 67.28125 
L 64.40625 56.890625 
Q 59.421875 61.53125 53.78125 63.8125 
Q 48.140625 66.109375 41.796875 66.109375 
Q 29.296875 66.109375 22.65625 58.46875 
Q 16.015625 50.828125 16.015625 36.375 
Q 16.015625 21.96875 22.65625 14.328125 
Q 29.296875 6.6875 41.796875 6.6875 
Q 48.140625 6.6875 53.78125 8.984375 
Q 59.421875 11.28125 64.40625 15.921875 
L 64.40625 5.609375 
Q 59.234375 2.09375 53.4375 0.328125 
Q 47.65625 -1.421875 41.21875 -1.421875 
Q 24.65625 -1.421875 15.125 8.703125 
Q 5.609375 18.84375 5.609375 36.375 
Q 5.609375 53.953125 15.125 64.078125 
Q 24.65625 74.21875 41.21875 74.21875 
Q 47.75 74.21875 53.53125 72.484375 
Q 59.328125 70.75 64.40625 67.28125 
z
" id="DejaVuSans-43"/>
      <path d="M 10.59375 45.40625 
L 73.1875 45.40625 
L 73.1875 37.203125 
L 10.59375 37.203125 
z
M 10.59375 25.484375 
L 73.1875 25.484375 
L 73.1875 17.1875 
L 10.59375 17.1875 
z
" id="DejaVuSans-3d"/>
      <path d="M 10.984375 1.515625 
L 10.984375 10.5 
Q 14.703125 8.734375 18.5 7.8125 
Q 22.3125 6.890625 25.984375 6.890625 
Q 35.75 6.890625 40.890625 13.453125 
Q 46.046875 20.015625 46.78125 33.40625 
Q 43.953125 29.203125 39.59375 26.953125 
Q 35.25 24.703125 29.984375 24.703125 
Q 19.046875 24.703125 12.671875 31.3125 
Q 6.296875 37.9375 6.296875 49.421875 
Q 6.296875 60.640625 12.9375 67.421875 
Q 19.578125 74.21875 30.609375 74.21875 
Q 43.265625 74.21875 49.921875 64.515625 
Q 56.59375 54.828125 56.59375 36.375 
Q 56.59375 19.140625 48.40625 8.859375 
Q 40.234375 -1.421875 26.421875 -1.421875 
Q 22.703125 -1.421875 18.890625 -0.6875 
Q 15.09375 0.046875 10.984375 1.515625 
z
M 30.609375 32.421875 
Q 37.25 32.421875 41.125 36.953125 
Q 45.015625 41.5 45.015625 49.421875 
Q 45.015625 57.28125 41.125 61.84375 
Q 37.25 66.40625 30.609375 66.40625 
Q 23.96875 66.40625 20.09375 61.84375 
Q 16.21875 57.28125 16.21875 49.421875 
Q 16.21875 41.5 20.09375 36.953125 
Q 23.96875 32.421875 30.609375 32.421875 
z
" id="DejaVuSans-39"/>
      <path d="M 8.015625 75.875 
L 15.828125 75.875 
Q 23.140625 64.359375 26.78125 53.3125 
Q 30.421875 42.28125 30.421875 31.390625 
Q 30.421875 20.453125 26.78125 9.375 
Q 23.140625 -1.703125 15.828125 -13.1875 
L 8.015625 -13.1875 
Q 14.5 -2 17.703125 9.0625 
Q 20.90625 20.125 20.90625 31.390625 
Q 20.90625 42.671875 17.703125 53.65625 
Q 14.5 64.65625 8.015625 75.875 
z
" id="DejaVuSans-29"/>
     </defs>
     <g transform="translate(94.6 135.044938)scale(0.1 -0.1)">
      <use xlink:href="#DejaVuSans-50"/>
      <use x="60.287109" xlink:href="#DejaVuSans-72"/>
      <use x="101.306641" xlink:href="#DejaVuSans-2d"/>
      <use x="137.390625" xlink:href="#DejaVuSans-52"/>
      <use x="206.810547" xlink:href="#DejaVuSans-65"/>
      <use x="268.333984" xlink:href="#DejaVuSans-63"/>
      <use x="323.314453" xlink:href="#DejaVuSans-20"/>
      <use x="355.101562" xlink:href="#DejaVuSans-66"/>
      <use x="390.306641" xlink:href="#DejaVuSans-6f"/>
      <use x="451.488281" xlink:href="#DejaVuSans-6c"/>
      <use x="479.271484" xlink:href="#DejaVuSans-64"/>
      <use x="542.748047" xlink:href="#DejaVuSans-20"/>
      <use x="574.535156" xlink:href="#DejaVuSans-31"/>
      <use x="638.158203" xlink:href="#DejaVuSans-20"/>
      <use x="669.945312" xlink:href="#DejaVuSans-28"/>
      <use x="708.958984" xlink:href="#DejaVuSans-41"/>
      <use x="777.367188" xlink:href="#DejaVuSans-55"/>
      <use x="850.560547" xlink:href="#DejaVuSans-43"/>
      <use x="920.384766" xlink:href="#DejaVuSans-20"/>
      <use x="952.171875" xlink:href="#DejaVuSans-3d"/>
      <use x="1035.960938" xlink:href="#DejaVuSans-20"/>
      <use x="1067.748047" xlink:href="#DejaVuSans-30"/>
      <use x="1131.371094" xlink:href="#DejaVuSans-2e"/>
      <use x="1163.158203" xlink:href="#DejaVuSans-39"/>
      <use x="1226.78125" xlink:href="#DejaVuSans-38"/>
      <use x="1290.404297" xlink:href="#DejaVuSans-29"/>
     </g>
    </g>
    <g id="line2d_26">
     <path d="M 66.6 146.223063 
L 86.6 146.223063 
" style="fill:none;opacity:0.3;stroke:#ff7f0e;stroke-linecap:square;"/>
    </g>
    <g id="line2d_27"/>
    <g id="text_17">
     <!-- Pr-Rec fold 2 (AUC = 0.96) -->
     <g transform="translate(94.6 149.723063)scale(0.1 -0.1)">
      <use xlink:href="#DejaVuSans-50"/>
      <use x="60.287109" xlink:href="#DejaVuSans-72"/>
      <use x="101.306641" xlink:href="#DejaVuSans-2d"/>
      <use x="137.390625" xlink:href="#DejaVuSans-52"/>
      <use x="206.810547" xlink:href="#DejaVuSans-65"/>
      <use x="268.333984" xlink:href="#DejaVuSans-63"/>
      <use x="323.314453" xlink:href="#DejaVuSans-20"/>
      <use x="355.101562" xlink:href="#DejaVuSans-66"/>
      <use x="390.306641" xlink:href="#DejaVuSans-6f"/>
      <use x="451.488281" xlink:href="#DejaVuSans-6c"/>
      <use x="479.271484" xlink:href="#DejaVuSans-64"/>
      <use x="542.748047" xlink:href="#DejaVuSans-20"/>
      <use x="574.535156" xlink:href="#DejaVuSans-32"/>
      <use x="638.158203" xlink:href="#DejaVuSans-20"/>
      <use x="669.945312" xlink:href="#DejaVuSans-28"/>
      <use x="708.958984" xlink:href="#DejaVuSans-41"/>
      <use x="777.367188" xlink:href="#DejaVuSans-55"/>
      <use x="850.560547" xlink:href="#DejaVuSans-43"/>
      <use x="920.384766" xlink:href="#DejaVuSans-20"/>
      <use x="952.171875" xlink:href="#DejaVuSans-3d"/>
      <use x="1035.960938" xlink:href="#DejaVuSans-20"/>
      <use x="1067.748047" xlink:href="#DejaVuSans-30"/>
      <use x="1131.371094" xlink:href="#DejaVuSans-2e"/>
      <use x="1163.158203" xlink:href="#DejaVuSans-39"/>
      <use x="1226.78125" xlink:href="#DejaVuSans-36"/>
      <use x="1290.404297" xlink:href="#DejaVuSans-29"/>
     </g>
    </g>
    <g id="line2d_28">
     <path d="M 66.6 160.901188 
L 86.6 160.901188 
" style="fill:none;opacity:0.3;stroke:#2ca02c;stroke-linecap:square;"/>
    </g>
    <g id="line2d_29"/>
    <g id="text_18">
     <!-- Pr-Rec fold 3 (AUC = 0.98) -->
     <defs>
      <path d="M 40.578125 39.3125 
Q 47.65625 37.796875 51.625 33 
Q 55.609375 28.21875 55.609375 21.1875 
Q 55.609375 10.40625 48.1875 4.484375 
Q 40.765625 -1.421875 27.09375 -1.421875 
Q 22.515625 -1.421875 17.65625 -0.515625 
Q 12.796875 0.390625 7.625 2.203125 
L 7.625 11.71875 
Q 11.71875 9.328125 16.59375 8.109375 
Q 21.484375 6.890625 26.8125 6.890625 
Q 36.078125 6.890625 40.9375 10.546875 
Q 45.796875 14.203125 45.796875 21.1875 
Q 45.796875 27.640625 41.28125 31.265625 
Q 36.765625 34.90625 28.71875 34.90625 
L 20.21875 34.90625 
L 20.21875 43.015625 
L 29.109375 43.015625 
Q 36.375 43.015625 40.234375 45.921875 
Q 44.09375 48.828125 44.09375 54.296875 
Q 44.09375 59.90625 40.109375 62.90625 
Q 36.140625 65.921875 28.71875 65.921875 
Q 24.65625 65.921875 20.015625 65.03125 
Q 15.375 64.15625 9.8125 62.3125 
L 9.8125 71.09375 
Q 15.4375 72.65625 20.34375 73.4375 
Q 25.25 74.21875 29.59375 74.21875 
Q 40.828125 74.21875 47.359375 69.109375 
Q 53.90625 64.015625 53.90625 55.328125 
Q 53.90625 49.265625 50.4375 45.09375 
Q 46.96875 40.921875 40.578125 39.3125 
z
" id="DejaVuSans-33"/>
     </defs>
     <g transform="translate(94.6 164.401188)scale(0.1 -0.1)">
      <use xlink:href="#DejaVuSans-50"/>
      <use x="60.287109" xlink:href="#DejaVuSans-72"/>
      <use x="101.306641" xlink:href="#DejaVuSans-2d"/>
      <use x="137.390625" xlink:href="#DejaVuSans-52"/>
      <use x="206.810547" xlink:href="#DejaVuSans-65"/>
      <use x="268.333984" xlink:href="#DejaVuSans-63"/>
      <use x="323.314453" xlink:href="#DejaVuSans-20"/>
      <use x="355.101562" xlink:href="#DejaVuSans-66"/>
      <use x="390.306641" xlink:href="#DejaVuSans-6f"/>
      <use x="451.488281" xlink:href="#DejaVuSans-6c"/>
      <use x="479.271484" xlink:href="#DejaVuSans-64"/>
      <use x="542.748047" xlink:href="#DejaVuSans-20"/>
      <use x="574.535156" xlink:href="#DejaVuSans-33"/>
      <use x="638.158203" xlink:href="#DejaVuSans-20"/>
      <use x="669.945312" xlink:href="#DejaVuSans-28"/>
      <use x="708.958984" xlink:href="#DejaVuSans-41"/>
      <use x="777.367188" xlink:href="#DejaVuSans-55"/>
      <use x="850.560547" xlink:href="#DejaVuSans-43"/>
      <use x="920.384766" xlink:href="#DejaVuSans-20"/>
      <use x="952.171875" xlink:href="#DejaVuSans-3d"/>
      <use x="1035.960938" xlink:href="#DejaVuSans-20"/>
      <use x="1067.748047" xlink:href="#DejaVuSans-30"/>
      <use x="1131.371094" xlink:href="#DejaVuSans-2e"/>
      <use x="1163.158203" xlink:href="#DejaVuSans-39"/>
      <use x="1226.78125" xlink:href="#DejaVuSans-38"/>
      <use x="1290.404297" xlink:href="#DejaVuSans-29"/>
     </g>
    </g>
    <g id="line2d_30">
     <path d="M 66.6 175.579313 
L 86.6 175.579313 
" style="fill:none;opacity:0.3;stroke:#d62728;stroke-linecap:square;"/>
    </g>
    <g id="line2d_31"/>
    <g id="text_19">
     <!-- Pr-Rec fold 4 (AUC = 0.98) -->
     <g transform="translate(94.6 179.079313)scale(0.1 -0.1)">
      <use xlink:href="#DejaVuSans-50"/>
      <use x="60.287109" xlink:href="#DejaVuSans-72"/>
      <use x="101.306641" xlink:href="#DejaVuSans-2d"/>
      <use x="137.390625" xlink:href="#DejaVuSans-52"/>
      <use x="206.810547" xlink:href="#DejaVuSans-65"/>
      <use x="268.333984" xlink:href="#DejaVuSans-63"/>
      <use x="323.314453" xlink:href="#DejaVuSans-20"/>
      <use x="355.101562" xlink:href="#DejaVuSans-66"/>
      <use x="390.306641" xlink:href="#DejaVuSans-6f"/>
      <use x="451.488281" xlink:href="#DejaVuSans-6c"/>
      <use x="479.271484" xlink:href="#DejaVuSans-64"/>
      <use x="542.748047" xlink:href="#DejaVuSans-20"/>
      <use x="574.535156" xlink:href="#DejaVuSans-34"/>
      <use x="638.158203" xlink:href="#DejaVuSans-20"/>
      <use x="669.945312" xlink:href="#DejaVuSans-28"/>
      <use x="708.958984" xlink:href="#DejaVuSans-41"/>
      <use x="777.367188" xlink:href="#DejaVuSans-55"/>
      <use x="850.560547" xlink:href="#DejaVuSans-43"/>
      <use x="920.384766" xlink:href="#DejaVuSans-20"/>
      <use x="952.171875" xlink:href="#DejaVuSans-3d"/>
      <use x="1035.960938" xlink:href="#DejaVuSans-20"/>
      <use x="1067.748047" xlink:href="#DejaVuSans-30"/>
      <use x="1131.371094" xlink:href="#DejaVuSans-2e"/>
      <use x="1163.158203" xlink:href="#DejaVuSans-39"/>
      <use x="1226.78125" xlink:href="#DejaVuSans-38"/>
      <use x="1290.404297" xlink:href="#DejaVuSans-29"/>
     </g>
    </g>
    <g id="line2d_32">
     <path d="M 66.6 190.257438 
L 86.6 190.257438 
" style="fill:none;opacity:0.3;stroke:#9467bd;stroke-linecap:square;"/>
    </g>
    <g id="line2d_33"/>
    <g id="text_20">
     <!-- Pr-Rec fold 5 (AUC = 0.97) -->
     <defs>
      <path d="M 10.796875 72.90625 
L 49.515625 72.90625 
L 49.515625 64.59375 
L 19.828125 64.59375 
L 19.828125 46.734375 
Q 21.96875 47.46875 24.109375 47.828125 
Q 26.265625 48.1875 28.421875 48.1875 
Q 40.625 48.1875 47.75 41.5 
Q 54.890625 34.8125 54.890625 23.390625 
Q 54.890625 11.625 47.5625 5.09375 
Q 40.234375 -1.421875 26.90625 -1.421875 
Q 22.3125 -1.421875 17.546875 -0.640625 
Q 12.796875 0.140625 7.71875 1.703125 
L 7.71875 11.625 
Q 12.109375 9.234375 16.796875 8.0625 
Q 21.484375 6.890625 26.703125 6.890625 
Q 35.15625 6.890625 40.078125 11.328125 
Q 45.015625 15.765625 45.015625 23.390625 
Q 45.015625 31 40.078125 35.4375 
Q 35.15625 39.890625 26.703125 39.890625 
Q 22.75 39.890625 18.8125 39.015625 
Q 14.890625 38.140625 10.796875 36.28125 
z
" id="DejaVuSans-35"/>
      <path d="M 8.203125 72.90625 
L 55.078125 72.90625 
L 55.078125 68.703125 
L 28.609375 0 
L 18.3125 0 
L 43.21875 64.59375 
L 8.203125 64.59375 
z
" id="DejaVuSans-37"/>
     </defs>
     <g transform="translate(94.6 193.757438)scale(0.1 -0.1)">
      <use xlink:href="#DejaVuSans-50"/>
      <use x="60.287109" xlink:href="#DejaVuSans-72"/>
      <use x="101.306641" xlink:href="#DejaVuSans-2d"/>
      <use x="137.390625" xlink:href="#DejaVuSans-52"/>
      <use x="206.810547" xlink:href="#DejaVuSans-65"/>
      <use x="268.333984" xlink:href="#DejaVuSans-63"/>
      <use x="323.314453" xlink:href="#DejaVuSans-20"/>
      <use x="355.101562" xlink:href="#DejaVuSans-66"/>
      <use x="390.306641" xlink:href="#DejaVuSans-6f"/>
      <use x="451.488281" xlink:href="#DejaVuSans-6c"/>
      <use x="479.271484" xlink:href="#DejaVuSans-64"/>
      <use x="542.748047" xlink:href="#DejaVuSans-20"/>
      <use x="574.535156" xlink:href="#DejaVuSans-35"/>
      <use x="638.158203" xlink:href="#DejaVuSans-20"/>
      <use x="669.945312" xlink:href="#DejaVuSans-28"/>
      <use x="708.958984" xlink:href="#DejaVuSans-41"/>
      <use x="777.367188" xlink:href="#DejaVuSans-55"/>
      <use x="850.560547" xlink:href="#DejaVuSans-43"/>
      <use x="920.384766" xlink:href="#DejaVuSans-20"/>
      <use x="952.171875" xlink:href="#DejaVuSans-3d"/>
      <use x="1035.960938" xlink:href="#DejaVuSans-20"/>
      <use x="1067.748047" xlink:href="#DejaVuSans-30"/>
      <use x="1131.371094" xlink:href="#DejaVuSans-2e"/>
      <use x="1163.158203" xlink:href="#DejaVuSans-39"/>
      <use x="1226.78125" xlink:href="#DejaVuSans-37"/>
      <use x="1290.404297" xlink:href="#DejaVuSans-29"/>
     </g>
    </g>
    <g id="line2d_34">
     <path d="M 66.6 204.935563 
L 86.6 204.935563 
" style="fill:none;opacity:0.3;stroke:#8c564b;stroke-linecap:square;"/>
    </g>
    <g id="line2d_35"/>
    <g id="text_21">
     <!-- Pr-Rec fold 6 (AUC = 0.97) -->
     <g transform="translate(94.6 208.435563)scale(0.1 -0.1)">
      <use xlink:href="#DejaVuSans-50"/>
      <use x="60.287109" xlink:href="#DejaVuSans-72"/>
      <use x="101.306641" xlink:href="#DejaVuSans-2d"/>
      <use x="137.390625" xlink:href="#DejaVuSans-52"/>
      <use x="206.810547" xlink:href="#DejaVuSans-65"/>
      <use x="268.333984" xlink:href="#DejaVuSans-63"/>
      <use x="323.314453" xlink:href="#DejaVuSans-20"/>
      <use x="355.101562" xlink:href="#DejaVuSans-66"/>
      <use x="390.306641" xlink:href="#DejaVuSans-6f"/>
      <use x="451.488281" xlink:href="#DejaVuSans-6c"/>
      <use x="479.271484" xlink:href="#DejaVuSans-64"/>
      <use x="542.748047" xlink:href="#DejaVuSans-20"/>
      <use x="574.535156" xlink:href="#DejaVuSans-36"/>
      <use x="638.158203" xlink:href="#DejaVuSans-20"/>
      <use x="669.945312" xlink:href="#DejaVuSans-28"/>
      <use x="708.958984" xlink:href="#DejaVuSans-41"/>
      <use x="777.367188" xlink:href="#DejaVuSans-55"/>
      <use x="850.560547" xlink:href="#DejaVuSans-43"/>
      <use x="920.384766" xlink:href="#DejaVuSans-20"/>
      <use x="952.171875" xlink:href="#DejaVuSans-3d"/>
      <use x="1035.960938" xlink:href="#DejaVuSans-20"/>
      <use x="1067.748047" xlink:href="#DejaVuSans-30"/>
      <use x="1131.371094" xlink:href="#DejaVuSans-2e"/>
      <use x="1163.158203" xlink:href="#DejaVuSans-39"/>
      <use x="1226.78125" xlink:href="#DejaVuSans-37"/>
      <use x="1290.404297" xlink:href="#DejaVuSans-29"/>
     </g>
    </g>
    <g id="line2d_36">
     <path d="M 66.6 219.613688 
L 86.6 219.613688 
" style="fill:none;opacity:0.3;stroke:#e377c2;stroke-linecap:square;"/>
    </g>
    <g id="line2d_37"/>
    <g id="text_22">
     <!-- Pr-Rec fold 7 (AUC = 0.97) -->
     <g transform="translate(94.6 223.113688)scale(0.1 -0.1)">
      <use xlink:href="#DejaVuSans-50"/>
      <use x="60.287109" xlink:href="#DejaVuSans-72"/>
      <use x="101.306641" xlink:href="#DejaVuSans-2d"/>
      <use x="137.390625" xlink:href="#DejaVuSans-52"/>
      <use x="206.810547" xlink:href="#DejaVuSans-65"/>
      <use x="268.333984" xlink:href="#DejaVuSans-63"/>
      <use x="323.314453" xlink:href="#DejaVuSans-20"/>
      <use x="355.101562" xlink:href="#DejaVuSans-66"/>
      <use x="390.306641" xlink:href="#DejaVuSans-6f"/>
      <use x="451.488281" xlink:href="#DejaVuSans-6c"/>
      <use x="479.271484" xlink:href="#DejaVuSans-64"/>
      <use x="542.748047" xlink:href="#DejaVuSans-20"/>
      <use x="574.535156" xlink:href="#DejaVuSans-37"/>
      <use x="638.158203" xlink:href="#DejaVuSans-20"/>
      <use x="669.945312" xlink:href="#DejaVuSans-28"/>
      <use x="708.958984" xlink:href="#DejaVuSans-41"/>
      <use x="777.367188" xlink:href="#DejaVuSans-55"/>
      <use x="850.560547" xlink:href="#DejaVuSans-43"/>
      <use x="920.384766" xlink:href="#DejaVuSans-20"/>
      <use x="952.171875" xlink:href="#DejaVuSans-3d"/>
      <use x="1035.960938" xlink:href="#DejaVuSans-20"/>
      <use x="1067.748047" xlink:href="#DejaVuSans-30"/>
      <use x="1131.371094" xlink:href="#DejaVuSans-2e"/>
      <use x="1163.158203" xlink:href="#DejaVuSans-39"/>
      <use x="1226.78125" xlink:href="#DejaVuSans-37"/>
      <use x="1290.404297" xlink:href="#DejaVuSans-29"/>
     </g>
    </g>
    <g id="line2d_38">
     <path d="M 66.6 234.291812 
L 86.6 234.291812 
" style="fill:none;opacity:0.3;stroke:#7f7f7f;stroke-linecap:square;"/>
    </g>
    <g id="line2d_39"/>
    <g id="text_23">
     <!-- Pr-Rec fold 8 (AUC = 0.96) -->
     <g transform="translate(94.6 237.791812)scale(0.1 -0.1)">
      <use xlink:href="#DejaVuSans-50"/>
      <use x="60.287109" xlink:href="#DejaVuSans-72"/>
      <use x="101.306641" xlink:href="#DejaVuSans-2d"/>
      <use x="137.390625" xlink:href="#DejaVuSans-52"/>
      <use x="206.810547" xlink:href="#DejaVuSans-65"/>
      <use x="268.333984" xlink:href="#DejaVuSans-63"/>
      <use x="323.314453" xlink:href="#DejaVuSans-20"/>
      <use x="355.101562" xlink:href="#DejaVuSans-66"/>
      <use x="390.306641" xlink:href="#DejaVuSans-6f"/>
      <use x="451.488281" xlink:href="#DejaVuSans-6c"/>
      <use x="479.271484" xlink:href="#DejaVuSans-64"/>
      <use x="542.748047" xlink:href="#DejaVuSans-20"/>
      <use x="574.535156" xlink:href="#DejaVuSans-38"/>
      <use x="638.158203" xlink:href="#DejaVuSans-20"/>
      <use x="669.945312" xlink:href="#DejaVuSans-28"/>
      <use x="708.958984" xlink:href="#DejaVuSans-41"/>
      <use x="777.367188" xlink:href="#DejaVuSans-55"/>
      <use x="850.560547" xlink:href="#DejaVuSans-43"/>
      <use x="920.384766" xlink:href="#DejaVuSans-20"/>
      <use x="952.171875" xlink:href="#DejaVuSans-3d"/>
      <use x="1035.960938" xlink:href="#DejaVuSans-20"/>
      <use x="1067.748047" xlink:href="#DejaVuSans-30"/>
      <use x="1131.371094" xlink:href="#DejaVuSans-2e"/>
      <use x="1163.158203" xlink:href="#DejaVuSans-39"/>
      <use x="1226.78125" xlink:href="#DejaVuSans-36"/>
      <use x="1290.404297" xlink:href="#DejaVuSans-29"/>
     </g>
    </g>
    <g id="line2d_40">
     <path d="M 66.6 248.969938 
L 86.6 248.969938 
" style="fill:none;opacity:0.3;stroke:#bcbd22;stroke-linecap:square;"/>
    </g>
    <g id="line2d_41"/>
    <g id="text_24">
     <!-- Pr-Rec fold 9 (AUC = 0.99) -->
     <g transform="translate(94.6 252.469938)scale(0.1 -0.1)">
      <use xlink:href="#DejaVuSans-50"/>
      <use x="60.287109" xlink:href="#DejaVuSans-72"/>
      <use x="101.306641" xlink:href="#DejaVuSans-2d"/>
      <use x="137.390625" xlink:href="#DejaVuSans-52"/>
      <use x="206.810547" xlink:href="#DejaVuSans-65"/>
      <use x="268.333984" xlink:href="#DejaVuSans-63"/>
      <use x="323.314453" xlink:href="#DejaVuSans-20"/>
      <use x="355.101562" xlink:href="#DejaVuSans-66"/>
      <use x="390.306641" xlink:href="#DejaVuSans-6f"/>
      <use x="451.488281" xlink:href="#DejaVuSans-6c"/>
      <use x="479.271484" xlink:href="#DejaVuSans-64"/>
      <use x="542.748047" xlink:href="#DejaVuSans-20"/>
      <use x="574.535156" xlink:href="#DejaVuSans-39"/>
      <use x="638.158203" xlink:href="#DejaVuSans-20"/>
      <use x="669.945312" xlink:href="#DejaVuSans-28"/>
      <use x="708.958984" xlink:href="#DejaVuSans-41"/>
      <use x="777.367188" xlink:href="#DejaVuSans-55"/>
      <use x="850.560547" xlink:href="#DejaVuSans-43"/>
      <use x="920.384766" xlink:href="#DejaVuSans-20"/>
      <use x="952.171875" xlink:href="#DejaVuSans-3d"/>
      <use x="1035.960938" xlink:href="#DejaVuSans-20"/>
      <use x="1067.748047" xlink:href="#DejaVuSans-30"/>
      <use x="1131.371094" xlink:href="#DejaVuSans-2e"/>
      <use x="1163.158203" xlink:href="#DejaVuSans-39"/>
      <use x="1226.78125" xlink:href="#DejaVuSans-39"/>
      <use x="1290.404297" xlink:href="#DejaVuSans-29"/>
     </g>
    </g>
    <g id="line2d_42">
     <path d="M 66.6 263.648062 
L 86.6 263.648062 
" style="fill:none;opacity:0.3;stroke:#17becf;stroke-linecap:square;"/>
    </g>
    <g id="line2d_43"/>
    <g id="text_25">
     <!-- Pr-Rec fold 10 (AUC = 0.95) -->
     <g transform="translate(94.6 267.148062)scale(0.1 -0.1)">
      <use xlink:href="#DejaVuSans-50"/>
      <use x="60.287109" xlink:href="#DejaVuSans-72"/>
      <use x="101.306641" xlink:href="#DejaVuSans-2d"/>
      <use x="137.390625" xlink:href="#DejaVuSans-52"/>
      <use x="206.810547" xlink:href="#DejaVuSans-65"/>
      <use x="268.333984" xlink:href="#DejaVuSans-63"/>
      <use x="323.314453" xlink:href="#DejaVuSans-20"/>
      <use x="355.101562" xlink:href="#DejaVuSans-66"/>
      <use x="390.306641" xlink:href="#DejaVuSans-6f"/>
      <use x="451.488281" xlink:href="#DejaVuSans-6c"/>
      <use x="479.271484" xlink:href="#DejaVuSans-64"/>
      <use x="542.748047" xlink:href="#DejaVuSans-20"/>
      <use x="574.535156" xlink:href="#DejaVuSans-31"/>
      <use x="638.158203" xlink:href="#DejaVuSans-30"/>
      <use x="701.78125" xlink:href="#DejaVuSans-20"/>
      <use x="733.568359" xlink:href="#DejaVuSans-28"/>
      <use x="772.582031" xlink:href="#DejaVuSans-41"/>
      <use x="840.990234" xlink:href="#DejaVuSans-55"/>
      <use x="914.183594" xlink:href="#DejaVuSans-43"/>
      <use x="984.007812" xlink:href="#DejaVuSans-20"/>
      <use x="1015.794922" xlink:href="#DejaVuSans-3d"/>
      <use x="1099.583984" xlink:href="#DejaVuSans-20"/>
      <use x="1131.371094" xlink:href="#DejaVuSans-30"/>
      <use x="1194.994141" xlink:href="#DejaVuSans-2e"/>
      <use x="1226.78125" xlink:href="#DejaVuSans-39"/>
      <use x="1290.404297" xlink:href="#DejaVuSans-35"/>
      <use x="1354.027344" xlink:href="#DejaVuSans-29"/>
     </g>
    </g>
    <g id="line2d_44">
     <path d="M 66.6 278.326187 
L 86.6 278.326187 
" style="fill:none;opacity:0.8;stroke:#0000ff;stroke-linecap:square;stroke-width:2;"/>
    </g>
    <g id="line2d_45"/>
    <g id="text_26">
     <!-- Mean Pr-Rec (AUC = 0.97 $\pm$ 0.01) -->
     <defs>
      <path d="M 9.8125 72.90625 
L 24.515625 72.90625 
L 43.109375 23.296875 
L 61.8125 72.90625 
L 76.515625 72.90625 
L 76.515625 0 
L 66.890625 0 
L 66.890625 64.015625 
L 48.09375 14.015625 
L 38.1875 14.015625 
L 19.390625 64.015625 
L 19.390625 0 
L 9.8125 0 
z
" id="DejaVuSans-4d"/>
      <path d="M 46 62.703125 
L 46 43.796875 
L 73.1875 43.796875 
L 73.1875 35.5 
L 46 35.5 
L 46 16.609375 
L 37.796875 16.609375 
L 37.796875 35.5 
L 10.59375 35.5 
L 10.59375 43.796875 
L 37.796875 43.796875 
L 37.796875 62.703125 
z
M 10.59375 8.296875 
L 73.1875 8.296875 
L 73.1875 0 
L 10.59375 0 
z
" id="DejaVuSans-b1"/>
     </defs>
     <g transform="translate(94.6 281.826187)scale(0.1 -0.1)">
      <use transform="translate(0 0.125)" xlink:href="#DejaVuSans-4d"/>
      <use transform="translate(86.279297 0.125)" xlink:href="#DejaVuSans-65"/>
      <use transform="translate(147.802734 0.125)" xlink:href="#DejaVuSans-61"/>
      <use transform="translate(209.082031 0.125)" xlink:href="#DejaVuSans-6e"/>
      <use transform="translate(272.460938 0.125)" xlink:href="#DejaVuSans-20"/>
      <use transform="translate(304.248047 0.125)" xlink:href="#DejaVuSans-50"/>
      <use transform="translate(364.550781 0.125)" xlink:href="#DejaVuSans-72"/>
      <use transform="translate(405.664062 0.125)" xlink:href="#DejaVuSans-2d"/>
      <use transform="translate(441.748047 0.125)" xlink:href="#DejaVuSans-52"/>
      <use transform="translate(511.230469 0.125)" xlink:href="#DejaVuSans-65"/>
      <use transform="translate(572.753906 0.125)" xlink:href="#DejaVuSans-63"/>
      <use transform="translate(627.734375 0.125)" xlink:href="#DejaVuSans-20"/>
      <use transform="translate(659.521484 0.125)" xlink:href="#DejaVuSans-28"/>
      <use transform="translate(698.535156 0.125)" xlink:href="#DejaVuSans-41"/>
      <use transform="translate(766.943359 0.125)" xlink:href="#DejaVuSans-55"/>
      <use transform="translate(840.136719 0.125)" xlink:href="#DejaVuSans-43"/>
      <use transform="translate(909.960938 0.125)" xlink:href="#DejaVuSans-20"/>
      <use transform="translate(941.748047 0.125)" xlink:href="#DejaVuSans-3d"/>
      <use transform="translate(1025.537109 0.125)" xlink:href="#DejaVuSans-20"/>
      <use transform="translate(1057.324219 0.125)" xlink:href="#DejaVuSans-30"/>
      <use transform="translate(1120.947266 0.125)" xlink:href="#DejaVuSans-2e"/>
      <use transform="translate(1152.734375 0.125)" xlink:href="#DejaVuSans-39"/>
      <use transform="translate(1216.357422 0.125)" xlink:href="#DejaVuSans-37"/>
      <use transform="translate(1279.980469 0.125)" xlink:href="#DejaVuSans-20"/>
      <use transform="translate(1311.767578 0.125)" xlink:href="#DejaVuSans-b1"/>
      <use transform="translate(1395.556641 0.125)" xlink:href="#DejaVuSans-20"/>
      <use transform="translate(1427.34375 0.125)" xlink:href="#DejaVuSans-30"/>
      <use transform="translate(1490.966797 0.125)" xlink:href="#DejaVuSans-2e"/>
      <use transform="translate(1522.753906 0.125)" xlink:href="#DejaVuSans-30"/>
      <use transform="translate(1586.376953 0.125)" xlink:href="#DejaVuSans-31"/>
      <use transform="translate(1650 0.125)" xlink:href="#DejaVuSans-29"/>
     </g>
    </g>
    <g id="patch_8">
     <path d="M 66.6 296.504312 
L 86.6 296.504312 
L 86.6 289.504312 
L 66.6 289.504312 
z
" style="fill:#808080;opacity:0.2;stroke:#808080;stroke-linejoin:miter;"/>
    </g>
    <g id="text_27">
     <!-- $\pm$ 1 std. dev. -->
     <g transform="translate(94.6 296.504312)scale(0.1 -0.1)">
      <use transform="translate(0 0.015625)" xlink:href="#DejaVuSans-b1"/>
      <use transform="translate(83.789062 0.015625)" xlink:href="#DejaVuSans-20"/>
      <use transform="translate(115.576172 0.015625)" xlink:href="#DejaVuSans-31"/>
      <use transform="translate(179.199219 0.015625)" xlink:href="#DejaVuSans-20"/>
      <use transform="translate(210.986328 0.015625)" xlink:href="#DejaVuSans-73"/>
      <use transform="translate(263.085938 0.015625)" xlink:href="#DejaVuSans-74"/>
      <use transform="translate(302.294922 0.015625)" xlink:href="#DejaVuSans-64"/>
      <use transform="translate(365.771484 0.015625)" xlink:href="#DejaVuSans-2e"/>
      <use transform="translate(397.558594 0.015625)" xlink:href="#DejaVuSans-20"/>
      <use transform="translate(429.345703 0.015625)" xlink:href="#DejaVuSans-64"/>
      <use transform="translate(492.822266 0.015625)" xlink:href="#DejaVuSans-65"/>
      <use transform="translate(554.345703 0.015625)" xlink:href="#DejaVuSans-76"/>
      <use transform="translate(613.525391 0.015625)" xlink:href="#DejaVuSans-2e"/>
     </g>
    </g>
   </g>
  </g>
 </g>
 <defs>
  <clipPath id="p37396b3e47">
   <rect height="266.112" width="357.12" x="57.6" y="41.472"/>
  </clipPath>
 </defs>
</svg>
