<?xml version="1.0" encoding="utf-8" standalone="no"?>
<!DOCTYPE svg PUBLIC "-//W3C//DTD SVG 1.1//EN"
  "http://www.w3.org/Graphics/SVG/1.1/DTD/svg11.dtd">
<!-- Created with matplotlib (http://matplotlib.org/) -->
<svg height="345pt" version="1.1" viewBox="0 0 460 345" width="460pt" xmlns="http://www.w3.org/2000/svg" xmlns:xlink="http://www.w3.org/1999/xlink">
 <defs>
  <style type="text/css">
*{stroke-linecap:butt;stroke-linejoin:round;}
  </style>
 </defs>
 <g id="figure_1">
  <g id="patch_1">
   <path d="M 0 345.6 
L 460.8 345.6 
L 460.8 0 
L 0 0 
z
" style="fill:#ffffff;"/>
  </g>
  <g id="axes_1">
   <g id="patch_2">
    <path d="M 57.6 307.584 
L 414.72 307.584 
L 414.72 41.472 
L 57.6 41.472 
z
" style="fill:#ffffff;"/>
   </g>
   <g id="PolyCollection_1">
    <defs>
     <path d="M 73.832727 -50.112 
L 73.832727 -50.112 
L 77.112066 -199.760548 
L 80.391405 -228.809214 
L 83.670744 -245.124261 
L 86.950083 -252.34372 
L 90.229421 -255.243201 
L 93.50876 -258.758333 
L 96.788099 -261.486098 
L 100.067438 -262.891769 
L 103.346777 -266.152332 
L 106.626116 -268.612356 
L 109.905455 -269.973938 
L 113.184793 -271.044055 
L 116.464132 -273.268744 
L 119.743471 -274.3412 
L 123.02281 -274.801171 
L 126.302149 -275.23355 
L 129.581488 -276.941643 
L 132.860826 -277.713467 
L 136.140165 -278.623589 
L 139.419504 -279.668669 
L 142.698843 -280.021 
L 145.978182 -280.988528 
L 149.257521 -281.680879 
L 152.53686 -281.695696 
L 155.816198 -281.695696 
L 159.095537 -282.36414 
L 162.374876 -283.075656 
L 165.654215 -283.327876 
L 168.933554 -283.578666 
L 172.212893 -283.630704 
L 175.492231 -284.580347 
L 178.77157 -284.651565 
L 182.050909 -284.726632 
L 185.330248 -284.726632 
L 188.609587 -284.762282 
L 191.888926 -284.804163 
L 195.168264 -284.804163 
L 198.447603 -285.687836 
L 201.726942 -285.687836 
L 205.006281 -285.977203 
L 208.28562 -285.977203 
L 211.564959 -285.977203 
L 214.844298 -285.961989 
L 218.123636 -285.971899 
L 221.402975 -286.231041 
L 224.682314 -286.231041 
L 227.961653 -286.231041 
L 231.240992 -286.454637 
L 234.520331 -286.454637 
L 237.799669 -286.454637 
L 241.079008 -286.664736 
L 244.358347 -286.664736 
L 247.637686 -286.664736 
L 250.917025 -287.129922 
L 254.196364 -287.417155 
L 257.475702 -287.417155 
L 260.755041 -287.549498 
L 264.03438 -287.691531 
L 267.313719 -287.921418 
L 270.593058 -288.175041 
L 273.872397 -288.175041 
L 277.151736 -288.175041 
L 280.431074 -288.175041 
L 283.710413 -288.175041 
L 286.989752 -288.175041 
L 290.269091 -288.175041 
L 293.54843 -288.175041 
L 296.827769 -288.45201 
L 300.107107 -288.663918 
L 303.386446 -288.663918 
L 306.665785 -288.911584 
L 309.945124 -288.911584 
L 313.224463 -288.911584 
L 316.503802 -288.887304 
L 319.78314 -288.887304 
L 323.062479 -288.947316 
L 326.341818 -288.947316 
L 329.621157 -288.947316 
L 332.900496 -288.947316 
L 336.179835 -288.947316 
L 339.459174 -288.947316 
L 342.738512 -288.947316 
L 346.017851 -288.934071 
L 349.29719 -288.934071 
L 352.576529 -289.187439 
L 355.855868 -289.187439 
L 359.135207 -289.372543 
L 362.414545 -289.372543 
L 365.693884 -289.79784 
L 368.973223 -290.053957 
L 372.252562 -290.053957 
L 375.531901 -290.053957 
L 378.81124 -290.5713 
L 382.090579 -290.85607 
L 385.369917 -290.85607 
L 388.649256 -290.85607 
L 391.928595 -290.925693 
L 395.207934 -291.016379 
L 398.487273 -292.032 
L 398.487273 -292.032 
L 398.487273 -292.032 
L 395.207934 -292.032 
L 391.928595 -291.920243 
L 388.649256 -291.786572 
L 385.369917 -291.786572 
L 382.090579 -291.786572 
L 378.81124 -291.665605 
L 375.531901 -291.573916 
L 372.252562 -291.573916 
L 368.973223 -291.573916 
L 365.693884 -291.626739 
L 362.414545 -291.645447 
L 359.135207 -291.645447 
L 355.855868 -291.627258 
L 352.576529 -291.627258 
L 349.29719 -291.474037 
L 346.017851 -291.474037 
L 342.738512 -291.257498 
L 339.459174 -291.257498 
L 336.179835 -291.257498 
L 332.900496 -291.257498 
L 329.621157 -291.257498 
L 326.341818 -291.257498 
L 323.062479 -291.257498 
L 319.78314 -291.115067 
L 316.503802 -291.115067 
L 313.224463 -290.685049 
L 309.945124 -290.685049 
L 306.665785 -290.685049 
L 303.386446 -290.526977 
L 300.107107 -290.526977 
L 296.827769 -290.535591 
L 293.54843 -290.407673 
L 290.269091 -290.407673 
L 286.989752 -290.407673 
L 283.710413 -290.407673 
L 280.431074 -290.407673 
L 277.151736 -290.407673 
L 273.872397 -290.407673 
L 270.593058 -290.407673 
L 267.313719 -290.458002 
L 264.03438 -290.484595 
L 260.755041 -290.423334 
L 257.475702 -290.353233 
L 254.196364 -290.353233 
L 250.917025 -290.031434 
L 247.637686 -290.090033 
L 244.358347 -290.090033 
L 241.079008 -290.090033 
L 237.799669 -290.096837 
L 234.520331 -290.096837 
L 231.240992 -290.096837 
L 227.961653 -289.915546 
L 224.682314 -289.915546 
L 221.402975 -289.915546 
L 218.123636 -289.7681 
L 214.844298 -289.574716 
L 211.564959 -289.152913 
L 208.28562 -289.152913 
L 205.006281 -289.152913 
L 201.726942 -289.238987 
L 198.447603 -289.238987 
L 195.168264 -289.512777 
L 191.888926 -289.512777 
L 188.609587 -289.351364 
L 185.330248 -289.18372 
L 182.050909 -289.18372 
L 178.77157 -289.056344 
L 175.492231 -288.924268 
L 172.212893 -288.859141 
L 168.933554 -288.707885 
L 165.654215 -288.348793 
L 162.374876 -287.99198 
L 159.095537 -287.077994 
L 155.816198 -286.935814 
L 152.53686 -286.935814 
L 149.257521 -286.748187 
L 145.978182 -286.220774 
L 142.698843 -286.618462 
L 139.419504 -286.321718 
L 136.140165 -285.959815 
L 132.860826 -285.23006 
L 129.581488 -284.378934 
L 126.302149 -284.259932 
L 123.02281 -283.066808 
L 119.743471 -282.917748 
L 116.464132 -282.162257 
L 113.184793 -281.545082 
L 109.905455 -280.786403 
L 106.626116 -279.914301 
L 103.346777 -278.310994 
L 100.067438 -276.901747 
L 96.788099 -275.666296 
L 93.50876 -272.913626 
L 90.229421 -270.344395 
L 86.950083 -267.765142 
L 83.670744 -263.003857 
L 80.391405 -255.539447 
L 77.112066 -246.194445 
L 73.832727 -50.112 
z
" id="m5626dc6d1e" style="stroke:#808080;stroke-opacity:0.2;"/>
    </defs>
    <g clip-path="url(#p5f62f92d9a)">
     <use style="fill:#808080;fill-opacity:0.2;stroke:#808080;stroke-opacity:0.2;" x="0" xlink:href="#m5626dc6d1e" y="345.6"/>
    </g>
   </g>
   <g id="matplotlib.axis_1">
    <g id="xtick_1">
     <g id="line2d_1">
      <defs>
       <path d="M 0 0 
L 0 3.5 
" id="m061f422744" style="stroke:#000000;stroke-width:0.8;"/>
      </defs>
      <g>
       <use style="stroke:#000000;stroke-width:0.8;" x="73.832727" xlink:href="#m061f422744" y="307.584"/>
      </g>
     </g>
     <g id="text_1">
      <!-- 0.0 -->
      <defs>
       <path d="M 31.78125 66.40625 
Q 24.171875 66.40625 20.328125 58.90625 
Q 16.5 51.421875 16.5 36.375 
Q 16.5 21.390625 20.328125 13.890625 
Q 24.171875 6.390625 31.78125 6.390625 
Q 39.453125 6.390625 43.28125 13.890625 
Q 47.125 21.390625 47.125 36.375 
Q 47.125 51.421875 43.28125 58.90625 
Q 39.453125 66.40625 31.78125 66.40625 
z
M 31.78125 74.21875 
Q 44.046875 74.21875 50.515625 64.515625 
Q 56.984375 54.828125 56.984375 36.375 
Q 56.984375 17.96875 50.515625 8.265625 
Q 44.046875 -1.421875 31.78125 -1.421875 
Q 19.53125 -1.421875 13.0625 8.265625 
Q 6.59375 17.96875 6.59375 36.375 
Q 6.59375 54.828125 13.0625 64.515625 
Q 19.53125 74.21875 31.78125 74.21875 
z
" id="DejaVuSans-30"/>
       <path d="M 10.6875 12.40625 
L 21 12.40625 
L 21 0 
L 10.6875 0 
z
" id="DejaVuSans-2e"/>
      </defs>
      <g transform="translate(65.881165 322.182437)scale(0.1 -0.1)">
       <use xlink:href="#DejaVuSans-30"/>
       <use x="63.623047" xlink:href="#DejaVuSans-2e"/>
       <use x="95.410156" xlink:href="#DejaVuSans-30"/>
      </g>
     </g>
    </g>
    <g id="xtick_2">
     <g id="line2d_2">
      <g>
       <use style="stroke:#000000;stroke-width:0.8;" x="138.763636" xlink:href="#m061f422744" y="307.584"/>
      </g>
     </g>
     <g id="text_2">
      <!-- 0.2 -->
      <defs>
       <path d="M 19.1875 8.296875 
L 53.609375 8.296875 
L 53.609375 0 
L 7.328125 0 
L 7.328125 8.296875 
Q 12.9375 14.109375 22.625 23.890625 
Q 32.328125 33.6875 34.8125 36.53125 
Q 39.546875 41.84375 41.421875 45.53125 
Q 43.3125 49.21875 43.3125 52.78125 
Q 43.3125 58.59375 39.234375 62.25 
Q 35.15625 65.921875 28.609375 65.921875 
Q 23.96875 65.921875 18.8125 64.3125 
Q 13.671875 62.703125 7.8125 59.421875 
L 7.8125 69.390625 
Q 13.765625 71.78125 18.9375 73 
Q 24.125 74.21875 28.421875 74.21875 
Q 39.75 74.21875 46.484375 68.546875 
Q 53.21875 62.890625 53.21875 53.421875 
Q 53.21875 48.921875 51.53125 44.890625 
Q 49.859375 40.875 45.40625 35.40625 
Q 44.1875 33.984375 37.640625 27.21875 
Q 31.109375 20.453125 19.1875 8.296875 
z
" id="DejaVuSans-32"/>
      </defs>
      <g transform="translate(130.812074 322.182437)scale(0.1 -0.1)">
       <use xlink:href="#DejaVuSans-30"/>
       <use x="63.623047" xlink:href="#DejaVuSans-2e"/>
       <use x="95.410156" xlink:href="#DejaVuSans-32"/>
      </g>
     </g>
    </g>
    <g id="xtick_3">
     <g id="line2d_3">
      <g>
       <use style="stroke:#000000;stroke-width:0.8;" x="203.694545" xlink:href="#m061f422744" y="307.584"/>
      </g>
     </g>
     <g id="text_3">
      <!-- 0.4 -->
      <defs>
       <path d="M 37.796875 64.3125 
L 12.890625 25.390625 
L 37.796875 25.390625 
z
M 35.203125 72.90625 
L 47.609375 72.90625 
L 47.609375 25.390625 
L 58.015625 25.390625 
L 58.015625 17.1875 
L 47.609375 17.1875 
L 47.609375 0 
L 37.796875 0 
L 37.796875 17.1875 
L 4.890625 17.1875 
L 4.890625 26.703125 
z
" id="DejaVuSans-34"/>
      </defs>
      <g transform="translate(195.742983 322.182437)scale(0.1 -0.1)">
       <use xlink:href="#DejaVuSans-30"/>
       <use x="63.623047" xlink:href="#DejaVuSans-2e"/>
       <use x="95.410156" xlink:href="#DejaVuSans-34"/>
      </g>
     </g>
    </g>
    <g id="xtick_4">
     <g id="line2d_4">
      <g>
       <use style="stroke:#000000;stroke-width:0.8;" x="268.625455" xlink:href="#m061f422744" y="307.584"/>
      </g>
     </g>
     <g id="text_4">
      <!-- 0.6 -->
      <defs>
       <path d="M 33.015625 40.375 
Q 26.375 40.375 22.484375 35.828125 
Q 18.609375 31.296875 18.609375 23.390625 
Q 18.609375 15.53125 22.484375 10.953125 
Q 26.375 6.390625 33.015625 6.390625 
Q 39.65625 6.390625 43.53125 10.953125 
Q 47.40625 15.53125 47.40625 23.390625 
Q 47.40625 31.296875 43.53125 35.828125 
Q 39.65625 40.375 33.015625 40.375 
z
M 52.59375 71.296875 
L 52.59375 62.3125 
Q 48.875 64.0625 45.09375 64.984375 
Q 41.3125 65.921875 37.59375 65.921875 
Q 27.828125 65.921875 22.671875 59.328125 
Q 17.53125 52.734375 16.796875 39.40625 
Q 19.671875 43.65625 24.015625 45.921875 
Q 28.375 48.1875 33.59375 48.1875 
Q 44.578125 48.1875 50.953125 41.515625 
Q 57.328125 34.859375 57.328125 23.390625 
Q 57.328125 12.15625 50.6875 5.359375 
Q 44.046875 -1.421875 33.015625 -1.421875 
Q 20.359375 -1.421875 13.671875 8.265625 
Q 6.984375 17.96875 6.984375 36.375 
Q 6.984375 53.65625 15.1875 63.9375 
Q 23.390625 74.21875 37.203125 74.21875 
Q 40.921875 74.21875 44.703125 73.484375 
Q 48.484375 72.75 52.59375 71.296875 
z
" id="DejaVuSans-36"/>
      </defs>
      <g transform="translate(260.673892 322.182437)scale(0.1 -0.1)">
       <use xlink:href="#DejaVuSans-30"/>
       <use x="63.623047" xlink:href="#DejaVuSans-2e"/>
       <use x="95.410156" xlink:href="#DejaVuSans-36"/>
      </g>
     </g>
    </g>
    <g id="xtick_5">
     <g id="line2d_5">
      <g>
       <use style="stroke:#000000;stroke-width:0.8;" x="333.556364" xlink:href="#m061f422744" y="307.584"/>
      </g>
     </g>
     <g id="text_5">
      <!-- 0.8 -->
      <defs>
       <path d="M 31.78125 34.625 
Q 24.75 34.625 20.71875 30.859375 
Q 16.703125 27.09375 16.703125 20.515625 
Q 16.703125 13.921875 20.71875 10.15625 
Q 24.75 6.390625 31.78125 6.390625 
Q 38.8125 6.390625 42.859375 10.171875 
Q 46.921875 13.96875 46.921875 20.515625 
Q 46.921875 27.09375 42.890625 30.859375 
Q 38.875 34.625 31.78125 34.625 
z
M 21.921875 38.8125 
Q 15.578125 40.375 12.03125 44.71875 
Q 8.5 49.078125 8.5 55.328125 
Q 8.5 64.0625 14.71875 69.140625 
Q 20.953125 74.21875 31.78125 74.21875 
Q 42.671875 74.21875 48.875 69.140625 
Q 55.078125 64.0625 55.078125 55.328125 
Q 55.078125 49.078125 51.53125 44.71875 
Q 48 40.375 41.703125 38.8125 
Q 48.828125 37.15625 52.796875 32.3125 
Q 56.78125 27.484375 56.78125 20.515625 
Q 56.78125 9.90625 50.3125 4.234375 
Q 43.84375 -1.421875 31.78125 -1.421875 
Q 19.734375 -1.421875 13.25 4.234375 
Q 6.78125 9.90625 6.78125 20.515625 
Q 6.78125 27.484375 10.78125 32.3125 
Q 14.796875 37.15625 21.921875 38.8125 
z
M 18.3125 54.390625 
Q 18.3125 48.734375 21.84375 45.5625 
Q 25.390625 42.390625 31.78125 42.390625 
Q 38.140625 42.390625 41.71875 45.5625 
Q 45.3125 48.734375 45.3125 54.390625 
Q 45.3125 60.0625 41.71875 63.234375 
Q 38.140625 66.40625 31.78125 66.40625 
Q 25.390625 66.40625 21.84375 63.234375 
Q 18.3125 60.0625 18.3125 54.390625 
z
" id="DejaVuSans-38"/>
      </defs>
      <g transform="translate(325.604801 322.182437)scale(0.1 -0.1)">
       <use xlink:href="#DejaVuSans-30"/>
       <use x="63.623047" xlink:href="#DejaVuSans-2e"/>
       <use x="95.410156" xlink:href="#DejaVuSans-38"/>
      </g>
     </g>
    </g>
    <g id="xtick_6">
     <g id="line2d_6">
      <g>
       <use style="stroke:#000000;stroke-width:0.8;" x="398.487273" xlink:href="#m061f422744" y="307.584"/>
      </g>
     </g>
     <g id="text_6">
      <!-- 1.0 -->
      <defs>
       <path d="M 12.40625 8.296875 
L 28.515625 8.296875 
L 28.515625 63.921875 
L 10.984375 60.40625 
L 10.984375 69.390625 
L 28.421875 72.90625 
L 38.28125 72.90625 
L 38.28125 8.296875 
L 54.390625 8.296875 
L 54.390625 0 
L 12.40625 0 
z
" id="DejaVuSans-31"/>
      </defs>
      <g transform="translate(390.53571 322.182437)scale(0.1 -0.1)">
       <use xlink:href="#DejaVuSans-31"/>
       <use x="63.623047" xlink:href="#DejaVuSans-2e"/>
       <use x="95.410156" xlink:href="#DejaVuSans-30"/>
      </g>
     </g>
    </g>
    <g id="text_7">
     <!-- False Positive Rate -->
     <defs>
      <path d="M 9.8125 72.90625 
L 51.703125 72.90625 
L 51.703125 64.59375 
L 19.671875 64.59375 
L 19.671875 43.109375 
L 48.578125 43.109375 
L 48.578125 34.8125 
L 19.671875 34.8125 
L 19.671875 0 
L 9.8125 0 
z
" id="DejaVuSans-46"/>
      <path d="M 34.28125 27.484375 
Q 23.390625 27.484375 19.1875 25 
Q 14.984375 22.515625 14.984375 16.5 
Q 14.984375 11.71875 18.140625 8.90625 
Q 21.296875 6.109375 26.703125 6.109375 
Q 34.1875 6.109375 38.703125 11.40625 
Q 43.21875 16.703125 43.21875 25.484375 
L 43.21875 27.484375 
z
M 52.203125 31.203125 
L 52.203125 0 
L 43.21875 0 
L 43.21875 8.296875 
Q 40.140625 3.328125 35.546875 0.953125 
Q 30.953125 -1.421875 24.3125 -1.421875 
Q 15.921875 -1.421875 10.953125 3.296875 
Q 6 8.015625 6 15.921875 
Q 6 25.140625 12.171875 29.828125 
Q 18.359375 34.515625 30.609375 34.515625 
L 43.21875 34.515625 
L 43.21875 35.40625 
Q 43.21875 41.609375 39.140625 45 
Q 35.0625 48.390625 27.6875 48.390625 
Q 23 48.390625 18.546875 47.265625 
Q 14.109375 46.140625 10.015625 43.890625 
L 10.015625 52.203125 
Q 14.9375 54.109375 19.578125 55.046875 
Q 24.21875 56 28.609375 56 
Q 40.484375 56 46.34375 49.84375 
Q 52.203125 43.703125 52.203125 31.203125 
z
" id="DejaVuSans-61"/>
      <path d="M 9.421875 75.984375 
L 18.40625 75.984375 
L 18.40625 0 
L 9.421875 0 
z
" id="DejaVuSans-6c"/>
      <path d="M 44.28125 53.078125 
L 44.28125 44.578125 
Q 40.484375 46.53125 36.375 47.5 
Q 32.28125 48.484375 27.875 48.484375 
Q 21.1875 48.484375 17.84375 46.4375 
Q 14.5 44.390625 14.5 40.28125 
Q 14.5 37.15625 16.890625 35.375 
Q 19.28125 33.59375 26.515625 31.984375 
L 29.59375 31.296875 
Q 39.15625 29.25 43.1875 25.515625 
Q 47.21875 21.78125 47.21875 15.09375 
Q 47.21875 7.46875 41.1875 3.015625 
Q 35.15625 -1.421875 24.609375 -1.421875 
Q 20.21875 -1.421875 15.453125 -0.5625 
Q 10.6875 0.296875 5.421875 2 
L 5.421875 11.28125 
Q 10.40625 8.6875 15.234375 7.390625 
Q 20.0625 6.109375 24.8125 6.109375 
Q 31.15625 6.109375 34.5625 8.28125 
Q 37.984375 10.453125 37.984375 14.40625 
Q 37.984375 18.0625 35.515625 20.015625 
Q 33.0625 21.96875 24.703125 23.78125 
L 21.578125 24.515625 
Q 13.234375 26.265625 9.515625 29.90625 
Q 5.8125 33.546875 5.8125 39.890625 
Q 5.8125 47.609375 11.28125 51.796875 
Q 16.75 56 26.8125 56 
Q 31.78125 56 36.171875 55.265625 
Q 40.578125 54.546875 44.28125 53.078125 
z
" id="DejaVuSans-73"/>
      <path d="M 56.203125 29.59375 
L 56.203125 25.203125 
L 14.890625 25.203125 
Q 15.484375 15.921875 20.484375 11.0625 
Q 25.484375 6.203125 34.421875 6.203125 
Q 39.59375 6.203125 44.453125 7.46875 
Q 49.3125 8.734375 54.109375 11.28125 
L 54.109375 2.78125 
Q 49.265625 0.734375 44.1875 -0.34375 
Q 39.109375 -1.421875 33.890625 -1.421875 
Q 20.796875 -1.421875 13.15625 6.1875 
Q 5.515625 13.8125 5.515625 26.8125 
Q 5.515625 40.234375 12.765625 48.109375 
Q 20.015625 56 32.328125 56 
Q 43.359375 56 49.78125 48.890625 
Q 56.203125 41.796875 56.203125 29.59375 
z
M 47.21875 32.234375 
Q 47.125 39.59375 43.09375 43.984375 
Q 39.0625 48.390625 32.421875 48.390625 
Q 24.90625 48.390625 20.390625 44.140625 
Q 15.875 39.890625 15.1875 32.171875 
z
" id="DejaVuSans-65"/>
      <path id="DejaVuSans-20"/>
      <path d="M 19.671875 64.796875 
L 19.671875 37.40625 
L 32.078125 37.40625 
Q 38.96875 37.40625 42.71875 40.96875 
Q 46.484375 44.53125 46.484375 51.125 
Q 46.484375 57.671875 42.71875 61.234375 
Q 38.96875 64.796875 32.078125 64.796875 
z
M 9.8125 72.90625 
L 32.078125 72.90625 
Q 44.34375 72.90625 50.609375 67.359375 
Q 56.890625 61.8125 56.890625 51.125 
Q 56.890625 40.328125 50.609375 34.8125 
Q 44.34375 29.296875 32.078125 29.296875 
L 19.671875 29.296875 
L 19.671875 0 
L 9.8125 0 
z
" id="DejaVuSans-50"/>
      <path d="M 30.609375 48.390625 
Q 23.390625 48.390625 19.1875 42.75 
Q 14.984375 37.109375 14.984375 27.296875 
Q 14.984375 17.484375 19.15625 11.84375 
Q 23.34375 6.203125 30.609375 6.203125 
Q 37.796875 6.203125 41.984375 11.859375 
Q 46.1875 17.53125 46.1875 27.296875 
Q 46.1875 37.015625 41.984375 42.703125 
Q 37.796875 48.390625 30.609375 48.390625 
z
M 30.609375 56 
Q 42.328125 56 49.015625 48.375 
Q 55.71875 40.765625 55.71875 27.296875 
Q 55.71875 13.875 49.015625 6.21875 
Q 42.328125 -1.421875 30.609375 -1.421875 
Q 18.84375 -1.421875 12.171875 6.21875 
Q 5.515625 13.875 5.515625 27.296875 
Q 5.515625 40.765625 12.171875 48.375 
Q 18.84375 56 30.609375 56 
z
" id="DejaVuSans-6f"/>
      <path d="M 9.421875 54.6875 
L 18.40625 54.6875 
L 18.40625 0 
L 9.421875 0 
z
M 9.421875 75.984375 
L 18.40625 75.984375 
L 18.40625 64.59375 
L 9.421875 64.59375 
z
" id="DejaVuSans-69"/>
      <path d="M 18.3125 70.21875 
L 18.3125 54.6875 
L 36.8125 54.6875 
L 36.8125 47.703125 
L 18.3125 47.703125 
L 18.3125 18.015625 
Q 18.3125 11.328125 20.140625 9.421875 
Q 21.96875 7.515625 27.59375 7.515625 
L 36.8125 7.515625 
L 36.8125 0 
L 27.59375 0 
Q 17.1875 0 13.234375 3.875 
Q 9.28125 7.765625 9.28125 18.015625 
L 9.28125 47.703125 
L 2.6875 47.703125 
L 2.6875 54.6875 
L 9.28125 54.6875 
L 9.28125 70.21875 
z
" id="DejaVuSans-74"/>
      <path d="M 2.984375 54.6875 
L 12.5 54.6875 
L 29.59375 8.796875 
L 46.6875 54.6875 
L 56.203125 54.6875 
L 35.6875 0 
L 23.484375 0 
z
" id="DejaVuSans-76"/>
      <path d="M 44.390625 34.1875 
Q 47.5625 33.109375 50.5625 29.59375 
Q 53.5625 26.078125 56.59375 19.921875 
L 66.609375 0 
L 56 0 
L 46.6875 18.703125 
Q 43.0625 26.03125 39.671875 28.421875 
Q 36.28125 30.8125 30.421875 30.8125 
L 19.671875 30.8125 
L 19.671875 0 
L 9.8125 0 
L 9.8125 72.90625 
L 32.078125 72.90625 
Q 44.578125 72.90625 50.734375 67.671875 
Q 56.890625 62.453125 56.890625 51.90625 
Q 56.890625 45.015625 53.6875 40.46875 
Q 50.484375 35.9375 44.390625 34.1875 
z
M 19.671875 64.796875 
L 19.671875 38.921875 
L 32.078125 38.921875 
Q 39.203125 38.921875 42.84375 42.21875 
Q 46.484375 45.515625 46.484375 51.90625 
Q 46.484375 58.296875 42.84375 61.546875 
Q 39.203125 64.796875 32.078125 64.796875 
z
" id="DejaVuSans-52"/>
     </defs>
     <g transform="translate(188.954531 335.860562)scale(0.1 -0.1)">
      <use xlink:href="#DejaVuSans-46"/>
      <use x="57.378906" xlink:href="#DejaVuSans-61"/>
      <use x="118.658203" xlink:href="#DejaVuSans-6c"/>
      <use x="146.441406" xlink:href="#DejaVuSans-73"/>
      <use x="198.541016" xlink:href="#DejaVuSans-65"/>
      <use x="260.064453" xlink:href="#DejaVuSans-20"/>
      <use x="291.851562" xlink:href="#DejaVuSans-50"/>
      <use x="352.107422" xlink:href="#DejaVuSans-6f"/>
      <use x="413.289062" xlink:href="#DejaVuSans-73"/>
      <use x="465.388672" xlink:href="#DejaVuSans-69"/>
      <use x="493.171875" xlink:href="#DejaVuSans-74"/>
      <use x="532.380859" xlink:href="#DejaVuSans-69"/>
      <use x="560.164062" xlink:href="#DejaVuSans-76"/>
      <use x="619.34375" xlink:href="#DejaVuSans-65"/>
      <use x="680.867188" xlink:href="#DejaVuSans-20"/>
      <use x="712.654297" xlink:href="#DejaVuSans-52"/>
      <use x="782.105469" xlink:href="#DejaVuSans-61"/>
      <use x="843.384766" xlink:href="#DejaVuSans-74"/>
      <use x="882.59375" xlink:href="#DejaVuSans-65"/>
     </g>
    </g>
   </g>
   <g id="matplotlib.axis_2">
    <g id="ytick_1">
     <g id="line2d_7">
      <defs>
       <path d="M 0 0 
L -3.5 0 
" id="mea355c2e06" style="stroke:#000000;stroke-width:0.8;"/>
      </defs>
      <g>
       <use style="stroke:#000000;stroke-width:0.8;" x="57.6" xlink:href="#mea355c2e06" y="295.488"/>
      </g>
     </g>
     <g id="text_8">
      <!-- 0.0 -->
      <g transform="translate(34.696875 299.287219)scale(0.1 -0.1)">
       <use xlink:href="#DejaVuSans-30"/>
       <use x="63.623047" xlink:href="#DejaVuSans-2e"/>
       <use x="95.410156" xlink:href="#DejaVuSans-30"/>
      </g>
     </g>
    </g>
    <g id="ytick_2">
     <g id="line2d_8">
      <g>
       <use style="stroke:#000000;stroke-width:0.8;" x="57.6" xlink:href="#mea355c2e06" y="247.104"/>
      </g>
     </g>
     <g id="text_9">
      <!-- 0.2 -->
      <g transform="translate(34.696875 250.903219)scale(0.1 -0.1)">
       <use xlink:href="#DejaVuSans-30"/>
       <use x="63.623047" xlink:href="#DejaVuSans-2e"/>
       <use x="95.410156" xlink:href="#DejaVuSans-32"/>
      </g>
     </g>
    </g>
    <g id="ytick_3">
     <g id="line2d_9">
      <g>
       <use style="stroke:#000000;stroke-width:0.8;" x="57.6" xlink:href="#mea355c2e06" y="198.72"/>
      </g>
     </g>
     <g id="text_10">
      <!-- 0.4 -->
      <g transform="translate(34.696875 202.519219)scale(0.1 -0.1)">
       <use xlink:href="#DejaVuSans-30"/>
       <use x="63.623047" xlink:href="#DejaVuSans-2e"/>
       <use x="95.410156" xlink:href="#DejaVuSans-34"/>
      </g>
     </g>
    </g>
    <g id="ytick_4">
     <g id="line2d_10">
      <g>
       <use style="stroke:#000000;stroke-width:0.8;" x="57.6" xlink:href="#mea355c2e06" y="150.336"/>
      </g>
     </g>
     <g id="text_11">
      <!-- 0.6 -->
      <g transform="translate(34.696875 154.135219)scale(0.1 -0.1)">
       <use xlink:href="#DejaVuSans-30"/>
       <use x="63.623047" xlink:href="#DejaVuSans-2e"/>
       <use x="95.410156" xlink:href="#DejaVuSans-36"/>
      </g>
     </g>
    </g>
    <g id="ytick_5">
     <g id="line2d_11">
      <g>
       <use style="stroke:#000000;stroke-width:0.8;" x="57.6" xlink:href="#mea355c2e06" y="101.952"/>
      </g>
     </g>
     <g id="text_12">
      <!-- 0.8 -->
      <g transform="translate(34.696875 105.751219)scale(0.1 -0.1)">
       <use xlink:href="#DejaVuSans-30"/>
       <use x="63.623047" xlink:href="#DejaVuSans-2e"/>
       <use x="95.410156" xlink:href="#DejaVuSans-38"/>
      </g>
     </g>
    </g>
    <g id="ytick_6">
     <g id="line2d_12">
      <g>
       <use style="stroke:#000000;stroke-width:0.8;" x="57.6" xlink:href="#mea355c2e06" y="53.568"/>
      </g>
     </g>
     <g id="text_13">
      <!-- 1.0 -->
      <g transform="translate(34.696875 57.367219)scale(0.1 -0.1)">
       <use xlink:href="#DejaVuSans-31"/>
       <use x="63.623047" xlink:href="#DejaVuSans-2e"/>
       <use x="95.410156" xlink:href="#DejaVuSans-30"/>
      </g>
     </g>
    </g>
    <g id="text_14">
     <!-- True Positive Rate -->
     <defs>
      <path d="M -0.296875 72.90625 
L 61.375 72.90625 
L 61.375 64.59375 
L 35.5 64.59375 
L 35.5 0 
L 25.59375 0 
L 25.59375 64.59375 
L -0.296875 64.59375 
z
" id="DejaVuSans-54"/>
      <path d="M 41.109375 46.296875 
Q 39.59375 47.171875 37.8125 47.578125 
Q 36.03125 48 33.890625 48 
Q 26.265625 48 22.1875 43.046875 
Q 18.109375 38.09375 18.109375 28.8125 
L 18.109375 0 
L 9.078125 0 
L 9.078125 54.6875 
L 18.109375 54.6875 
L 18.109375 46.1875 
Q 20.953125 51.171875 25.484375 53.578125 
Q 30.03125 56 36.53125 56 
Q 37.453125 56 38.578125 55.875 
Q 39.703125 55.765625 41.0625 55.515625 
z
" id="DejaVuSans-72"/>
      <path d="M 8.5 21.578125 
L 8.5 54.6875 
L 17.484375 54.6875 
L 17.484375 21.921875 
Q 17.484375 14.15625 20.5 10.265625 
Q 23.53125 6.390625 29.59375 6.390625 
Q 36.859375 6.390625 41.078125 11.03125 
Q 45.3125 15.671875 45.3125 23.6875 
L 45.3125 54.6875 
L 54.296875 54.6875 
L 54.296875 0 
L 45.3125 0 
L 45.3125 8.40625 
Q 42.046875 3.421875 37.71875 1 
Q 33.40625 -1.421875 27.6875 -1.421875 
Q 18.265625 -1.421875 13.375 4.4375 
Q 8.5 10.296875 8.5 21.578125 
z
M 31.109375 56 
z
" id="DejaVuSans-75"/>
     </defs>
     <g transform="translate(28.617187 220.074094)rotate(-90)scale(0.1 -0.1)">
      <use xlink:href="#DejaVuSans-54"/>
      <use x="60.865234" xlink:href="#DejaVuSans-72"/>
      <use x="101.978516" xlink:href="#DejaVuSans-75"/>
      <use x="165.357422" xlink:href="#DejaVuSans-65"/>
      <use x="226.880859" xlink:href="#DejaVuSans-20"/>
      <use x="258.667969" xlink:href="#DejaVuSans-50"/>
      <use x="318.923828" xlink:href="#DejaVuSans-6f"/>
      <use x="380.105469" xlink:href="#DejaVuSans-73"/>
      <use x="432.205078" xlink:href="#DejaVuSans-69"/>
      <use x="459.988281" xlink:href="#DejaVuSans-74"/>
      <use x="499.197266" xlink:href="#DejaVuSans-69"/>
      <use x="526.980469" xlink:href="#DejaVuSans-76"/>
      <use x="586.160156" xlink:href="#DejaVuSans-65"/>
      <use x="647.683594" xlink:href="#DejaVuSans-20"/>
      <use x="679.470703" xlink:href="#DejaVuSans-52"/>
      <use x="748.921875" xlink:href="#DejaVuSans-61"/>
      <use x="810.201172" xlink:href="#DejaVuSans-74"/>
      <use x="849.410156" xlink:href="#DejaVuSans-65"/>
     </g>
    </g>
   </g>
   <g id="line2d_13">
    <path clip-path="url(#p5f62f92d9a)" d="M 73.832727 284.353607 
L 73.832727 190.217372 
L 75.342748 190.217372 
L 75.342748 151.753105 
L 76.85277 151.753105 
L 76.85277 112.276619 
L 78.362791 112.276619 
L 78.362791 105.191096 
L 79.872812 105.191096 
L 79.872812 104.178879 
L 81.382833 104.178879 
L 81.382833 102.154444 
L 82.892854 102.154444 
L 82.892854 99.117791 
L 84.402875 99.117791 
L 84.402875 97.093356 
L 85.912896 97.093356 
L 85.912896 91.02005 
L 87.422918 91.02005 
L 87.422918 88.995615 
L 88.932939 88.995615 
L 88.932939 80.897874 
L 94.973023 80.897874 
L 94.973023 72.800134 
L 97.993066 72.800134 
L 97.993066 71.787916 
L 102.523129 71.787916 
L 102.523129 67.739046 
L 104.03315 67.739046 
L 104.03315 65.714611 
L 105.543171 65.714611 
L 105.543171 64.702393 
L 108.563214 64.702393 
L 108.563214 63.690176 
L 123.663425 63.690176 
L 123.663425 62.677958 
L 126.683467 62.677958 
L 126.683467 61.665741 
L 131.213531 61.665741 
L 132.723552 60.653523 
L 134.233573 60.653523 
L 134.233573 59.641305 
L 152.353827 59.641305 
L 152.353827 58.629088 
L 173.494123 58.629088 
L 173.494123 57.61687 
L 178.024186 57.61687 
L 181.044228 57.61687 
L 230.874926 57.61687 
L 230.874926 56.604653 
L 253.525243 56.604653 
L 253.525243 55.592435 
L 321.476195 55.592435 
L 321.476195 54.580218 
L 378.856998 54.580218 
L 378.856998 53.568 
L 398.487273 53.568 
" style="fill:none;opacity:0.3;stroke:#1f77b4;stroke-linecap:square;"/>
   </g>
   <g id="line2d_14">
    <path clip-path="url(#p5f62f92d9a)" d="M 73.832727 295.488 
L 75.342748 286.378042 
L 75.342748 282.329172 
L 75.342748 254.999297 
L 75.342748 252.974862 
L 75.342748 157.82641 
L 76.85277 157.82641 
L 76.85277 113.288837 
L 78.362791 113.288837 
L 78.362791 90.007833 
L 79.872812 90.007833 
L 79.872812 88.995615 
L 84.402875 88.995615 
L 84.402875 87.983397 
L 85.912896 87.983397 
L 85.912896 86.97118 
L 87.422918 86.97118 
L 87.422918 85.958962 
L 90.44296 85.958962 
L 90.44296 77.861222 
L 91.952981 77.861222 
L 91.952981 71.787916 
L 93.463002 71.787916 
L 93.463002 69.763481 
L 107.053192 69.763481 
L 107.053192 68.751264 
L 114.603298 68.751264 
L 114.603298 67.739046 
L 116.113319 67.739046 
L 116.113319 66.726828 
L 117.62334 66.726828 
L 117.62334 64.702393 
L 128.193488 64.702393 
L 128.193488 63.690176 
L 129.70351 63.690176 
L 129.70351 61.665741 
L 141.783679 61.665741 
L 141.783679 60.653523 
L 156.88389 60.653523 
L 156.88389 59.641305 
L 161.413953 59.641305 
L 161.413953 58.629088 
L 179.534207 58.629088 
L 179.534207 57.61687 
L 294.295814 57.61687 
L 294.295814 55.592435 
L 315.43611 55.592435 
L 315.43611 54.580218 
L 393.957209 54.580218 
L 393.957209 53.568 
L 398.487273 53.568 
" style="fill:none;opacity:0.3;stroke:#ff7f0e;stroke-linecap:square;"/>
   </g>
   <g id="line2d_15">
    <path clip-path="url(#p5f62f92d9a)" d="M 73.832727 290.426912 
L 73.832727 132.520971 
L 75.349805 132.520971 
L 75.349805 102.154444 
L 76.866882 102.154444 
L 76.866882 91.02005 
L 79.901037 91.02005 
L 79.901037 88.995615 
L 81.418114 88.995615 
L 81.418114 86.97118 
L 84.452268 86.97118 
L 84.452268 82.92231 
L 85.969346 82.92231 
L 85.969346 80.897874 
L 87.486423 80.897874 
L 87.486423 79.885657 
L 90.520578 79.885657 
L 90.520578 78.873439 
L 93.554732 78.873439 
L 93.554732 77.861222 
L 96.588887 77.861222 
L 96.588887 76.849004 
L 99.623042 76.849004 
L 99.623042 75.836787 
L 102.657196 75.836787 
L 102.657196 72.800134 
L 107.208428 72.800134 
L 107.208428 71.787916 
L 111.75966 71.787916 
L 111.75966 70.775699 
L 113.276737 70.775699 
L 113.276737 69.763481 
L 116.310892 69.763481 
L 116.310892 67.739046 
L 122.379201 67.739046 
L 122.379201 66.726828 
L 126.930433 66.726828 
L 126.930433 65.714611 
L 131.481665 65.714611 
L 131.481665 64.702393 
L 137.549975 64.702393 
L 137.549975 62.677958 
L 157.27198 62.677958 
L 157.27198 60.653523 
L 164.857366 60.653523 
L 164.857366 59.641305 
L 173.95983 59.641305 
L 173.95983 58.629088 
L 228.574613 58.629088 
L 228.574613 57.61687 
L 260.433237 57.61687 
L 260.433237 56.604653 
L 304.428479 56.604653 
L 304.428479 55.592435 
L 375.731113 55.592435 
L 375.731113 54.580218 
L 398.487273 54.580218 
L 398.487273 53.568 
" style="fill:none;opacity:0.3;stroke:#2ca02c;stroke-linecap:square;"/>
   </g>
   <g id="line2d_16">
    <path clip-path="url(#p5f62f92d9a)" d="M 73.832727 290.405647 
L 73.832727 187.742118 
L 73.832727 185.709176 
L 73.832727 160.297412 
L 75.349805 160.297412 
L 75.349805 156.231529 
L 76.866882 156.231529 
L 76.866882 115.572706 
L 78.383959 115.572706 
L 78.383959 113.539765 
L 79.901037 113.539765 
L 79.901037 110.490353 
L 81.418114 110.490353 
L 81.418114 97.276235 
L 82.935191 97.276235 
L 82.935191 90.160941 
L 84.452268 90.160941 
L 84.452268 82.029176 
L 85.969346 82.029176 
L 85.969346 78.979765 
L 92.037655 78.979765 
L 92.037655 75.930353 
L 93.554732 75.930353 
L 93.554732 74.913882 
L 95.07181 74.913882 
L 95.07181 71.864471 
L 98.105964 71.864471 
L 101.140119 71.864471 
L 102.657196 71.864471 
L 102.657196 69.831529 
L 104.174274 69.831529 
L 104.174274 68.815059 
L 110.242583 68.815059 
L 110.242583 64.749176 
L 117.827969 64.749176 
L 117.827969 63.732706 
L 131.481665 63.732706 
L 131.481665 62.716235 
L 137.549975 62.716235 
L 137.549975 60.683294 
L 151.20367 60.683294 
L 154.237825 60.683294 
L 163.340289 60.683294 
L 163.340289 59.666824 
L 166.374444 59.666824 
L 166.374444 58.650353 
L 269.535701 58.650353 
L 269.535701 57.633882 
L 363.594494 57.633882 
L 363.594494 56.617412 
L 366.628649 56.617412 
L 366.628649 55.600941 
L 378.765268 55.600941 
L 378.765268 54.584471 
L 393.936041 54.584471 
L 396.970195 54.584471 
L 398.487273 54.584471 
L 398.487273 53.568 
" style="fill:none;opacity:0.3;stroke:#d62728;stroke-linecap:square;"/>
   </g>
   <g id="line2d_17">
    <path clip-path="url(#p5f62f92d9a)" d="M 73.832727 288.372706 
L 73.832727 255.845647 
L 75.349805 255.845647 
L 75.349805 250.763294 
L 76.866882 250.763294 
L 76.866882 191.808 
L 76.866882 189.775059 
L 76.866882 176.560941 
L 76.866882 174.528 
L 76.866882 153.182118 
L 78.383959 153.182118 
L 78.383959 135.902118 
L 79.901037 135.902118 
L 79.901037 126.753882 
L 79.901037 124.720941 
L 79.901037 120.655059 
L 81.418114 120.655059 
L 81.418114 118.622118 
L 82.935191 118.622118 
L 82.935191 85.078588 
L 84.452268 85.078588 
L 84.452268 81.012706 
L 92.037655 81.012706 
L 92.037655 79.996235 
L 95.07181 79.996235 
L 95.07181 75.930353 
L 98.105964 75.930353 
L 98.105964 71.864471 
L 99.623042 71.864471 
L 99.623042 70.848 
L 102.657196 70.848 
L 102.657196 69.831529 
L 104.174274 69.831529 
L 104.174274 67.798588 
L 108.725506 67.798588 
L 108.725506 65.765647 
L 116.310892 65.765647 
L 116.310892 64.749176 
L 117.827969 64.749176 
L 117.827969 63.732706 
L 123.896279 63.732706 
L 123.896279 62.716235 
L 132.998743 62.716235 
L 132.998743 61.699765 
L 134.51582 61.699765 
L 134.51582 60.683294 
L 148.169516 60.683294 
L 148.169516 58.650353 
L 160.306134 58.650353 
L 160.306134 56.617412 
L 167.891521 56.617412 
L 167.891521 55.600941 
L 213.40384 55.600941 
L 213.40384 54.584471 
L 315.04802 54.584471 
L 315.04802 53.568 
L 398.487273 53.568 
" style="fill:none;opacity:0.3;stroke:#9467bd;stroke-linecap:square;"/>
   </g>
   <g id="line2d_18">
    <path clip-path="url(#p5f62f92d9a)" d="M 73.832727 284.306824 
L 73.832727 275.158588 
L 75.349805 275.158588 
L 75.349805 161.313882 
L 76.866882 161.313882 
L 76.866882 154.198588 
L 78.383959 154.198588 
L 78.383959 109.473882 
L 79.901037 109.473882 
L 79.901037 98.292706 
L 81.418114 98.292706 
L 81.418114 91.177412 
L 82.935191 91.177412 
L 82.935191 87.111529 
L 85.969346 87.111529 
L 85.969346 85.078588 
L 87.486423 85.078588 
L 87.486423 81.012706 
L 89.0035 81.012706 
L 89.0035 78.979765 
L 102.657196 78.979765 
L 102.657196 77.963294 
L 104.174274 77.963294 
L 104.174274 76.946824 
L 105.691351 76.946824 
L 105.691351 74.913882 
L 107.208428 74.913882 
L 107.208428 72.880941 
L 108.725506 72.880941 
L 108.725506 71.864471 
L 114.793815 71.864471 
L 114.793815 68.815059 
L 129.964588 68.815059 
L 129.964588 67.798588 
L 132.998743 67.798588 
L 132.998743 65.765647 
L 137.549975 65.765647 
L 137.549975 64.749176 
L 142.101206 64.749176 
L 142.101206 63.732706 
L 146.652438 63.732706 
L 146.652438 62.716235 
L 148.169516 62.716235 
L 148.169516 61.699765 
L 160.306134 61.699765 
L 160.306134 58.650353 
L 169.408598 58.650353 
L 169.408598 57.633882 
L 187.613526 57.633882 
L 187.613526 56.617412 
L 214.920918 56.617412 
L 214.920918 55.600941 
L 380.282345 55.600941 
L 380.282345 54.584471 
L 398.487273 54.584471 
L 398.487273 53.568 
" style="fill:none;opacity:0.3;stroke:#8c564b;stroke-linecap:square;"/>
   </g>
   <g id="line2d_19">
    <path clip-path="url(#p5f62f92d9a)" d="M 73.832727 285.323294 
L 73.832727 232.466824 
L 75.349805 232.466824 
L 75.349805 172.495059 
L 76.866882 172.495059 
L 76.866882 132.852706 
L 78.383959 132.852706 
L 78.383959 126.753882 
L 78.383959 124.720941 
L 79.901037 124.720941 
L 79.901037 113.539765 
L 81.418114 113.539765 
L 81.418114 108.457412 
L 82.935191 108.457412 
L 82.935191 96.259765 
L 85.969346 96.259765 
L 85.969346 90.160941 
L 87.486423 90.160941 
L 87.486423 85.078588 
L 90.520578 85.078588 
L 90.520578 83.045647 
L 92.037655 83.045647 
L 92.037655 82.029176 
L 95.07181 82.029176 
L 95.07181 79.996235 
L 101.140119 79.996235 
L 101.140119 75.930353 
L 104.174274 75.930353 
L 104.174274 74.913882 
L 107.208428 74.913882 
L 107.208428 72.880941 
L 110.242583 72.880941 
L 110.242583 71.864471 
L 111.75966 71.864471 
L 111.75966 69.831529 
L 114.793815 69.831529 
L 114.793815 68.815059 
L 126.930433 68.815059 
L 126.930433 67.798588 
L 132.998743 67.798588 
L 132.998743 66.782118 
L 134.51582 66.782118 
L 134.51582 65.765647 
L 136.032897 65.765647 
L 137.549975 64.749176 
L 146.652438 64.749176 
L 146.652438 62.716235 
L 167.891521 62.716235 
L 167.891521 61.699765 
L 204.301376 61.699765 
L 204.301376 60.683294 
L 219.47215 60.683294 
L 219.47215 59.666824 
L 240.711232 59.666824 
L 240.711232 58.650353 
L 249.813696 58.650353 
L 249.813696 57.633882 
L 263.467392 57.633882 
L 263.467392 56.617412 
L 351.457876 56.617412 
L 351.457876 54.584471 
L 396.970195 54.584471 
L 396.970195 53.568 
L 398.487273 53.568 
" style="fill:none;opacity:0.3;stroke:#e377c2;stroke-linecap:square;"/>
   </g>
   <g id="line2d_20">
    <path clip-path="url(#p5f62f92d9a)" d="M 73.832727 290.405647 
L 73.832727 171.478588 
L 75.349805 171.478588 
L 75.349805 138.951529 
L 76.866882 138.951529 
L 76.866882 135.902118 
L 78.383959 135.902118 
L 78.383959 120.655059 
L 79.901037 120.655059 
L 79.901037 118.622118 
L 81.418114 118.622118 
L 81.418114 114.556235 
L 82.935191 114.556235 
L 82.935191 106.424471 
L 84.452268 106.424471 
L 84.452268 103.375059 
L 90.520578 103.375059 
L 90.520578 100.325647 
L 92.037655 100.325647 
L 92.037655 98.292706 
L 93.554732 98.292706 
L 93.554732 97.276235 
L 95.07181 97.276235 
L 95.07181 96.259765 
L 98.105964 96.259765 
L 98.105964 94.226824 
L 101.140119 94.226824 
L 101.140119 91.177412 
L 102.657196 91.177412 
L 102.657196 89.144471 
L 104.174274 89.144471 
L 104.174274 88.128 
L 105.691351 88.128 
L 105.691351 85.078588 
L 107.208428 85.078588 
L 107.208428 84.062118 
L 111.75966 84.062118 
L 111.75966 83.045647 
L 114.793815 83.045647 
L 114.793815 81.012706 
L 116.310892 81.012706 
L 116.310892 79.996235 
L 117.827969 79.996235 
L 117.827969 77.963294 
L 122.379201 77.963294 
L 122.379201 76.946824 
L 126.930433 76.946824 
L 126.930433 72.880941 
L 131.481665 72.880941 
L 131.481665 71.864471 
L 137.549975 71.864471 
L 137.549975 70.848 
L 142.101206 70.848 
L 145.135361 69.831529 
L 145.135361 67.798588 
L 158.789057 67.798588 
L 158.789057 66.782118 
L 161.823212 66.782118 
L 161.823212 65.765647 
L 172.442753 65.765647 
L 172.442753 64.749176 
L 173.95983 64.749176 
L 173.95983 63.732706 
L 195.198912 63.732706 
L 195.198912 62.716235 
L 196.71599 62.716235 
L 196.71599 61.699765 
L 198.233067 61.699765 
L 198.233067 60.683294 
L 249.813696 60.683294 
L 249.813696 59.666824 
L 252.84785 59.666824 
L 252.84785 58.650353 
L 264.984469 58.650353 
L 264.984469 57.633882 
L 299.877247 57.633882 
L 299.877247 56.617412 
L 357.526185 56.617412 
L 357.526185 55.600941 
L 375.731113 55.600941 
L 375.731113 54.584471 
L 398.487273 54.584471 
L 398.487273 53.568 
" style="fill:none;opacity:0.3;stroke:#7f7f7f;stroke-linecap:square;"/>
   </g>
   <g id="line2d_21">
    <path clip-path="url(#p5f62f92d9a)" d="M 73.832727 282.273882 
L 73.832727 91.177412 
L 75.349805 91.177412 
L 75.349805 82.029176 
L 76.866882 82.029176 
L 76.866882 81.012706 
L 78.383959 81.012706 
L 78.383959 78.979765 
L 81.418114 78.979765 
L 81.418114 75.930353 
L 82.935191 75.930353 
L 82.935191 73.897412 
L 96.588887 73.897412 
L 96.588887 72.880941 
L 98.105964 72.880941 
L 98.105964 71.864471 
L 101.140119 71.864471 
L 101.140119 70.848 
L 102.657196 70.848 
L 102.657196 68.815059 
L 105.691351 68.815059 
L 105.691351 65.765647 
L 116.310892 65.765647 
L 116.310892 64.749176 
L 119.345047 64.749176 
L 119.345047 62.716235 
L 120.862124 62.716235 
L 120.862124 61.699765 
L 125.413356 61.699765 
L 125.413356 60.683294 
L 126.930433 60.683294 
L 126.930433 59.666824 
L 131.481665 59.666824 
L 131.481665 58.650353 
L 164.857366 58.650353 
L 164.857366 57.633882 
L 213.40384 57.633882 
L 213.40384 56.617412 
L 305.945556 56.617412 
L 305.945556 55.600941 
L 365.111572 55.600941 
L 365.111572 54.584471 
L 389.384809 54.584471 
L 389.384809 53.568 
L 398.487273 53.568 
" style="fill:none;opacity:0.3;stroke:#bcbd22;stroke-linecap:square;"/>
   </g>
   <g id="line2d_22">
    <path clip-path="url(#p5f62f92d9a)" d="M 73.832727 295.488 
L 75.349805 292.438588 
L 75.349805 279.224471 
L 75.349805 277.191529 
L 75.349805 270.076235 
L 76.866882 270.076235 
L 76.866882 222.302118 
L 76.866882 220.269176 
L 76.866882 136.918588 
L 78.383959 136.918588 
L 78.383959 112.523294 
L 79.901037 112.523294 
L 79.901037 111.506824 
L 81.418114 111.506824 
L 81.418114 110.490353 
L 82.935191 110.490353 
L 82.935191 101.342118 
L 84.452268 101.342118 
L 84.452268 92.193882 
L 85.969346 92.193882 
L 85.969346 84.062118 
L 87.486423 84.062118 
L 87.486423 81.012706 
L 89.0035 81.012706 
L 89.0035 79.996235 
L 90.520578 79.996235 
L 90.520578 78.979765 
L 93.554732 78.979765 
L 93.554732 77.963294 
L 95.07181 77.963294 
L 95.07181 75.930353 
L 96.588887 75.930353 
L 96.588887 74.913882 
L 98.105964 74.913882 
L 98.105964 73.897412 
L 99.623042 73.897412 
L 99.623042 71.864471 
L 104.174274 71.864471 
L 104.174274 70.848 
L 105.691351 70.848 
L 105.691351 68.815059 
L 119.345047 68.815059 
L 119.345047 67.798588 
L 123.896279 67.798588 
L 123.896279 64.749176 
L 125.413356 64.749176 
L 125.413356 62.716235 
L 132.998743 62.716235 
L 132.998743 61.699765 
L 136.032897 61.699765 
L 139.067052 61.699765 
L 142.101206 61.699765 
L 142.101206 60.683294 
L 160.306134 60.683294 
L 160.306134 59.666824 
L 173.95983 59.666824 
L 173.95983 58.650353 
L 176.993985 58.650353 
L 176.993985 57.633882 
L 190.647681 57.633882 
L 190.647681 56.617412 
L 220.989227 56.617412 
L 220.989227 55.600941 
L 252.84785 55.600941 
L 252.84785 54.584471 
L 343.872489 54.584471 
L 343.872489 53.568 
L 398.487273 53.568 
" style="fill:none;opacity:0.3;stroke:#17becf;stroke-linecap:square;"/>
   </g>
   <g id="line2d_23">
    <path clip-path="url(#p5f62f92d9a)" d="M 73.832727 295.488 
L 398.487273 53.568 
" style="fill:none;opacity:0.8;stroke:#ff0000;stroke-dasharray:7.4,3.2;stroke-dashoffset:0;stroke-width:2;"/>
   </g>
   <g id="line2d_24">
    <path clip-path="url(#p5f62f92d9a)" d="M 73.832727 295.488 
L 77.112066 122.622504 
L 80.391405 103.42567 
L 83.670744 91.535941 
L 86.950083 85.545569 
L 90.229421 82.806202 
L 93.50876 79.764021 
L 96.788099 77.023803 
L 100.067438 75.703242 
L 103.346777 73.368337 
L 106.626116 71.336671 
L 109.905455 70.21983 
L 113.184793 69.305431 
L 116.464132 67.884499 
L 119.743471 66.970526 
L 123.02281 66.66601 
L 126.302149 65.853259 
L 129.581488 64.939712 
L 132.860826 64.128236 
L 136.140165 63.308298 
L 139.419504 62.604806 
L 142.698843 62.280269 
L 145.978182 61.995349 
L 149.257521 61.385467 
L 152.53686 61.284245 
L 155.816198 61.284245 
L 159.095537 60.878933 
L 162.374876 60.066182 
L 165.654215 59.761666 
L 168.933554 59.456725 
L 172.212893 59.355078 
L 175.492231 58.847693 
L 178.77157 58.746046 
L 182.050909 58.644824 
L 185.330248 58.644824 
L 188.609587 58.543177 
L 191.888926 58.44153 
L 195.168264 58.44153 
L 198.447603 58.136589 
L 201.726942 58.136589 
L 205.006281 58.034942 
L 208.28562 58.034942 
L 211.564959 58.034942 
L 214.844298 57.831648 
L 218.123636 57.73 
L 221.402975 57.526706 
L 224.682314 57.526706 
L 227.961653 57.526706 
L 231.240992 57.324263 
L 234.520331 57.324263 
L 237.799669 57.324263 
L 241.079008 57.222616 
L 244.358347 57.222616 
L 247.637686 57.222616 
L 250.917025 57.019322 
L 254.196364 56.714806 
L 257.475702 56.714806 
L 260.755041 56.613584 
L 264.03438 56.511937 
L 267.313719 56.41029 
L 270.593058 56.308643 
L 273.872397 56.308643 
L 277.151736 56.308643 
L 280.431074 56.308643 
L 283.710413 56.308643 
L 286.989752 56.308643 
L 290.269091 56.308643 
L 293.54843 56.308643 
L 296.827769 56.106199 
L 300.107107 56.004552 
L 303.386446 56.004552 
L 306.665785 55.801683 
L 309.945124 55.801683 
L 313.224463 55.801683 
L 316.503802 55.598815 
L 319.78314 55.598815 
L 323.062479 55.497593 
L 326.341818 55.497593 
L 329.621157 55.497593 
L 332.900496 55.497593 
L 336.179835 55.497593 
L 339.459174 55.497593 
L 342.738512 55.497593 
L 346.017851 55.395946 
L 349.29719 55.395946 
L 352.576529 55.192652 
L 355.855868 55.192652 
L 359.135207 55.091005 
L 362.414545 55.091005 
L 365.693884 54.887711 
L 368.973223 54.786063 
L 372.252562 54.786063 
L 375.531901 54.786063 
L 378.81124 54.481548 
L 382.090579 54.278679 
L 385.369917 54.278679 
L 388.649256 54.278679 
L 391.928595 54.177032 
L 395.207934 54.07581 
L 398.487273 53.568 
" style="fill:none;opacity:0.8;stroke:#0000ff;stroke-linecap:square;stroke-width:2;"/>
   </g>
   <g id="patch_3">
    <path d="M 57.6 307.584 
L 57.6 41.472 
" style="fill:none;stroke:#000000;stroke-linecap:square;stroke-linejoin:miter;stroke-width:0.8;"/>
   </g>
   <g id="patch_4">
    <path d="M 414.72 307.584 
L 414.72 41.472 
" style="fill:none;stroke:#000000;stroke-linecap:square;stroke-linejoin:miter;stroke-width:0.8;"/>
   </g>
   <g id="patch_5">
    <path d="M 57.6 307.584 
L 414.72 307.584 
" style="fill:none;stroke:#000000;stroke-linecap:square;stroke-linejoin:miter;stroke-width:0.8;"/>
   </g>
   <g id="patch_6">
    <path d="M 57.6 41.472 
L 414.72 41.472 
" style="fill:none;stroke:#000000;stroke-linecap:square;stroke-linejoin:miter;stroke-width:0.8;"/>
   </g>
   <g id="text_15">
    <!-- ROC curve with cross validation -->
    <defs>
     <path d="M 39.40625 66.21875 
Q 28.65625 66.21875 22.328125 58.203125 
Q 16.015625 50.203125 16.015625 36.375 
Q 16.015625 22.609375 22.328125 14.59375 
Q 28.65625 6.59375 39.40625 6.59375 
Q 50.140625 6.59375 56.421875 14.59375 
Q 62.703125 22.609375 62.703125 36.375 
Q 62.703125 50.203125 56.421875 58.203125 
Q 50.140625 66.21875 39.40625 66.21875 
z
M 39.40625 74.21875 
Q 54.734375 74.21875 63.90625 63.9375 
Q 73.09375 53.65625 73.09375 36.375 
Q 73.09375 19.140625 63.90625 8.859375 
Q 54.734375 -1.421875 39.40625 -1.421875 
Q 24.03125 -1.421875 14.8125 8.828125 
Q 5.609375 19.09375 5.609375 36.375 
Q 5.609375 53.65625 14.8125 63.9375 
Q 24.03125 74.21875 39.40625 74.21875 
z
" id="DejaVuSans-4f"/>
     <path d="M 64.40625 67.28125 
L 64.40625 56.890625 
Q 59.421875 61.53125 53.78125 63.8125 
Q 48.140625 66.109375 41.796875 66.109375 
Q 29.296875 66.109375 22.65625 58.46875 
Q 16.015625 50.828125 16.015625 36.375 
Q 16.015625 21.96875 22.65625 14.328125 
Q 29.296875 6.6875 41.796875 6.6875 
Q 48.140625 6.6875 53.78125 8.984375 
Q 59.421875 11.28125 64.40625 15.921875 
L 64.40625 5.609375 
Q 59.234375 2.09375 53.4375 0.328125 
Q 47.65625 -1.421875 41.21875 -1.421875 
Q 24.65625 -1.421875 15.125 8.703125 
Q 5.609375 18.84375 5.609375 36.375 
Q 5.609375 53.953125 15.125 64.078125 
Q 24.65625 74.21875 41.21875 74.21875 
Q 47.75 74.21875 53.53125 72.484375 
Q 59.328125 70.75 64.40625 67.28125 
z
" id="DejaVuSans-43"/>
     <path d="M 48.78125 52.59375 
L 48.78125 44.1875 
Q 44.96875 46.296875 41.140625 47.34375 
Q 37.3125 48.390625 33.40625 48.390625 
Q 24.65625 48.390625 19.8125 42.84375 
Q 14.984375 37.3125 14.984375 27.296875 
Q 14.984375 17.28125 19.8125 11.734375 
Q 24.65625 6.203125 33.40625 6.203125 
Q 37.3125 6.203125 41.140625 7.25 
Q 44.96875 8.296875 48.78125 10.40625 
L 48.78125 2.09375 
Q 45.015625 0.34375 40.984375 -0.53125 
Q 36.96875 -1.421875 32.421875 -1.421875 
Q 20.0625 -1.421875 12.78125 6.34375 
Q 5.515625 14.109375 5.515625 27.296875 
Q 5.515625 40.671875 12.859375 48.328125 
Q 20.21875 56 33.015625 56 
Q 37.15625 56 41.109375 55.140625 
Q 45.0625 54.296875 48.78125 52.59375 
z
" id="DejaVuSans-63"/>
     <path d="M 4.203125 54.6875 
L 13.1875 54.6875 
L 24.421875 12.015625 
L 35.59375 54.6875 
L 46.1875 54.6875 
L 57.421875 12.015625 
L 68.609375 54.6875 
L 77.59375 54.6875 
L 63.28125 0 
L 52.6875 0 
L 40.921875 44.828125 
L 29.109375 0 
L 18.5 0 
z
" id="DejaVuSans-77"/>
     <path d="M 54.890625 33.015625 
L 54.890625 0 
L 45.90625 0 
L 45.90625 32.71875 
Q 45.90625 40.484375 42.875 44.328125 
Q 39.84375 48.1875 33.796875 48.1875 
Q 26.515625 48.1875 22.3125 43.546875 
Q 18.109375 38.921875 18.109375 30.90625 
L 18.109375 0 
L 9.078125 0 
L 9.078125 75.984375 
L 18.109375 75.984375 
L 18.109375 46.1875 
Q 21.34375 51.125 25.703125 53.5625 
Q 30.078125 56 35.796875 56 
Q 45.21875 56 50.046875 50.171875 
Q 54.890625 44.34375 54.890625 33.015625 
z
" id="DejaVuSans-68"/>
     <path d="M 45.40625 46.390625 
L 45.40625 75.984375 
L 54.390625 75.984375 
L 54.390625 0 
L 45.40625 0 
L 45.40625 8.203125 
Q 42.578125 3.328125 38.25 0.953125 
Q 33.9375 -1.421875 27.875 -1.421875 
Q 17.96875 -1.421875 11.734375 6.484375 
Q 5.515625 14.40625 5.515625 27.296875 
Q 5.515625 40.1875 11.734375 48.09375 
Q 17.96875 56 27.875 56 
Q 33.9375 56 38.25 53.625 
Q 42.578125 51.265625 45.40625 46.390625 
z
M 14.796875 27.296875 
Q 14.796875 17.390625 18.875 11.75 
Q 22.953125 6.109375 30.078125 6.109375 
Q 37.203125 6.109375 41.296875 11.75 
Q 45.40625 17.390625 45.40625 27.296875 
Q 45.40625 37.203125 41.296875 42.84375 
Q 37.203125 48.484375 30.078125 48.484375 
Q 22.953125 48.484375 18.875 42.84375 
Q 14.796875 37.203125 14.796875 27.296875 
z
" id="DejaVuSans-64"/>
     <path d="M 54.890625 33.015625 
L 54.890625 0 
L 45.90625 0 
L 45.90625 32.71875 
Q 45.90625 40.484375 42.875 44.328125 
Q 39.84375 48.1875 33.796875 48.1875 
Q 26.515625 48.1875 22.3125 43.546875 
Q 18.109375 38.921875 18.109375 30.90625 
L 18.109375 0 
L 9.078125 0 
L 9.078125 54.6875 
L 18.109375 54.6875 
L 18.109375 46.1875 
Q 21.34375 51.125 25.703125 53.5625 
Q 30.078125 56 35.796875 56 
Q 45.21875 56 50.046875 50.171875 
Q 54.890625 44.34375 54.890625 33.015625 
z
" id="DejaVuSans-6e"/>
    </defs>
    <g transform="translate(140.684062 35.472)scale(0.12 -0.12)">
     <use xlink:href="#DejaVuSans-52"/>
     <use x="69.482422" xlink:href="#DejaVuSans-4f"/>
     <use x="148.193359" xlink:href="#DejaVuSans-43"/>
     <use x="218.017578" xlink:href="#DejaVuSans-20"/>
     <use x="249.804688" xlink:href="#DejaVuSans-63"/>
     <use x="304.785156" xlink:href="#DejaVuSans-75"/>
     <use x="368.164062" xlink:href="#DejaVuSans-72"/>
     <use x="409.277344" xlink:href="#DejaVuSans-76"/>
     <use x="468.457031" xlink:href="#DejaVuSans-65"/>
     <use x="529.980469" xlink:href="#DejaVuSans-20"/>
     <use x="561.767578" xlink:href="#DejaVuSans-77"/>
     <use x="643.554688" xlink:href="#DejaVuSans-69"/>
     <use x="671.337891" xlink:href="#DejaVuSans-74"/>
     <use x="710.546875" xlink:href="#DejaVuSans-68"/>
     <use x="773.925781" xlink:href="#DejaVuSans-20"/>
     <use x="805.712891" xlink:href="#DejaVuSans-63"/>
     <use x="860.693359" xlink:href="#DejaVuSans-72"/>
     <use x="901.775391" xlink:href="#DejaVuSans-6f"/>
     <use x="962.957031" xlink:href="#DejaVuSans-73"/>
     <use x="1015.056641" xlink:href="#DejaVuSans-73"/>
     <use x="1067.15625" xlink:href="#DejaVuSans-20"/>
     <use x="1098.943359" xlink:href="#DejaVuSans-76"/>
     <use x="1158.123047" xlink:href="#DejaVuSans-61"/>
     <use x="1219.402344" xlink:href="#DejaVuSans-6c"/>
     <use x="1247.185547" xlink:href="#DejaVuSans-69"/>
     <use x="1274.96875" xlink:href="#DejaVuSans-64"/>
     <use x="1338.445312" xlink:href="#DejaVuSans-61"/>
     <use x="1399.724609" xlink:href="#DejaVuSans-74"/>
     <use x="1438.933594" xlink:href="#DejaVuSans-69"/>
     <use x="1466.716797" xlink:href="#DejaVuSans-6f"/>
     <use x="1527.898438" xlink:href="#DejaVuSans-6e"/>
    </g>
   </g>
   <g id="legend_1">
    <g id="patch_7">
     <path d="M 217.32 302.584 
L 407.72 302.584 
Q 409.72 302.584 409.72 300.584 
L 409.72 110.768375 
Q 409.72 108.768375 407.72 108.768375 
L 217.32 108.768375 
Q 215.32 108.768375 215.32 110.768375 
L 215.32 300.584 
Q 215.32 302.584 217.32 302.584 
z
" style="fill:#ffffff;opacity:0.8;stroke:#cccccc;stroke-linejoin:miter;"/>
    </g>
    <g id="line2d_25">
     <path d="M 219.32 116.866813 
L 239.32 116.866813 
" style="fill:none;opacity:0.3;stroke:#1f77b4;stroke-linecap:square;"/>
    </g>
    <g id="line2d_26"/>
    <g id="text_16">
     <!-- ROC fold 1 (AUC = 0.97) -->
     <defs>
      <path d="M 37.109375 75.984375 
L 37.109375 68.5 
L 28.515625 68.5 
Q 23.6875 68.5 21.796875 66.546875 
Q 19.921875 64.59375 19.921875 59.515625 
L 19.921875 54.6875 
L 34.71875 54.6875 
L 34.71875 47.703125 
L 19.921875 47.703125 
L 19.921875 0 
L 10.890625 0 
L 10.890625 47.703125 
L 2.296875 47.703125 
L 2.296875 54.6875 
L 10.890625 54.6875 
L 10.890625 58.5 
Q 10.890625 67.625 15.140625 71.796875 
Q 19.390625 75.984375 28.609375 75.984375 
z
" id="DejaVuSans-66"/>
      <path d="M 31 75.875 
Q 24.46875 64.65625 21.28125 53.65625 
Q 18.109375 42.671875 18.109375 31.390625 
Q 18.109375 20.125 21.3125 9.0625 
Q 24.515625 -2 31 -13.1875 
L 23.1875 -13.1875 
Q 15.875 -1.703125 12.234375 9.375 
Q 8.59375 20.453125 8.59375 31.390625 
Q 8.59375 42.28125 12.203125 53.3125 
Q 15.828125 64.359375 23.1875 75.875 
z
" id="DejaVuSans-28"/>
      <path d="M 34.1875 63.1875 
L 20.796875 26.90625 
L 47.609375 26.90625 
z
M 28.609375 72.90625 
L 39.796875 72.90625 
L 67.578125 0 
L 57.328125 0 
L 50.6875 18.703125 
L 17.828125 18.703125 
L 11.1875 0 
L 0.78125 0 
z
" id="DejaVuSans-41"/>
      <path d="M 8.6875 72.90625 
L 18.609375 72.90625 
L 18.609375 28.609375 
Q 18.609375 16.890625 22.84375 11.734375 
Q 27.09375 6.59375 36.625 6.59375 
Q 46.09375 6.59375 50.34375 11.734375 
Q 54.59375 16.890625 54.59375 28.609375 
L 54.59375 72.90625 
L 64.5 72.90625 
L 64.5 27.390625 
Q 64.5 13.140625 57.4375 5.859375 
Q 50.390625 -1.421875 36.625 -1.421875 
Q 22.796875 -1.421875 15.734375 5.859375 
Q 8.6875 13.140625 8.6875 27.390625 
z
" id="DejaVuSans-55"/>
      <path d="M 10.59375 45.40625 
L 73.1875 45.40625 
L 73.1875 37.203125 
L 10.59375 37.203125 
z
M 10.59375 25.484375 
L 73.1875 25.484375 
L 73.1875 17.1875 
L 10.59375 17.1875 
z
" id="DejaVuSans-3d"/>
      <path d="M 10.984375 1.515625 
L 10.984375 10.5 
Q 14.703125 8.734375 18.5 7.8125 
Q 22.3125 6.890625 25.984375 6.890625 
Q 35.75 6.890625 40.890625 13.453125 
Q 46.046875 20.015625 46.78125 33.40625 
Q 43.953125 29.203125 39.59375 26.953125 
Q 35.25 24.703125 29.984375 24.703125 
Q 19.046875 24.703125 12.671875 31.3125 
Q 6.296875 37.9375 6.296875 49.421875 
Q 6.296875 60.640625 12.9375 67.421875 
Q 19.578125 74.21875 30.609375 74.21875 
Q 43.265625 74.21875 49.921875 64.515625 
Q 56.59375 54.828125 56.59375 36.375 
Q 56.59375 19.140625 48.40625 8.859375 
Q 40.234375 -1.421875 26.421875 -1.421875 
Q 22.703125 -1.421875 18.890625 -0.6875 
Q 15.09375 0.046875 10.984375 1.515625 
z
M 30.609375 32.421875 
Q 37.25 32.421875 41.125 36.953125 
Q 45.015625 41.5 45.015625 49.421875 
Q 45.015625 57.28125 41.125 61.84375 
Q 37.25 66.40625 30.609375 66.40625 
Q 23.96875 66.40625 20.09375 61.84375 
Q 16.21875 57.28125 16.21875 49.421875 
Q 16.21875 41.5 20.09375 36.953125 
Q 23.96875 32.421875 30.609375 32.421875 
z
" id="DejaVuSans-39"/>
      <path d="M 8.203125 72.90625 
L 55.078125 72.90625 
L 55.078125 68.703125 
L 28.609375 0 
L 18.3125 0 
L 43.21875 64.59375 
L 8.203125 64.59375 
z
" id="DejaVuSans-37"/>
      <path d="M 8.015625 75.875 
L 15.828125 75.875 
Q 23.140625 64.359375 26.78125 53.3125 
Q 30.421875 42.28125 30.421875 31.390625 
Q 30.421875 20.453125 26.78125 9.375 
Q 23.140625 -1.703125 15.828125 -13.1875 
L 8.015625 -13.1875 
Q 14.5 -2 17.703125 9.0625 
Q 20.90625 20.125 20.90625 31.390625 
Q 20.90625 42.671875 17.703125 53.65625 
Q 14.5 64.65625 8.015625 75.875 
z
" id="DejaVuSans-29"/>
     </defs>
     <g transform="translate(247.32 120.366813)scale(0.1 -0.1)">
      <use xlink:href="#DejaVuSans-52"/>
      <use x="69.482422" xlink:href="#DejaVuSans-4f"/>
      <use x="148.193359" xlink:href="#DejaVuSans-43"/>
      <use x="218.017578" xlink:href="#DejaVuSans-20"/>
      <use x="249.804688" xlink:href="#DejaVuSans-66"/>
      <use x="285.009766" xlink:href="#DejaVuSans-6f"/>
      <use x="346.191406" xlink:href="#DejaVuSans-6c"/>
      <use x="373.974609" xlink:href="#DejaVuSans-64"/>
      <use x="437.451172" xlink:href="#DejaVuSans-20"/>
      <use x="469.238281" xlink:href="#DejaVuSans-31"/>
      <use x="532.861328" xlink:href="#DejaVuSans-20"/>
      <use x="564.648438" xlink:href="#DejaVuSans-28"/>
      <use x="603.662109" xlink:href="#DejaVuSans-41"/>
      <use x="672.070312" xlink:href="#DejaVuSans-55"/>
      <use x="745.263672" xlink:href="#DejaVuSans-43"/>
      <use x="815.087891" xlink:href="#DejaVuSans-20"/>
      <use x="846.875" xlink:href="#DejaVuSans-3d"/>
      <use x="930.664062" xlink:href="#DejaVuSans-20"/>
      <use x="962.451172" xlink:href="#DejaVuSans-30"/>
      <use x="1026.074219" xlink:href="#DejaVuSans-2e"/>
      <use x="1057.861328" xlink:href="#DejaVuSans-39"/>
      <use x="1121.484375" xlink:href="#DejaVuSans-37"/>
      <use x="1185.107422" xlink:href="#DejaVuSans-29"/>
     </g>
    </g>
    <g id="line2d_27">
     <path d="M 219.32 131.544938 
L 239.32 131.544938 
" style="fill:none;opacity:0.3;stroke:#ff7f0e;stroke-linecap:square;"/>
    </g>
    <g id="line2d_28"/>
    <g id="text_17">
     <!-- ROC fold 2 (AUC = 0.97) -->
     <g transform="translate(247.32 135.044938)scale(0.1 -0.1)">
      <use xlink:href="#DejaVuSans-52"/>
      <use x="69.482422" xlink:href="#DejaVuSans-4f"/>
      <use x="148.193359" xlink:href="#DejaVuSans-43"/>
      <use x="218.017578" xlink:href="#DejaVuSans-20"/>
      <use x="249.804688" xlink:href="#DejaVuSans-66"/>
      <use x="285.009766" xlink:href="#DejaVuSans-6f"/>
      <use x="346.191406" xlink:href="#DejaVuSans-6c"/>
      <use x="373.974609" xlink:href="#DejaVuSans-64"/>
      <use x="437.451172" xlink:href="#DejaVuSans-20"/>
      <use x="469.238281" xlink:href="#DejaVuSans-32"/>
      <use x="532.861328" xlink:href="#DejaVuSans-20"/>
      <use x="564.648438" xlink:href="#DejaVuSans-28"/>
      <use x="603.662109" xlink:href="#DejaVuSans-41"/>
      <use x="672.070312" xlink:href="#DejaVuSans-55"/>
      <use x="745.263672" xlink:href="#DejaVuSans-43"/>
      <use x="815.087891" xlink:href="#DejaVuSans-20"/>
      <use x="846.875" xlink:href="#DejaVuSans-3d"/>
      <use x="930.664062" xlink:href="#DejaVuSans-20"/>
      <use x="962.451172" xlink:href="#DejaVuSans-30"/>
      <use x="1026.074219" xlink:href="#DejaVuSans-2e"/>
      <use x="1057.861328" xlink:href="#DejaVuSans-39"/>
      <use x="1121.484375" xlink:href="#DejaVuSans-37"/>
      <use x="1185.107422" xlink:href="#DejaVuSans-29"/>
     </g>
    </g>
    <g id="line2d_29">
     <path d="M 219.32 146.223063 
L 239.32 146.223063 
" style="fill:none;opacity:0.3;stroke:#2ca02c;stroke-linecap:square;"/>
    </g>
    <g id="line2d_30"/>
    <g id="text_18">
     <!-- ROC fold 3 (AUC = 0.97) -->
     <defs>
      <path d="M 40.578125 39.3125 
Q 47.65625 37.796875 51.625 33 
Q 55.609375 28.21875 55.609375 21.1875 
Q 55.609375 10.40625 48.1875 4.484375 
Q 40.765625 -1.421875 27.09375 -1.421875 
Q 22.515625 -1.421875 17.65625 -0.515625 
Q 12.796875 0.390625 7.625 2.203125 
L 7.625 11.71875 
Q 11.71875 9.328125 16.59375 8.109375 
Q 21.484375 6.890625 26.8125 6.890625 
Q 36.078125 6.890625 40.9375 10.546875 
Q 45.796875 14.203125 45.796875 21.1875 
Q 45.796875 27.640625 41.28125 31.265625 
Q 36.765625 34.90625 28.71875 34.90625 
L 20.21875 34.90625 
L 20.21875 43.015625 
L 29.109375 43.015625 
Q 36.375 43.015625 40.234375 45.921875 
Q 44.09375 48.828125 44.09375 54.296875 
Q 44.09375 59.90625 40.109375 62.90625 
Q 36.140625 65.921875 28.71875 65.921875 
Q 24.65625 65.921875 20.015625 65.03125 
Q 15.375 64.15625 9.8125 62.3125 
L 9.8125 71.09375 
Q 15.4375 72.65625 20.34375 73.4375 
Q 25.25 74.21875 29.59375 74.21875 
Q 40.828125 74.21875 47.359375 69.109375 
Q 53.90625 64.015625 53.90625 55.328125 
Q 53.90625 49.265625 50.4375 45.09375 
Q 46.96875 40.921875 40.578125 39.3125 
z
" id="DejaVuSans-33"/>
     </defs>
     <g transform="translate(247.32 149.723063)scale(0.1 -0.1)">
      <use xlink:href="#DejaVuSans-52"/>
      <use x="69.482422" xlink:href="#DejaVuSans-4f"/>
      <use x="148.193359" xlink:href="#DejaVuSans-43"/>
      <use x="218.017578" xlink:href="#DejaVuSans-20"/>
      <use x="249.804688" xlink:href="#DejaVuSans-66"/>
      <use x="285.009766" xlink:href="#DejaVuSans-6f"/>
      <use x="346.191406" xlink:href="#DejaVuSans-6c"/>
      <use x="373.974609" xlink:href="#DejaVuSans-64"/>
      <use x="437.451172" xlink:href="#DejaVuSans-20"/>
      <use x="469.238281" xlink:href="#DejaVuSans-33"/>
      <use x="532.861328" xlink:href="#DejaVuSans-20"/>
      <use x="564.648438" xlink:href="#DejaVuSans-28"/>
      <use x="603.662109" xlink:href="#DejaVuSans-41"/>
      <use x="672.070312" xlink:href="#DejaVuSans-55"/>
      <use x="745.263672" xlink:href="#DejaVuSans-43"/>
      <use x="815.087891" xlink:href="#DejaVuSans-20"/>
      <use x="846.875" xlink:href="#DejaVuSans-3d"/>
      <use x="930.664062" xlink:href="#DejaVuSans-20"/>
      <use x="962.451172" xlink:href="#DejaVuSans-30"/>
      <use x="1026.074219" xlink:href="#DejaVuSans-2e"/>
      <use x="1057.861328" xlink:href="#DejaVuSans-39"/>
      <use x="1121.484375" xlink:href="#DejaVuSans-37"/>
      <use x="1185.107422" xlink:href="#DejaVuSans-29"/>
     </g>
    </g>
    <g id="line2d_31">
     <path d="M 219.32 160.901188 
L 239.32 160.901188 
" style="fill:none;opacity:0.3;stroke:#d62728;stroke-linecap:square;"/>
    </g>
    <g id="line2d_32"/>
    <g id="text_19">
     <!-- ROC fold 4 (AUC = 0.97) -->
     <g transform="translate(247.32 164.401188)scale(0.1 -0.1)">
      <use xlink:href="#DejaVuSans-52"/>
      <use x="69.482422" xlink:href="#DejaVuSans-4f"/>
      <use x="148.193359" xlink:href="#DejaVuSans-43"/>
      <use x="218.017578" xlink:href="#DejaVuSans-20"/>
      <use x="249.804688" xlink:href="#DejaVuSans-66"/>
      <use x="285.009766" xlink:href="#DejaVuSans-6f"/>
      <use x="346.191406" xlink:href="#DejaVuSans-6c"/>
      <use x="373.974609" xlink:href="#DejaVuSans-64"/>
      <use x="437.451172" xlink:href="#DejaVuSans-20"/>
      <use x="469.238281" xlink:href="#DejaVuSans-34"/>
      <use x="532.861328" xlink:href="#DejaVuSans-20"/>
      <use x="564.648438" xlink:href="#DejaVuSans-28"/>
      <use x="603.662109" xlink:href="#DejaVuSans-41"/>
      <use x="672.070312" xlink:href="#DejaVuSans-55"/>
      <use x="745.263672" xlink:href="#DejaVuSans-43"/>
      <use x="815.087891" xlink:href="#DejaVuSans-20"/>
      <use x="846.875" xlink:href="#DejaVuSans-3d"/>
      <use x="930.664062" xlink:href="#DejaVuSans-20"/>
      <use x="962.451172" xlink:href="#DejaVuSans-30"/>
      <use x="1026.074219" xlink:href="#DejaVuSans-2e"/>
      <use x="1057.861328" xlink:href="#DejaVuSans-39"/>
      <use x="1121.484375" xlink:href="#DejaVuSans-37"/>
      <use x="1185.107422" xlink:href="#DejaVuSans-29"/>
     </g>
    </g>
    <g id="line2d_33">
     <path d="M 219.32 175.579313 
L 239.32 175.579313 
" style="fill:none;opacity:0.3;stroke:#9467bd;stroke-linecap:square;"/>
    </g>
    <g id="line2d_34"/>
    <g id="text_20">
     <!-- ROC fold 5 (AUC = 0.97) -->
     <defs>
      <path d="M 10.796875 72.90625 
L 49.515625 72.90625 
L 49.515625 64.59375 
L 19.828125 64.59375 
L 19.828125 46.734375 
Q 21.96875 47.46875 24.109375 47.828125 
Q 26.265625 48.1875 28.421875 48.1875 
Q 40.625 48.1875 47.75 41.5 
Q 54.890625 34.8125 54.890625 23.390625 
Q 54.890625 11.625 47.5625 5.09375 
Q 40.234375 -1.421875 26.90625 -1.421875 
Q 22.3125 -1.421875 17.546875 -0.640625 
Q 12.796875 0.140625 7.71875 1.703125 
L 7.71875 11.625 
Q 12.109375 9.234375 16.796875 8.0625 
Q 21.484375 6.890625 26.703125 6.890625 
Q 35.15625 6.890625 40.078125 11.328125 
Q 45.015625 15.765625 45.015625 23.390625 
Q 45.015625 31 40.078125 35.4375 
Q 35.15625 39.890625 26.703125 39.890625 
Q 22.75 39.890625 18.8125 39.015625 
Q 14.890625 38.140625 10.796875 36.28125 
z
" id="DejaVuSans-35"/>
     </defs>
     <g transform="translate(247.32 179.079313)scale(0.1 -0.1)">
      <use xlink:href="#DejaVuSans-52"/>
      <use x="69.482422" xlink:href="#DejaVuSans-4f"/>
      <use x="148.193359" xlink:href="#DejaVuSans-43"/>
      <use x="218.017578" xlink:href="#DejaVuSans-20"/>
      <use x="249.804688" xlink:href="#DejaVuSans-66"/>
      <use x="285.009766" xlink:href="#DejaVuSans-6f"/>
      <use x="346.191406" xlink:href="#DejaVuSans-6c"/>
      <use x="373.974609" xlink:href="#DejaVuSans-64"/>
      <use x="437.451172" xlink:href="#DejaVuSans-20"/>
      <use x="469.238281" xlink:href="#DejaVuSans-35"/>
      <use x="532.861328" xlink:href="#DejaVuSans-20"/>
      <use x="564.648438" xlink:href="#DejaVuSans-28"/>
      <use x="603.662109" xlink:href="#DejaVuSans-41"/>
      <use x="672.070312" xlink:href="#DejaVuSans-55"/>
      <use x="745.263672" xlink:href="#DejaVuSans-43"/>
      <use x="815.087891" xlink:href="#DejaVuSans-20"/>
      <use x="846.875" xlink:href="#DejaVuSans-3d"/>
      <use x="930.664062" xlink:href="#DejaVuSans-20"/>
      <use x="962.451172" xlink:href="#DejaVuSans-30"/>
      <use x="1026.074219" xlink:href="#DejaVuSans-2e"/>
      <use x="1057.861328" xlink:href="#DejaVuSans-39"/>
      <use x="1121.484375" xlink:href="#DejaVuSans-37"/>
      <use x="1185.107422" xlink:href="#DejaVuSans-29"/>
     </g>
    </g>
    <g id="line2d_35">
     <path d="M 219.32 190.257438 
L 239.32 190.257438 
" style="fill:none;opacity:0.3;stroke:#8c564b;stroke-linecap:square;"/>
    </g>
    <g id="line2d_36"/>
    <g id="text_21">
     <!-- ROC fold 6 (AUC = 0.97) -->
     <g transform="translate(247.32 193.757438)scale(0.1 -0.1)">
      <use xlink:href="#DejaVuSans-52"/>
      <use x="69.482422" xlink:href="#DejaVuSans-4f"/>
      <use x="148.193359" xlink:href="#DejaVuSans-43"/>
      <use x="218.017578" xlink:href="#DejaVuSans-20"/>
      <use x="249.804688" xlink:href="#DejaVuSans-66"/>
      <use x="285.009766" xlink:href="#DejaVuSans-6f"/>
      <use x="346.191406" xlink:href="#DejaVuSans-6c"/>
      <use x="373.974609" xlink:href="#DejaVuSans-64"/>
      <use x="437.451172" xlink:href="#DejaVuSans-20"/>
      <use x="469.238281" xlink:href="#DejaVuSans-36"/>
      <use x="532.861328" xlink:href="#DejaVuSans-20"/>
      <use x="564.648438" xlink:href="#DejaVuSans-28"/>
      <use x="603.662109" xlink:href="#DejaVuSans-41"/>
      <use x="672.070312" xlink:href="#DejaVuSans-55"/>
      <use x="745.263672" xlink:href="#DejaVuSans-43"/>
      <use x="815.087891" xlink:href="#DejaVuSans-20"/>
      <use x="846.875" xlink:href="#DejaVuSans-3d"/>
      <use x="930.664062" xlink:href="#DejaVuSans-20"/>
      <use x="962.451172" xlink:href="#DejaVuSans-30"/>
      <use x="1026.074219" xlink:href="#DejaVuSans-2e"/>
      <use x="1057.861328" xlink:href="#DejaVuSans-39"/>
      <use x="1121.484375" xlink:href="#DejaVuSans-37"/>
      <use x="1185.107422" xlink:href="#DejaVuSans-29"/>
     </g>
    </g>
    <g id="line2d_37">
     <path d="M 219.32 204.935563 
L 239.32 204.935563 
" style="fill:none;opacity:0.3;stroke:#e377c2;stroke-linecap:square;"/>
    </g>
    <g id="line2d_38"/>
    <g id="text_22">
     <!-- ROC fold 7 (AUC = 0.96) -->
     <g transform="translate(247.32 208.435563)scale(0.1 -0.1)">
      <use xlink:href="#DejaVuSans-52"/>
      <use x="69.482422" xlink:href="#DejaVuSans-4f"/>
      <use x="148.193359" xlink:href="#DejaVuSans-43"/>
      <use x="218.017578" xlink:href="#DejaVuSans-20"/>
      <use x="249.804688" xlink:href="#DejaVuSans-66"/>
      <use x="285.009766" xlink:href="#DejaVuSans-6f"/>
      <use x="346.191406" xlink:href="#DejaVuSans-6c"/>
      <use x="373.974609" xlink:href="#DejaVuSans-64"/>
      <use x="437.451172" xlink:href="#DejaVuSans-20"/>
      <use x="469.238281" xlink:href="#DejaVuSans-37"/>
      <use x="532.861328" xlink:href="#DejaVuSans-20"/>
      <use x="564.648438" xlink:href="#DejaVuSans-28"/>
      <use x="603.662109" xlink:href="#DejaVuSans-41"/>
      <use x="672.070312" xlink:href="#DejaVuSans-55"/>
      <use x="745.263672" xlink:href="#DejaVuSans-43"/>
      <use x="815.087891" xlink:href="#DejaVuSans-20"/>
      <use x="846.875" xlink:href="#DejaVuSans-3d"/>
      <use x="930.664062" xlink:href="#DejaVuSans-20"/>
      <use x="962.451172" xlink:href="#DejaVuSans-30"/>
      <use x="1026.074219" xlink:href="#DejaVuSans-2e"/>
      <use x="1057.861328" xlink:href="#DejaVuSans-39"/>
      <use x="1121.484375" xlink:href="#DejaVuSans-36"/>
      <use x="1185.107422" xlink:href="#DejaVuSans-29"/>
     </g>
    </g>
    <g id="line2d_39">
     <path d="M 219.32 219.613688 
L 239.32 219.613688 
" style="fill:none;opacity:0.3;stroke:#7f7f7f;stroke-linecap:square;"/>
    </g>
    <g id="line2d_40"/>
    <g id="text_23">
     <!-- ROC fold 8 (AUC = 0.95) -->
     <g transform="translate(247.32 223.113688)scale(0.1 -0.1)">
      <use xlink:href="#DejaVuSans-52"/>
      <use x="69.482422" xlink:href="#DejaVuSans-4f"/>
      <use x="148.193359" xlink:href="#DejaVuSans-43"/>
      <use x="218.017578" xlink:href="#DejaVuSans-20"/>
      <use x="249.804688" xlink:href="#DejaVuSans-66"/>
      <use x="285.009766" xlink:href="#DejaVuSans-6f"/>
      <use x="346.191406" xlink:href="#DejaVuSans-6c"/>
      <use x="373.974609" xlink:href="#DejaVuSans-64"/>
      <use x="437.451172" xlink:href="#DejaVuSans-20"/>
      <use x="469.238281" xlink:href="#DejaVuSans-38"/>
      <use x="532.861328" xlink:href="#DejaVuSans-20"/>
      <use x="564.648438" xlink:href="#DejaVuSans-28"/>
      <use x="603.662109" xlink:href="#DejaVuSans-41"/>
      <use x="672.070312" xlink:href="#DejaVuSans-55"/>
      <use x="745.263672" xlink:href="#DejaVuSans-43"/>
      <use x="815.087891" xlink:href="#DejaVuSans-20"/>
      <use x="846.875" xlink:href="#DejaVuSans-3d"/>
      <use x="930.664062" xlink:href="#DejaVuSans-20"/>
      <use x="962.451172" xlink:href="#DejaVuSans-30"/>
      <use x="1026.074219" xlink:href="#DejaVuSans-2e"/>
      <use x="1057.861328" xlink:href="#DejaVuSans-39"/>
      <use x="1121.484375" xlink:href="#DejaVuSans-35"/>
      <use x="1185.107422" xlink:href="#DejaVuSans-29"/>
     </g>
    </g>
    <g id="line2d_41">
     <path d="M 219.32 234.291812 
L 239.32 234.291812 
" style="fill:none;opacity:0.3;stroke:#bcbd22;stroke-linecap:square;"/>
    </g>
    <g id="line2d_42"/>
    <g id="text_24">
     <!-- ROC fold 9 (AUC = 0.98) -->
     <g transform="translate(247.32 237.791812)scale(0.1 -0.1)">
      <use xlink:href="#DejaVuSans-52"/>
      <use x="69.482422" xlink:href="#DejaVuSans-4f"/>
      <use x="148.193359" xlink:href="#DejaVuSans-43"/>
      <use x="218.017578" xlink:href="#DejaVuSans-20"/>
      <use x="249.804688" xlink:href="#DejaVuSans-66"/>
      <use x="285.009766" xlink:href="#DejaVuSans-6f"/>
      <use x="346.191406" xlink:href="#DejaVuSans-6c"/>
      <use x="373.974609" xlink:href="#DejaVuSans-64"/>
      <use x="437.451172" xlink:href="#DejaVuSans-20"/>
      <use x="469.238281" xlink:href="#DejaVuSans-39"/>
      <use x="532.861328" xlink:href="#DejaVuSans-20"/>
      <use x="564.648438" xlink:href="#DejaVuSans-28"/>
      <use x="603.662109" xlink:href="#DejaVuSans-41"/>
      <use x="672.070312" xlink:href="#DejaVuSans-55"/>
      <use x="745.263672" xlink:href="#DejaVuSans-43"/>
      <use x="815.087891" xlink:href="#DejaVuSans-20"/>
      <use x="846.875" xlink:href="#DejaVuSans-3d"/>
      <use x="930.664062" xlink:href="#DejaVuSans-20"/>
      <use x="962.451172" xlink:href="#DejaVuSans-30"/>
      <use x="1026.074219" xlink:href="#DejaVuSans-2e"/>
      <use x="1057.861328" xlink:href="#DejaVuSans-39"/>
      <use x="1121.484375" xlink:href="#DejaVuSans-38"/>
      <use x="1185.107422" xlink:href="#DejaVuSans-29"/>
     </g>
    </g>
    <g id="line2d_43">
     <path d="M 219.32 248.969937 
L 239.32 248.969937 
" style="fill:none;opacity:0.3;stroke:#17becf;stroke-linecap:square;"/>
    </g>
    <g id="line2d_44"/>
    <g id="text_25">
     <!-- ROC fold 10 (AUC = 0.97) -->
     <g transform="translate(247.32 252.469937)scale(0.1 -0.1)">
      <use xlink:href="#DejaVuSans-52"/>
      <use x="69.482422" xlink:href="#DejaVuSans-4f"/>
      <use x="148.193359" xlink:href="#DejaVuSans-43"/>
      <use x="218.017578" xlink:href="#DejaVuSans-20"/>
      <use x="249.804688" xlink:href="#DejaVuSans-66"/>
      <use x="285.009766" xlink:href="#DejaVuSans-6f"/>
      <use x="346.191406" xlink:href="#DejaVuSans-6c"/>
      <use x="373.974609" xlink:href="#DejaVuSans-64"/>
      <use x="437.451172" xlink:href="#DejaVuSans-20"/>
      <use x="469.238281" xlink:href="#DejaVuSans-31"/>
      <use x="532.861328" xlink:href="#DejaVuSans-30"/>
      <use x="596.484375" xlink:href="#DejaVuSans-20"/>
      <use x="628.271484" xlink:href="#DejaVuSans-28"/>
      <use x="667.285156" xlink:href="#DejaVuSans-41"/>
      <use x="735.693359" xlink:href="#DejaVuSans-55"/>
      <use x="808.886719" xlink:href="#DejaVuSans-43"/>
      <use x="878.710938" xlink:href="#DejaVuSans-20"/>
      <use x="910.498047" xlink:href="#DejaVuSans-3d"/>
      <use x="994.287109" xlink:href="#DejaVuSans-20"/>
      <use x="1026.074219" xlink:href="#DejaVuSans-30"/>
      <use x="1089.697266" xlink:href="#DejaVuSans-2e"/>
      <use x="1121.484375" xlink:href="#DejaVuSans-39"/>
      <use x="1185.107422" xlink:href="#DejaVuSans-37"/>
      <use x="1248.730469" xlink:href="#DejaVuSans-29"/>
     </g>
    </g>
    <g id="line2d_45">
     <path d="M 219.32 263.648062 
L 239.32 263.648062 
" style="fill:none;opacity:0.8;stroke:#ff0000;stroke-dasharray:7.4,3.2;stroke-dashoffset:0;stroke-width:2;"/>
    </g>
    <g id="line2d_46"/>
    <g id="text_26">
     <!-- Luck -->
     <defs>
      <path d="M 9.8125 72.90625 
L 19.671875 72.90625 
L 19.671875 8.296875 
L 55.171875 8.296875 
L 55.171875 0 
L 9.8125 0 
z
" id="DejaVuSans-4c"/>
      <path d="M 9.078125 75.984375 
L 18.109375 75.984375 
L 18.109375 31.109375 
L 44.921875 54.6875 
L 56.390625 54.6875 
L 27.390625 29.109375 
L 57.625 0 
L 45.90625 0 
L 18.109375 26.703125 
L 18.109375 0 
L 9.078125 0 
z
" id="DejaVuSans-6b"/>
     </defs>
     <g transform="translate(247.32 267.148062)scale(0.1 -0.1)">
      <use xlink:href="#DejaVuSans-4c"/>
      <use x="55.697266" xlink:href="#DejaVuSans-75"/>
      <use x="119.076172" xlink:href="#DejaVuSans-63"/>
      <use x="174.056641" xlink:href="#DejaVuSans-6b"/>
     </g>
    </g>
    <g id="line2d_47">
     <path d="M 219.32 278.326187 
L 239.32 278.326187 
" style="fill:none;opacity:0.8;stroke:#0000ff;stroke-linecap:square;stroke-width:2;"/>
    </g>
    <g id="line2d_48"/>
    <g id="text_27">
     <!-- Mean ROC (AUC = 0.96 $\pm$ 0.01) -->
     <defs>
      <path d="M 9.8125 72.90625 
L 24.515625 72.90625 
L 43.109375 23.296875 
L 61.8125 72.90625 
L 76.515625 72.90625 
L 76.515625 0 
L 66.890625 0 
L 66.890625 64.015625 
L 48.09375 14.015625 
L 38.1875 14.015625 
L 19.390625 64.015625 
L 19.390625 0 
L 9.8125 0 
z
" id="DejaVuSans-4d"/>
      <path d="M 46 62.703125 
L 46 43.796875 
L 73.1875 43.796875 
L 73.1875 35.5 
L 46 35.5 
L 46 16.609375 
L 37.796875 16.609375 
L 37.796875 35.5 
L 10.59375 35.5 
L 10.59375 43.796875 
L 37.796875 43.796875 
L 37.796875 62.703125 
z
M 10.59375 8.296875 
L 73.1875 8.296875 
L 73.1875 0 
L 10.59375 0 
z
" id="DejaVuSans-b1"/>
     </defs>
     <g transform="translate(247.32 281.826187)scale(0.1 -0.1)">
      <use transform="translate(0 0.125)" xlink:href="#DejaVuSans-4d"/>
      <use transform="translate(86.279297 0.125)" xlink:href="#DejaVuSans-65"/>
      <use transform="translate(147.802734 0.125)" xlink:href="#DejaVuSans-61"/>
      <use transform="translate(209.082031 0.125)" xlink:href="#DejaVuSans-6e"/>
      <use transform="translate(272.460938 0.125)" xlink:href="#DejaVuSans-20"/>
      <use transform="translate(304.248047 0.125)" xlink:href="#DejaVuSans-52"/>
      <use transform="translate(373.730469 0.125)" xlink:href="#DejaVuSans-4f"/>
      <use transform="translate(452.441406 0.125)" xlink:href="#DejaVuSans-43"/>
      <use transform="translate(522.265625 0.125)" xlink:href="#DejaVuSans-20"/>
      <use transform="translate(554.052734 0.125)" xlink:href="#DejaVuSans-28"/>
      <use transform="translate(593.066406 0.125)" xlink:href="#DejaVuSans-41"/>
      <use transform="translate(661.474609 0.125)" xlink:href="#DejaVuSans-55"/>
      <use transform="translate(734.667969 0.125)" xlink:href="#DejaVuSans-43"/>
      <use transform="translate(804.492188 0.125)" xlink:href="#DejaVuSans-20"/>
      <use transform="translate(836.279297 0.125)" xlink:href="#DejaVuSans-3d"/>
      <use transform="translate(920.068359 0.125)" xlink:href="#DejaVuSans-20"/>
      <use transform="translate(951.855469 0.125)" xlink:href="#DejaVuSans-30"/>
      <use transform="translate(1015.478516 0.125)" xlink:href="#DejaVuSans-2e"/>
      <use transform="translate(1047.265625 0.125)" xlink:href="#DejaVuSans-39"/>
      <use transform="translate(1110.888672 0.125)" xlink:href="#DejaVuSans-36"/>
      <use transform="translate(1174.511719 0.125)" xlink:href="#DejaVuSans-20"/>
      <use transform="translate(1206.298828 0.125)" xlink:href="#DejaVuSans-b1"/>
      <use transform="translate(1290.087891 0.125)" xlink:href="#DejaVuSans-20"/>
      <use transform="translate(1321.875 0.125)" xlink:href="#DejaVuSans-30"/>
      <use transform="translate(1385.498047 0.125)" xlink:href="#DejaVuSans-2e"/>
      <use transform="translate(1417.285156 0.125)" xlink:href="#DejaVuSans-30"/>
      <use transform="translate(1480.908203 0.125)" xlink:href="#DejaVuSans-31"/>
      <use transform="translate(1544.53125 0.125)" xlink:href="#DejaVuSans-29"/>
     </g>
    </g>
    <g id="patch_8">
     <path d="M 219.32 296.504312 
L 239.32 296.504312 
L 239.32 289.504312 
L 219.32 289.504312 
z
" style="fill:#808080;opacity:0.2;stroke:#808080;stroke-linejoin:miter;"/>
    </g>
    <g id="text_28">
     <!-- $\pm$ 1 std. dev. -->
     <g transform="translate(247.32 296.504312)scale(0.1 -0.1)">
      <use transform="translate(0 0.015625)" xlink:href="#DejaVuSans-b1"/>
      <use transform="translate(83.789062 0.015625)" xlink:href="#DejaVuSans-20"/>
      <use transform="translate(115.576172 0.015625)" xlink:href="#DejaVuSans-31"/>
      <use transform="translate(179.199219 0.015625)" xlink:href="#DejaVuSans-20"/>
      <use transform="translate(210.986328 0.015625)" xlink:href="#DejaVuSans-73"/>
      <use transform="translate(263.085938 0.015625)" xlink:href="#DejaVuSans-74"/>
      <use transform="translate(302.294922 0.015625)" xlink:href="#DejaVuSans-64"/>
      <use transform="translate(365.771484 0.015625)" xlink:href="#DejaVuSans-2e"/>
      <use transform="translate(397.558594 0.015625)" xlink:href="#DejaVuSans-20"/>
      <use transform="translate(429.345703 0.015625)" xlink:href="#DejaVuSans-64"/>
      <use transform="translate(492.822266 0.015625)" xlink:href="#DejaVuSans-65"/>
      <use transform="translate(554.345703 0.015625)" xlink:href="#DejaVuSans-76"/>
      <use transform="translate(613.525391 0.015625)" xlink:href="#DejaVuSans-2e"/>
     </g>
    </g>
   </g>
  </g>
 </g>
 <defs>
  <clipPath id="p5f62f92d9a">
   <rect height="266.112" width="357.12" x="57.6" y="41.472"/>
  </clipPath>
 </defs>
</svg>
